<svg width="14" height="14" viewBox="0 0 14 14" fill="none" xmlns="http://www.w3.org/2000/svg">
<g clip-path="url(#clip0_1485_12598)">
<rect width="14" height="14" fill="white" fill-opacity="0.01"/>
<path d="M9.5986 9.03359C9.97672 8.83047 10.4095 8.71484 10.8705 8.71484H10.872C10.9189 8.71484 10.9408 8.65859 10.9064 8.62734C10.4271 8.19715 9.87948 7.8497 9.2861 7.59922C9.27985 7.59609 9.2736 7.59453 9.26735 7.59141C10.2377 6.88672 10.8689 5.74141 10.8689 4.44922C10.8689 2.30859 9.13766 0.574219 7.00172 0.574219C4.86579 0.574219 3.1361 2.30859 3.1361 4.44922C3.1361 5.74141 3.76735 6.88672 4.73922 7.59141C4.73297 7.59453 4.72672 7.59609 4.72047 7.59922C4.02204 7.89453 3.39547 8.31797 2.85641 8.85859C2.32046 9.39357 1.89378 10.0278 1.60016 10.7258C1.31128 11.4093 1.15537 12.1417 1.14079 12.8836C1.14037 12.9003 1.14329 12.9169 1.14939 12.9324C1.15548 12.9479 1.16463 12.9621 1.17627 12.974C1.18792 12.9859 1.20184 12.9954 1.21722 13.0019C1.23259 13.0084 1.2491 13.0117 1.26579 13.0117H2.20172C2.26891 13.0117 2.32516 12.957 2.32672 12.8898C2.35797 11.6836 2.84079 10.5539 3.69547 9.69766C4.57829 8.81172 5.75329 8.32422 7.00329 8.32422C7.88922 8.32422 8.73922 8.56953 9.47204 9.02891C9.49086 9.04074 9.51247 9.0474 9.53469 9.04822C9.55691 9.04904 9.57895 9.044 9.5986 9.03359ZM7.00329 7.13672C6.28766 7.13672 5.61422 6.85703 5.10641 6.34922C4.85656 6.10001 4.65849 5.80384 4.5236 5.47775C4.38871 5.15166 4.31968 4.8021 4.32047 4.44922C4.32047 3.73203 4.60016 3.05703 5.10641 2.54922C5.61266 2.04141 6.2861 1.76172 7.00329 1.76172C7.72047 1.76172 8.39235 2.04141 8.90016 2.54922C9.15001 2.79842 9.34809 3.0946 9.48298 3.42069C9.61786 3.74678 9.6869 4.09633 9.6861 4.44922C9.6861 5.16641 9.40641 5.84141 8.90016 6.34922C8.39235 6.85703 7.71891 7.13672 7.00329 7.13672ZM12.7502 10.8555H11.4377V9.54297C11.4377 9.47422 11.3814 9.41797 11.3127 9.41797H10.4377C10.3689 9.41797 10.3127 9.47422 10.3127 9.54297V10.8555H9.00016C8.93141 10.8555 8.87516 10.9117 8.87516 10.9805V11.8555C8.87516 11.9242 8.93141 11.9805 9.00016 11.9805H10.3127V13.293C10.3127 13.3617 10.3689 13.418 10.4377 13.418H11.3127C11.3814 13.418 11.4377 13.3617 11.4377 13.293V11.9805H12.7502C12.8189 11.9805 12.8752 11.9242 12.8752 11.8555V10.9805C12.8752 10.9117 12.8189 10.8555 12.7502 10.8555Z" fill="white"/>
</g>
<defs>
<clipPath id="clip0_1485_12598">
<rect width="14" height="14" fill="white"/>
</clipPath>
</defs>
</svg>
