<svg width="20" height="20" viewBox="0 0 20 20" fill="none" xmlns="http://www.w3.org/2000/svg">
<path d="M14.7344 3.44344V1.718C14.7344 1.56844 14.5625 1.48585 14.4465 1.57737L4.38396 9.43675C4.29847 9.50323 4.22929 9.58837 4.1817 9.68566C4.13411 9.78295 4.10937 9.88983 4.10938 9.99813C4.10937 10.1064 4.13411 10.2133 4.1817 10.3106C4.22929 10.4079 4.29847 10.493 4.38396 10.5595L14.4465 18.4189C14.5648 18.5104 14.7344 18.4278 14.7344 18.2783V16.5528C14.7344 16.4434 14.6831 16.3385 14.5982 16.2716L6.56253 9.99925L14.5982 3.72469C14.6831 3.65773 14.7344 3.55282 14.7344 3.44344V3.44344Z" fill="black" fill-opacity="0.45"/>
</svg>
