<svg width="20" height="20" viewBox="0 0 20 20" fill="none" xmlns="http://www.w3.org/2000/svg">
<path d="M5.26559 3.44344V1.718C5.26559 1.56844 5.43747 1.48585 5.55354 1.57737L15.616 9.43675C15.7015 9.50323 15.7707 9.58837 15.8183 9.68566C15.8659 9.78295 15.8906 9.88983 15.8906 9.99813C15.8906 10.1064 15.8659 10.2133 15.8183 10.3106C15.7707 10.4079 15.7015 10.493 15.616 10.5595L5.55354 18.4189C5.43524 18.5104 5.26559 18.4278 5.26559 18.2783V16.5528C5.26559 16.4434 5.31693 16.3385 5.40175 16.2716L13.4375 9.99925L5.40175 3.72469C5.31693 3.65773 5.26559 3.55282 5.26559 3.44344V3.44344Z" fill="black" fill-opacity="0.45"/>
</svg>
