<svg width="21" height="20" viewBox="0 0 21 20" fill="none" xmlns="http://www.w3.org/2000/svg">
<path d="M2.35156 3.90234L4.7288 1.52734C5.01897 1.23717 5.40737 1.07422 5.81808 1.07422C6.2288 1.07422 6.61719 1.23493 6.90737 1.52734L9.46763 4.08315C9.75781 4.37333 9.92076 4.76395 9.92076 5.17467C9.92076 5.58761 9.76005 5.97377 9.46763 6.26618L7.46763 8.26842C7.92325 9.32999 8.57789 10.2945 9.3962 11.1099C10.2154 11.9336 11.173 12.5831 12.2355 13.043L14.2355 11.0407C14.5257 10.7506 14.9141 10.5876 15.3248 10.5876C15.5274 10.5869 15.7281 10.6266 15.9151 10.7044C16.1021 10.7822 16.2718 10.8965 16.4141 11.0407L18.9766 13.5965C19.2667 13.8867 19.4297 14.2773 19.4297 14.6881C19.4297 15.101 19.269 15.4872 18.9766 15.7796L16.6016 18.1546C16.106 18.6501 15.423 18.9336 14.7221 18.9336C14.577 18.9336 14.4364 18.9224 14.2935 18.8979C11.3382 18.4113 8.40513 16.8376 6.03683 14.4715C3.67076 12.101 2.09933 9.16797 1.60826 6.21038C1.46763 5.37109 1.74888 4.50725 2.35156 3.90234ZM3.19085 5.94476C3.62612 8.57645 5.0413 11.2015 7.17299 13.3331C9.30469 15.4648 11.9275 16.88 14.5592 17.3153C14.8895 17.3711 15.2288 17.2595 15.4699 17.0206L17.8025 14.6881L15.3292 12.2126L12.6551 14.8912L12.635 14.9113L12.1529 14.7327C10.691 14.1952 9.36347 13.3463 8.2623 12.2447C7.16112 11.1432 6.31264 9.81532 5.77567 8.35324L5.5971 7.87109L8.29353 5.1769L5.82031 2.70145L3.48772 5.03404C3.24665 5.27511 3.13504 5.6144 3.19085 5.94476Z" fill="#5C7088"/>
</svg>
