<svg width="16" height="16" viewBox="0 0 16 16" fill="none" xmlns="http://www.w3.org/2000/svg">
<g clip-path="url(#clip0_901_155460)">
<rect width="16" height="16" fill="white" fill-opacity="0.01"/>
<g clip-path="url(#clip1_901_155460)">
<path d="M15.3714 5.74509C14.9698 4.79457 14.3877 3.93099 13.6571 3.20223C12.9284 2.47171 12.0648 1.88953 11.1143 1.48795C10.1268 1.07009 9.08036 0.859375 8 0.859375C6.91964 0.859375 5.87321 1.07009 4.88571 1.48795C3.93519 1.88953 3.07162 2.47171 2.34286 3.20223C1.61234 3.93099 1.03015 4.79457 0.628571 5.74509C0.210714 6.73259 0 7.77902 0 8.85938C0 11.229 1.04107 13.4612 2.85536 14.9862L2.88571 15.0112C2.98929 15.0969 3.11964 15.1451 3.25357 15.1451H12.7482C12.8821 15.1451 13.0125 15.0969 13.1161 15.0112L13.1464 14.9862C14.9589 13.4612 16 11.229 16 8.85938C16 7.77902 15.7875 6.73259 15.3714 5.74509ZM12.4536 13.7879H3.54643C2.85642 13.1658 2.30494 12.4055 1.92778 11.5564C1.55062 10.7073 1.3562 9.78845 1.35714 8.85938C1.35714 7.08438 2.04821 5.41652 3.30357 4.16295C4.55893 2.90759 6.22679 2.21652 8 2.21652C9.775 2.21652 11.4429 2.90759 12.6964 4.16295C13.9518 5.4183 14.6429 7.08616 14.6429 8.85938C14.6429 10.7451 13.8482 12.529 12.4536 13.7879ZM9.99107 6.38616C9.96422 6.35958 9.92796 6.34466 9.89018 6.34466C9.85239 6.34466 9.81614 6.35958 9.78929 6.38616L8.28036 7.89509C7.94643 7.8058 7.57679 7.89152 7.31429 8.15402C7.22131 8.24682 7.14755 8.35704 7.09722 8.47838C7.04689 8.59972 7.02099 8.7298 7.02099 8.86116C7.02099 8.99253 7.04689 9.1226 7.09722 9.24394C7.14755 9.36528 7.22131 9.4755 7.31429 9.56831C7.40709 9.66128 7.51731 9.73504 7.63865 9.78537C7.75999 9.8357 7.89007 9.86161 8.02143 9.86161C8.15279 9.86161 8.28287 9.8357 8.40421 9.78537C8.52555 9.73504 8.63577 9.66128 8.72857 9.56831C8.85294 9.44431 8.94237 9.28969 8.98784 9.12006C9.0333 8.95043 9.03319 8.7718 8.9875 8.60223L10.4964 7.0933C10.5518 7.03795 10.5518 6.94688 10.4964 6.89152L9.99107 6.38616ZM7.60714 4.57366H8.39286C8.47143 4.57366 8.53572 4.50938 8.53572 4.4308V3.00223C8.53572 2.92366 8.47143 2.85938 8.39286 2.85938H7.60714C7.52857 2.85938 7.46429 2.92366 7.46429 3.00223V4.4308C7.46429 4.50938 7.52857 4.57366 7.60714 4.57366ZM12.25 8.46652V9.25223C12.25 9.3308 12.3143 9.39509 12.3929 9.39509H13.8214C13.9 9.39509 13.9643 9.3308 13.9643 9.25223V8.46652C13.9643 8.38795 13.9 8.32366 13.8214 8.32366H12.3929C12.3143 8.32366 12.25 8.38795 12.25 8.46652ZM12.4768 4.94509L11.9214 4.38973C11.8946 4.36315 11.8583 4.34823 11.8205 4.34823C11.7828 4.34823 11.7465 4.36315 11.7196 4.38973L10.7089 5.40045C10.6823 5.4273 10.6674 5.46355 10.6674 5.50134C10.6674 5.53913 10.6823 5.57538 10.7089 5.60223L11.2643 6.15759C11.3196 6.21295 11.4107 6.21295 11.4661 6.15759L12.4768 5.14688C12.5321 5.09152 12.5321 5.00045 12.4768 4.94509ZM4.2875 4.38973C4.26065 4.36315 4.22439 4.34823 4.18661 4.34823C4.14882 4.34823 4.11256 4.36315 4.08571 4.38973L3.53036 4.94509C3.50377 4.97194 3.48886 5.0082 3.48886 5.04598C3.48886 5.08377 3.50377 5.12003 3.53036 5.14688L4.54107 6.15759C4.59643 6.21295 4.6875 6.21295 4.74286 6.15759L5.29821 5.60223C5.35357 5.54688 5.35357 5.4558 5.29821 5.40045L4.2875 4.38973ZM3.53571 8.32366H2.10714C2.02857 8.32366 1.96429 8.38795 1.96429 8.46652V9.25223C1.96429 9.3308 2.02857 9.39509 2.10714 9.39509H3.53571C3.61429 9.39509 3.67857 9.3308 3.67857 9.25223V8.46652C3.67857 8.38795 3.61429 8.32366 3.53571 8.32366Z" fill="black" fill-opacity="0.85"/>
</g>
</g>
<defs>
<clipPath id="clip0_901_155460">
<rect width="16" height="16" fill="white"/>
</clipPath>
<clipPath id="clip1_901_155460">
<rect width="16" height="16" fill="white"/>
</clipPath>
</defs>
</svg>
