<svg width="16" height="16" viewBox="0 0 16 16" fill="none" xmlns="http://www.w3.org/2000/svg">
<g clip-path="url(#clip0_3385_356410)">
<path d="M13.7139 0H2.2853C1.96922 0 1.71387 0.255357 1.71387 0.571429V15.4286C1.71387 15.7446 1.96922 16 2.2853 16H13.7139C14.0299 16 14.2853 15.7446 14.2853 15.4286V0.571429C14.2853 0.255357 14.0299 0 13.7139 0ZM2.99958 1.28571H12.9996V5H2.99958V1.28571ZM12.9996 9.85714H2.99958V6.14286H12.9996V9.85714ZM12.9996 14.7143H2.99958V11H12.9996V14.7143ZM4.2853 3.14286C4.2853 3.3323 4.36055 3.51398 4.49451 3.64793C4.62846 3.78189 4.81014 3.85714 4.99958 3.85714C5.18902 3.85714 5.3707 3.78189 5.50466 3.64793C5.63861 3.51398 5.71387 3.3323 5.71387 3.14286C5.71387 2.95342 5.63861 2.77174 5.50466 2.63778C5.3707 2.50383 5.18902 2.42857 4.99958 2.42857C4.81014 2.42857 4.62846 2.50383 4.49451 2.63778C4.36055 2.77174 4.2853 2.95342 4.2853 3.14286ZM4.2853 8C4.2853 8.18944 4.36055 8.37112 4.49451 8.50508C4.62846 8.63903 4.81014 8.71429 4.99958 8.71429C5.18902 8.71429 5.3707 8.63903 5.50466 8.50508C5.63861 8.37112 5.71387 8.18944 5.71387 8C5.71387 7.81056 5.63861 7.62888 5.50466 7.49492C5.3707 7.36097 5.18902 7.28571 4.99958 7.28571C4.81014 7.28571 4.62846 7.36097 4.49451 7.49492C4.36055 7.62888 4.2853 7.81056 4.2853 8ZM4.2853 12.8571C4.2853 13.0466 4.36055 13.2283 4.49451 13.3622C4.62846 13.4962 4.81014 13.5714 4.99958 13.5714C5.18902 13.5714 5.3707 13.4962 5.50466 13.3622C5.63861 13.2283 5.71387 13.0466 5.71387 12.8571C5.71387 12.6677 5.63861 12.486 5.50466 12.3521C5.3707 12.2181 5.18902 12.1429 4.99958 12.1429C4.81014 12.1429 4.62846 12.2181 4.49451 12.3521C4.36055 12.486 4.2853 12.6677 4.2853 12.8571Z" fill="black" fill-opacity="0.45"/>
</g>
<defs>
<clipPath id="clip0_3385_356410">
<rect width="16" height="16" fill="white"/>
</clipPath>
</defs>
</svg>
