<svg width="14" height="14" viewBox="0 0 14 14" fill="none" xmlns="http://www.w3.org/2000/svg">
<path d="M9.59774 9.24063C9.97587 9.0375 10.4087 8.92188 10.8696 8.92188H10.8712C10.9181 8.92188 10.9399 8.86563 10.9056 8.83438C10.4262 8.40419 9.87863 8.05673 9.28524 7.80625C9.27899 7.80313 9.27275 7.80156 9.26649 7.79844C10.2368 7.09375 10.8681 5.94844 10.8681 4.65625C10.8681 2.51563 9.13681 0.78125 7.00087 0.78125C4.86493 0.78125 3.13524 2.51563 3.13524 4.65625C3.13524 5.94844 3.76649 7.09375 4.73837 7.79844C4.73212 7.80156 4.72587 7.80313 4.71962 7.80625C4.02118 8.10156 3.39462 8.525 2.85556 9.06563C2.31961 9.6006 1.89292 10.2348 1.59931 10.9328C1.31042 11.6163 1.15451 12.3487 1.13993 13.0906C1.13951 13.1073 1.14244 13.1239 1.14853 13.1394C1.15463 13.155 1.16377 13.1691 1.17542 13.181C1.18707 13.193 1.20099 13.2025 1.21636 13.2089C1.23174 13.2154 1.24825 13.2188 1.26493 13.2188H2.20087C2.26806 13.2188 2.32431 13.1641 2.32587 13.0969C2.35712 11.8906 2.83993 10.7609 3.69462 9.90469C4.57743 9.01875 5.75243 8.53125 7.00243 8.53125C7.88837 8.53125 8.73837 8.77656 9.47118 9.23594C9.49001 9.24777 9.51162 9.25443 9.53384 9.25525C9.55605 9.25607 9.5781 9.25103 9.59774 9.24063ZM7.00243 7.34375C6.28681 7.34375 5.61337 7.06406 5.10556 6.55625C4.85571 6.30705 4.65763 6.01087 4.52274 5.68478C4.38786 5.35869 4.31882 5.00914 4.31962 4.65625C4.31962 3.93906 4.59931 3.26406 5.10556 2.75625C5.61181 2.24844 6.28524 1.96875 7.00243 1.96875C7.71962 1.96875 8.39149 2.24844 8.89931 2.75625C9.14916 3.00545 9.34723 3.30163 9.48212 3.62772C9.61701 3.95381 9.68604 4.30337 9.68525 4.65625C9.68525 5.37344 9.40556 6.04844 8.89931 6.55625C8.39149 7.06406 7.71806 7.34375 7.00243 7.34375ZM12.7493 11.0625H8.99931C8.93056 11.0625 8.87431 11.1188 8.87431 11.1875V12.0625C8.87431 12.1313 8.93056 12.1875 8.99931 12.1875H12.7493C12.8181 12.1875 12.8743 12.1313 12.8743 12.0625V11.1875C12.8743 11.1188 12.8181 11.0625 12.7493 11.0625Z" fill="#FF4D4F"/>
</svg>
