<svg width="20" height="20" viewBox="0 0 20 20" fill="none" xmlns="http://www.w3.org/2000/svg">
<path fill-rule="evenodd" clip-rule="evenodd" d="M8.33464 2.4987C8.11362 2.4987 7.90166 2.5865 7.74538 2.74278C7.5891 2.89906 7.5013 3.11102 7.5013 3.33203V4.16536H12.5013V3.33203C12.5013 3.11102 12.4135 2.89906 12.2572 2.74278C12.1009 2.5865 11.889 2.4987 11.668 2.4987H8.33464ZM14.168 4.16536V3.33203C14.168 2.66899 13.9046 2.0331 13.4357 1.56426C12.9669 1.09542 12.331 0.832031 11.668 0.832031H8.33464C7.67159 0.832031 7.03571 1.09542 6.56687 1.56426C6.09803 2.0331 5.83464 2.66899 5.83464 3.33203V4.16536H2.5013C2.04106 4.16536 1.66797 4.53846 1.66797 4.9987C1.66797 5.45893 2.04106 5.83203 2.5013 5.83203H3.33464V16.6654C3.33464 17.3284 3.59803 17.9643 4.06687 18.4331C4.53571 18.902 5.17159 19.1654 5.83464 19.1654H14.168C14.831 19.1654 15.4669 18.902 15.9357 18.4331C16.4046 17.9643 16.668 17.3284 16.668 16.6654V5.83203H17.5013C17.9615 5.83203 18.3346 5.45893 18.3346 4.9987C18.3346 4.53846 17.9615 4.16536 17.5013 4.16536H14.168ZM5.0013 5.83203V16.6654C5.0013 16.8864 5.0891 17.0983 5.24538 17.2546C5.40166 17.4109 5.61362 17.4987 5.83464 17.4987H14.168C14.389 17.4987 14.6009 17.4109 14.7572 17.2546C14.9135 17.0983 15.0013 16.8864 15.0013 16.6654V5.83203H5.0013ZM8.33464 8.33203C8.79487 8.33203 9.16797 8.70513 9.16797 9.16536V14.1654C9.16797 14.6256 8.79487 14.9987 8.33464 14.9987C7.8744 14.9987 7.5013 14.6256 7.5013 14.1654V9.16536C7.5013 8.70513 7.8744 8.33203 8.33464 8.33203ZM10.8346 9.16536C10.8346 8.70513 11.2077 8.33203 11.668 8.33203C12.1282 8.33203 12.5013 8.70513 12.5013 9.16536V14.1654C12.5013 14.6256 12.1282 14.9987 11.668 14.9987C11.2077 14.9987 10.8346 14.6256 10.8346 14.1654V9.16536Z" fill="#FF4D4F"/>
</svg>
