<svg width="122" height="100" viewBox="0 0 122 100" fill="none" xmlns="http://www.w3.org/2000/svg">
<path d="M61.1033 99.4919C85.737 99.4919 105.707 95.7605 105.707 91.1577C105.707 86.5548 85.737 82.8235 61.1033 82.8235C36.4696 82.8235 16.5 86.5548 16.5 91.1577C16.5 95.7605 36.4696 99.4919 61.1033 99.4919Z" fill="#F5F5F7" fill-opacity="0.8"/>
<path fill-rule="evenodd" clip-rule="evenodd" d="M96.7854 66.6737L81.0452 47.3019C80.29 46.3901 79.186 45.8381 78.0235 45.8381H44.1814C43.0196 45.8381 41.9156 46.3901 41.1604 47.3019L25.4209 66.6737V76.7941H96.786V66.6737H96.7854Z" fill="#AEB8C2"/>
<path fill-rule="evenodd" clip-rule="evenodd" d="M38.7566 20.8354H83.4493C84.1473 20.8354 84.8166 21.1127 85.3102 21.6062C85.8037 22.0997 86.0809 22.7691 86.0809 23.467V84.8775C86.0809 85.5755 85.8037 86.2448 85.3102 86.7383C84.8166 87.2319 84.1473 87.5091 83.4493 87.5091H38.7566C38.0586 87.5091 37.3893 87.2319 36.8958 86.7383C36.4023 86.2448 36.125 85.5755 36.125 84.8775V23.467C36.125 22.7691 36.4023 22.0997 36.8958 21.6062C37.3893 21.1127 38.0586 20.8354 38.7566 20.8354V20.8354Z" fill="#F5F5F7"/>
<path fill-rule="evenodd" clip-rule="evenodd" d="M44.5777 27.3835H77.6283C77.9773 27.3835 78.312 27.5222 78.5587 27.7689C78.8055 28.0157 78.9441 28.3504 78.9441 28.6993V45.1184C78.9441 45.4674 78.8055 45.8021 78.5587 46.0488C78.312 46.2956 77.9773 46.4342 77.6283 46.4342H44.5777C44.2287 46.4342 43.894 46.2956 43.6472 46.0488C43.4005 45.8021 43.2619 45.4674 43.2619 45.1184V28.6993C43.2619 28.3504 43.4005 28.0157 43.6472 27.7689C43.894 27.5222 44.2287 27.3835 44.5777 27.3835ZM44.75 53.577H77.4559C77.8506 53.577 78.2291 53.7338 78.5082 54.0128C78.7873 54.2919 78.9441 54.6704 78.9441 55.0651C78.9441 55.4598 78.7873 55.8383 78.5082 56.1174C78.2291 56.3965 77.8506 56.5533 77.4559 56.5533H44.75C44.3553 56.5533 43.9768 56.3965 43.6977 56.1174C43.4186 55.8383 43.2619 55.4598 43.2619 55.0651C43.2619 54.6704 43.4186 54.2919 43.6977 54.0128C43.9768 53.7338 44.3553 53.577 44.75 53.577ZM44.75 61.3158H77.4559C77.8507 61.3158 78.2293 61.4726 78.5085 61.7518C78.7876 62.0309 78.9444 62.4095 78.9444 62.8043C78.9444 63.199 78.7876 63.5776 78.5085 63.8568C78.2293 64.1359 77.8507 64.2928 77.4559 64.2928H44.75C44.3552 64.2928 43.9766 64.1359 43.6975 63.8568C43.4184 63.5776 43.2615 63.199 43.2615 62.8043C43.2615 62.4095 43.4184 62.0309 43.6975 61.7518C43.9766 61.4726 44.3552 61.3158 44.75 61.3158ZM96.6402 89.9355C96.1303 91.9559 94.3395 93.4618 92.2092 93.4618H29.9967C27.8665 93.4618 26.0757 91.9553 25.5665 89.9355C25.4693 89.5505 25.4203 89.1549 25.4204 88.7579V66.6743H42.7349C44.6474 66.6743 46.1888 68.2849 46.1888 70.2401V70.2664C46.1888 72.221 47.748 73.7993 49.6605 73.7993H72.5454C74.4579 73.7993 76.0171 72.2066 76.0171 70.2513V70.2434C76.0171 68.2881 77.5586 66.6737 79.4711 66.6737H96.7855V88.7585C96.7855 89.1645 96.7349 89.5585 96.6402 89.9355Z" fill="#DCE0E6"/>
<path fill-rule="evenodd" clip-rule="evenodd" d="M98.8166 21.9026L94.3232 23.6461C94.2078 23.6909 94.082 23.7023 93.9604 23.6789C93.8388 23.6555 93.7263 23.5982 93.6357 23.5137C93.5452 23.4292 93.4804 23.3208 93.4487 23.2011C93.4171 23.0813 93.4199 22.9551 93.4568 22.8368L94.7311 18.7533C93.0278 16.8164 92.0278 14.4546 92.0278 11.9059C92.0278 5.33026 98.6844 0 106.896 0C115.106 0 121.763 5.33026 121.763 11.9059C121.763 18.4816 115.107 23.8118 106.896 23.8118C103.917 23.8118 101.143 23.1105 98.8166 21.9026Z" fill="#DCE0E6"/>
<path d="M112.753 14.056C113.788 14.056 114.627 13.2268 114.627 12.204C114.627 11.1812 113.788 10.3521 112.753 10.3521C111.718 10.3521 110.878 11.1812 110.878 12.204C110.878 13.2268 111.718 14.056 112.753 14.056Z" fill="white"/>
<path fill-rule="evenodd" clip-rule="evenodd" d="M102.913 13.8245H99.1646L101.071 10.5837L102.913 13.8245ZM105.256 10.5837H108.536V13.8245H105.256V10.5837Z" fill="white"/>
</svg>
