<svg width="56" height="56" viewBox="0 0 56 56" fill="none" xmlns="http://www.w3.org/2000/svg">
<rect width="56" height="56" rx="28" fill="white"/>
<rect width="32" height="32" transform="translate(12 12)" fill="white"/>
<path d="M19.7148 36.5759H22.572C22.7291 36.5759 22.8577 36.4473 22.8577 36.2902V19.7188C22.8577 19.5616 22.7291 19.433 22.572 19.433H19.7148C19.5577 19.433 19.4291 19.5616 19.4291 19.7188V36.2902C19.4291 36.4473 19.5577 36.5759 19.7148 36.5759ZM26.572 26.5759H29.4291C29.5863 26.5759 29.7148 26.4473 29.7148 26.2902V19.7188C29.7148 19.5616 29.5863 19.433 29.4291 19.433H26.572C26.4148 19.433 26.2863 19.5616 26.2863 19.7188V26.2902C26.2863 26.4473 26.4148 26.5759 26.572 26.5759ZM33.4291 29.1473H36.2863C36.4434 29.1473 36.572 29.0188 36.572 28.8616V19.7188C36.572 19.5616 36.4434 19.433 36.2863 19.433H33.4291C33.272 19.433 33.1434 19.5616 33.1434 19.7188V28.8616C33.1434 29.0188 33.272 29.1473 33.4291 29.1473ZM41.1434 13.7188H14.8577C14.2256 13.7188 13.7148 14.2295 13.7148 14.8616V41.1473C13.7148 41.7795 14.2256 42.2902 14.8577 42.2902H41.1434C41.7756 42.2902 42.2863 41.7795 42.2863 41.1473V14.8616C42.2863 14.2295 41.7756 13.7188 41.1434 13.7188ZM39.7148 39.7188H16.2863V16.2902H39.7148V39.7188Z" fill="#91D5FF"/>
</svg>
