<svg width="56" height="56" viewBox="0 0 56 56" fill="none" xmlns="http://www.w3.org/2000/svg">
<rect width="56" height="56" rx="28" fill="white"/>
<path d="M41.1434 13.7188H14.8577C14.2256 13.7188 13.7148 14.2295 13.7148 14.8616V41.1473C13.7148 41.7795 14.2256 42.2902 14.8577 42.2902H41.1434C41.7756 42.2902 42.2863 41.7795 42.2863 41.1473V14.8616C42.2863 14.2295 41.7756 13.7188 41.1434 13.7188ZM39.7148 30.2902H28.572V25.7188H39.7148V30.2902ZM39.7148 39.7188H16.2863V16.2902H39.7148V23.433H27.4291C26.797 23.433 26.2863 23.9438 26.2863 24.5759V31.433C26.2863 32.0652 26.797 32.5759 27.4291 32.5759H39.7148V39.7188ZM30.4291 28.0045C30.4291 28.3833 30.5796 28.7467 30.8475 29.0146C31.1155 29.2825 31.4788 29.433 31.8577 29.433C32.2366 29.433 32.5999 29.2825 32.8679 29.0146C33.1358 28.7467 33.2863 28.3833 33.2863 28.0045C33.2863 27.6256 33.1358 27.2622 32.8679 26.9943C32.5999 26.7264 32.2366 26.5759 31.8577 26.5759C31.4788 26.5759 31.1155 26.7264 30.8475 26.9943C30.5796 27.2622 30.4291 27.6256 30.4291 28.0045Z" fill="#FF9C6E"/>
</svg>
