<svg width="16" height="16" viewBox="0 0 16 16" fill="none" xmlns="http://www.w3.org/2000/svg">
<path d="M8.53753 1.57227H7.4661C7.37086 1.57227 7.32324 1.61988 7.32324 1.71512V7.32227H2.00223C1.90699 7.32227 1.85938 7.36988 1.85938 7.46512V8.53655C1.85938 8.63179 1.90699 8.67941 2.00223 8.67941H7.32324V14.2866C7.32324 14.3818 7.37086 14.4294 7.4661 14.4294H8.53753C8.63277 14.4294 8.68039 14.3818 8.68039 14.2866V8.67941H14.0022C14.0975 8.67941 14.1451 8.63179 14.1451 8.53655V7.46512C14.1451 7.36988 14.0975 7.32227 14.0022 7.32227H8.68039V1.71512C8.68039 1.61988 8.63277 1.57227 8.53753 1.57227Z" fill="#1890FF"/>
</svg>
