<svg width="20" height="20" viewBox="0 0 20 20" fill="none" xmlns="http://www.w3.org/2000/svg">
<path d="M10.668 1.96484H9.32872C9.20967 1.96484 9.15015 2.02437 9.15015 2.14342V9.15234H2.49888C2.37984 9.15234 2.32031 9.21187 2.32031 9.33092V10.6702C2.32031 10.7893 2.37984 10.8488 2.49888 10.8488H9.15015V17.8577C9.15015 17.9767 9.20967 18.0363 9.32872 18.0363H10.668C10.7871 18.0363 10.8466 17.9767 10.8466 17.8577V10.8488H17.4989C17.6179 10.8488 17.6775 10.7893 17.6775 10.6702V9.33092C17.6775 9.21187 17.6179 9.15234 17.4989 9.15234H10.8466V2.14342C10.8466 2.02437 10.7871 1.96484 10.668 1.96484Z" fill="black" fill-opacity="0.85"/>
</svg>
