<svg width="33" height="32" viewBox="0 0 33 32" fill="none" xmlns="http://www.w3.org/2000/svg">
<path d="M24.102 22.1183L19.4645 17.4808C20.1841 16.5504 20.5734 15.4129 20.5734 14.2165C20.5734 12.7844 20.0145 11.4415 19.0038 10.429C17.9931 9.41652 16.6466 8.85938 15.2163 8.85938C13.7859 8.85938 12.4395 9.4183 11.4288 10.429C10.4163 11.4397 9.85913 12.7844 9.85913 14.2165C9.85913 15.6469 10.4181 16.9933 11.4288 18.004C12.4395 19.0165 13.7841 19.5737 15.2163 19.5737C16.4127 19.5737 17.5484 19.1844 18.4788 18.4665L23.1163 23.1022C23.1299 23.1158 23.146 23.1266 23.1638 23.134C23.1816 23.1414 23.2006 23.1452 23.2198 23.1452C23.2391 23.1452 23.2581 23.1414 23.2759 23.134C23.2937 23.1266 23.3098 23.1158 23.3234 23.1022L24.102 22.3254C24.1156 22.3118 24.1264 22.2957 24.1338 22.2779C24.1411 22.2602 24.1449 22.2411 24.1449 22.2219C24.1449 22.2026 24.1411 22.1836 24.1338 22.1658C24.1264 22.148 24.1156 22.1319 24.102 22.1183ZM18.0448 17.0451C17.2877 17.8004 16.2841 18.2165 15.2163 18.2165C14.1484 18.2165 13.1448 17.8004 12.3877 17.0451C11.6323 16.2879 11.2163 15.2844 11.2163 14.2165C11.2163 13.1487 11.6323 12.1433 12.3877 11.3879C13.1448 10.6326 14.1484 10.2165 15.2163 10.2165C16.2841 10.2165 17.2895 10.6308 18.0448 11.3879C18.8002 12.1451 19.2163 13.1487 19.2163 14.2165C19.2163 15.2844 18.8002 16.2897 18.0448 17.0451Z" fill="black" fill-opacity="0.45"/>
<rect x="0.5" y="-0.5" width="33" height="32.999" stroke="#D9D9D9"/>
</svg>
