<svg width="43" height="43" viewBox="0 0 43 43" fill="none" xmlns="http://www.w3.org/2000/svg">
<path fill-rule="evenodd" clip-rule="evenodd" d="M43 42.707V1C43 0.447715 42.5523 0 42 0H-3.88948e-07L43 42.707Z" fill="#52C41A"/>
<path d="M37.8507 7.25H36.6025C36.4275 7.25 36.2615 7.33036 36.1543 7.46786L28.7918 16.7946L25.2614 12.3214C25.208 12.2536 25.14 12.1988 25.0623 12.1611C24.9847 12.1233 24.8995 12.1037 24.8132 12.1036H23.565C23.4454 12.1036 23.3793 12.2411 23.4525 12.3339L28.3436 18.5304C28.5722 18.8196 29.0115 18.8196 29.2418 18.5304L37.9632 7.47857C38.0365 7.3875 37.9704 7.25 37.8507 7.25Z" fill="white"/>
</svg>
