<svg width="14" height="14" viewBox="0 0 14 14" fill="none" xmlns="http://www.w3.org/2000/svg">
<g clip-path="url(#clip0_802_130880)">
<rect width="14" height="14" fill="white" fill-opacity="0.01"/>
<g clip-path="url(#clip1_802_130880)">
<path d="M13.45 8.77888L12.4265 7.90388C12.475 7.607 12.5 7.30388 12.5 7.00075C12.5 6.69763 12.475 6.3945 12.4265 6.09763L13.45 5.22263C13.5271 5.15654 13.5824 5.06853 13.6084 4.97028C13.6343 4.87203 13.6297 4.76821 13.5953 4.67263L13.5812 4.632C13.2995 3.84454 12.8776 3.11456 12.3359 2.47731L12.3078 2.4445C12.2421 2.36724 12.1545 2.3117 12.0566 2.2852C11.9587 2.2587 11.855 2.26249 11.7593 2.29606L10.489 2.74763C10.0203 2.36325 9.49683 2.06013 8.9312 1.84763L8.68589 0.519501C8.66738 0.419567 8.61891 0.32763 8.5469 0.255904C8.4749 0.184178 8.38277 0.136058 8.28277 0.117938L8.24058 0.110126C7.42652 -0.0367493 6.57027 -0.0367493 5.7562 0.110126L5.71402 0.117938C5.61401 0.136058 5.52189 0.184178 5.44988 0.255904C5.37788 0.32763 5.3294 0.419567 5.31089 0.519501L5.06402 1.85388C4.5029 2.06642 3.98037 2.36938 3.51714 2.75075L2.23745 2.29606C2.14178 2.26222 2.03806 2.2583 1.9401 2.28481C1.84214 2.31133 1.75457 2.36702 1.68902 2.4445L1.66089 2.47731C1.11987 3.11501 0.698042 3.84487 0.415579 4.632L0.401517 4.67263C0.331204 4.86794 0.389017 5.08669 0.546829 5.22263L1.58277 6.107C1.53433 6.40075 1.51089 6.70075 1.51089 6.99919C1.51089 7.29919 1.53433 7.59919 1.58277 7.89138L0.546829 8.77575C0.469635 8.84184 0.414386 8.92985 0.388429 9.0281C0.362472 9.12634 0.367037 9.23016 0.401517 9.32575L0.415579 9.36638C0.698392 10.1539 1.11714 10.8804 1.66089 11.5211L1.68902 11.5539C1.75473 11.6311 1.8423 11.6867 1.94021 11.7132C2.03811 11.7397 2.14175 11.7359 2.23745 11.7023L3.51714 11.2476C3.98277 11.6304 4.50308 11.9336 5.06402 12.1445L5.31089 13.4789C5.3294 13.5788 5.37788 13.6707 5.44988 13.7425C5.52189 13.8142 5.61401 13.8623 5.71402 13.8804L5.7562 13.8883C6.57775 14.0359 7.41904 14.0359 8.24058 13.8883L8.28277 13.8804C8.38277 13.8623 8.4749 13.8142 8.5469 13.7425C8.61891 13.6707 8.66738 13.5788 8.68589 13.4789L8.9312 12.1508C9.4966 11.9388 10.023 11.6347 10.489 11.2508L11.7593 11.7023C11.855 11.7362 11.9587 11.7401 12.0567 11.7136C12.1546 11.687 12.2422 11.6314 12.3078 11.5539L12.3359 11.5211C12.8796 10.8789 13.2984 10.1539 13.5812 9.36638L13.5953 9.32575C13.6656 9.13356 13.6078 8.91481 13.45 8.77888ZM11.3171 6.282C11.3562 6.51794 11.3765 6.76013 11.3765 7.00231C11.3765 7.2445 11.3562 7.48669 11.3171 7.72263L11.214 8.34919L12.3812 9.34763C12.2043 9.75527 11.9809 10.1411 11.7156 10.4976L10.2656 9.98356L9.77495 10.3867C9.40152 10.6929 8.98589 10.9336 8.53589 11.1023L7.94058 11.3258L7.66089 12.8414C7.21959 12.8914 6.77406 12.8914 6.33277 12.8414L6.05308 11.3226L5.46245 11.0961C5.01714 10.9273 4.60308 10.6867 4.23277 10.382L3.74214 9.97731L2.28277 10.4961C2.01714 10.1383 1.79527 9.75231 1.61714 9.34606L2.79683 8.33825L2.69527 7.71325C2.65777 7.48044 2.63745 7.23981 2.63745 7.00231C2.63745 6.76325 2.6562 6.52419 2.69527 6.29138L2.79683 5.66638L1.61714 4.65856C1.7937 4.25075 2.01714 3.86638 2.28277 3.50856L3.74214 4.02731L4.23277 3.62263C4.60308 3.31794 5.01714 3.07731 5.46245 2.90856L6.05464 2.68513L6.33433 1.16638C6.77339 1.11638 7.22183 1.11638 7.66245 1.16638L7.94214 2.682L8.53745 2.90544C8.98589 3.07419 9.40308 3.31481 9.77652 3.62106L10.2671 4.02419L11.7171 3.51013C11.9828 3.86794 12.2046 4.25388 12.3828 4.66013L11.2156 5.65856L11.3171 6.282ZM6.99995 4.09606C5.4812 4.09606 4.24995 5.32731 4.24995 6.84606C4.24995 8.36481 5.4812 9.59606 6.99995 9.59606C8.5187 9.59606 9.74995 8.36481 9.74995 6.84606C9.74995 5.32731 8.5187 4.09606 6.99995 4.09606ZM8.23745 8.08356C8.07514 8.24634 7.88225 8.37542 7.66988 8.46337C7.4575 8.55133 7.22982 8.59642 6.99995 8.59606C6.53277 8.59606 6.0937 8.41325 5.76245 8.08356C5.59968 7.92125 5.4706 7.72836 5.38265 7.51598C5.29469 7.30361 5.2496 7.07593 5.24995 6.84606C5.24995 6.37888 5.43277 5.93981 5.76245 5.60856C6.0937 5.27731 6.53277 5.09606 6.99995 5.09606C7.46714 5.09606 7.9062 5.27731 8.23745 5.60856C8.40023 5.77087 8.52931 5.96376 8.61726 6.17614C8.70522 6.38852 8.75031 6.61619 8.74995 6.84606C8.74995 7.31325 8.56714 7.75231 8.23745 8.08356Z" fill="black" fill-opacity="0.85"/>
</g>
</g>
<defs>
<clipPath id="clip0_802_130880">
<rect width="14" height="14" fill="white"/>
</clipPath>
<clipPath id="clip1_802_130880">
<rect width="14" height="14" fill="white"/>
</clipPath>
</defs>
</svg>
