<svg width="14" height="14" viewBox="0 0 14 14" fill="none" xmlns="http://www.w3.org/2000/svg">
<g clip-path="url(#clip0_802_130937)">
<rect width="14" height="14" fill="white" fill-opacity="0.01"/>
<path d="M6.25073 1.25107H1.50073C1.36323 1.25107 1.25073 1.36357 1.25073 1.50107V6.25107C1.25073 6.38857 1.36323 6.50107 1.50073 6.50107H6.25073C6.38823 6.50107 6.50073 6.38857 6.50073 6.25107V1.50107C6.50073 1.36357 6.38823 1.25107 6.25073 1.25107ZM5.43823 5.43857H2.31323V2.31357H5.43823V5.43857ZM12.5007 1.25107H7.75073C7.61323 1.25107 7.50073 1.36357 7.50073 1.50107V6.25107C7.50073 6.38857 7.61323 6.50107 7.75073 6.50107H12.5007C12.6382 6.50107 12.7507 6.38857 12.7507 6.25107V1.50107C12.7507 1.36357 12.6382 1.25107 12.5007 1.25107ZM11.6882 5.43857H8.56323V2.31357H11.6882V5.43857ZM12.5007 7.50107H7.75073C7.61323 7.50107 7.50073 7.61357 7.50073 7.75107V12.5011C7.50073 12.6386 7.61323 12.7511 7.75073 12.7511H12.5007C12.6382 12.7511 12.7507 12.6386 12.7507 12.5011V7.75107C12.7507 7.61357 12.6382 7.50107 12.5007 7.50107ZM11.6882 11.6886H8.56323V8.56357H11.6882V11.6886ZM5.62573 10.1261H3.62573V8.12607C3.62573 8.05732 3.56948 8.00107 3.50073 8.00107H2.75073C2.68198 8.00107 2.62573 8.05732 2.62573 8.12607V10.1261H0.625732C0.556982 10.1261 0.500732 10.1823 0.500732 10.2511V11.0011C0.500732 11.0698 0.556982 11.1261 0.625732 11.1261H2.62573V13.1261C2.62573 13.1948 2.68198 13.2511 2.75073 13.2511H3.50073C3.56948 13.2511 3.62573 13.1948 3.62573 13.1261V11.1261H5.62573C5.69448 11.1261 5.75073 11.0698 5.75073 11.0011V10.2511C5.75073 10.1823 5.69448 10.1261 5.62573 10.1261Z" fill="black" fill-opacity="0.85"/>
</g>
<defs>
<clipPath id="clip0_802_130937">
<rect width="14" height="14" fill="white"/>
</clipPath>
</defs>
</svg>
