<svg width="20" height="20" viewBox="0 0 20 20" fill="none" xmlns="http://www.w3.org/2000/svg">
<path d="M17.7379 6.89649L12.7789 6.17579L10.5621 1.68165C10.5015 1.5586 10.4019 1.45899 10.2789 1.39844C9.97028 1.2461 9.59528 1.37305 9.44099 1.68165L7.22419 6.17579L2.2652 6.89649C2.12849 6.91602 2.00349 6.98048 1.90778 7.07813C1.79208 7.19705 1.72833 7.35704 1.73052 7.52294C1.73272 7.68884 1.80069 7.84708 1.9195 7.9629L5.50739 11.4609L4.65974 16.4004C4.63986 16.5153 4.65257 16.6335 4.69644 16.7415C4.7403 16.8496 4.81357 16.9432 4.90792 17.0117C5.00227 17.0802 5.11393 17.1209 5.23024 17.1292C5.34656 17.1375 5.46287 17.113 5.56599 17.0586L10.0015 14.7266L14.4371 17.0586C14.5582 17.1231 14.6988 17.1445 14.8336 17.1211C15.1734 17.0625 15.4019 16.7402 15.3433 16.4004L14.4957 11.4609L18.0836 7.9629C18.1812 7.86719 18.2457 7.74219 18.2652 7.60548C18.3179 7.26368 18.0797 6.94727 17.7379 6.89649Z" fill="white"/>
</svg>
