<svg width="25" height="24" viewBox="0 0 25 24" fill="none" xmlns="http://www.w3.org/2000/svg">
<g filter="url(#filter0_i_6073_8546)">
<rect x="0.5" width="24" height="24" rx="12" fill="white"/>
</g>
<g filter="url(#filter1_i_6073_8546)">
<rect x="2.5" y="2" width="20" height="20" rx="10" fill="white"/>
</g>
<path fill-rule="evenodd" clip-rule="evenodd" d="M18.0682 7.98158C18.2322 8.14566 18.3244 8.36818 18.3244 8.6002C18.3244 8.83222 18.2322 9.05474 18.0682 9.21883L11.5098 15.7772C11.4231 15.8639 11.3202 15.9327 11.207 15.9796C11.0937 16.0265 10.9723 16.0507 10.8497 16.0507C10.7271 16.0507 10.6058 16.0265 10.4925 15.9796C10.3793 15.9327 10.2764 15.8639 10.1897 15.7772L6.93119 12.5193C6.84762 12.4386 6.78096 12.3421 6.7351 12.2353C6.68924 12.1286 6.66511 12.0137 6.6641 11.8976C6.66309 11.7814 6.68523 11.6662 6.72922 11.5586C6.77322 11.4511 6.83819 11.3534 6.92034 11.2712C7.0025 11.1891 7.1002 11.1241 7.20773 11.0801C7.31526 11.0361 7.43048 11.014 7.54667 11.015C7.66285 11.016 7.77767 11.0401 7.88442 11.086C7.99117 11.1318 8.08772 11.1985 8.16844 11.2821L10.8494 13.9631L16.8304 7.98158C16.9116 7.90027 17.0081 7.83576 17.1143 7.79176C17.2205 7.74775 17.3343 7.7251 17.4493 7.7251C17.5642 7.7251 17.6781 7.74775 17.7843 7.79176C17.8904 7.83576 17.9869 7.90027 18.0682 7.98158Z" fill="#6FBE44"/>
<defs>
<filter id="filter0_i_6073_8546" x="-0.5" y="-2" width="25" height="26" filterUnits="userSpaceOnUse" color-interpolation-filters="sRGB">
<feFlood flood-opacity="0" result="BackgroundImageFix"/>
<feBlend mode="normal" in="SourceGraphic" in2="BackgroundImageFix" result="shape"/>
<feColorMatrix in="SourceAlpha" type="matrix" values="0 0 0 0 0 0 0 0 0 0 0 0 0 0 0 0 0 0 127 0" result="hardAlpha"/>
<feOffset dx="-1" dy="-2"/>
<feGaussianBlur stdDeviation="2"/>
<feComposite in2="hardAlpha" operator="arithmetic" k2="-1" k3="1"/>
<feColorMatrix type="matrix" values="0 0 0 0 0 0 0 0 0 0 0 0 0 0 0 0 0 0 0.25 0"/>
<feBlend mode="normal" in2="shape" result="effect1_innerShadow_6073_8546"/>
</filter>
<filter id="filter1_i_6073_8546" x="2.5" y="2" width="23" height="23" filterUnits="userSpaceOnUse" color-interpolation-filters="sRGB">
<feFlood flood-opacity="0" result="BackgroundImageFix"/>
<feBlend mode="normal" in="SourceGraphic" in2="BackgroundImageFix" result="shape"/>
<feColorMatrix in="SourceAlpha" type="matrix" values="0 0 0 0 0 0 0 0 0 0 0 0 0 0 0 0 0 0 127 0" result="hardAlpha"/>
<feOffset dx="3" dy="3"/>
<feGaussianBlur stdDeviation="4"/>
<feComposite in2="hardAlpha" operator="arithmetic" k2="-1" k3="1"/>
<feColorMatrix type="matrix" values="0 0 0 0 0 0 0 0 0 0 0 0 0 0 0 0 0 0 0.25 0"/>
<feBlend mode="normal" in2="shape" result="effect1_innerShadow_6073_8546"/>
</filter>
</defs>
</svg>
