<svg width="100" height="100" viewBox="0 0 100 100" fill="none" xmlns="http://www.w3.org/2000/svg">
<path d="M70.3305 27.4C70.3305 16.1324 61.2349 7 50.0126 7C44.4015 7 39.3221 9.2848 35.6445 12.9738L40.4328 17.7814C42.8845 15.3232 46.2708 13.8 50.0126 13.8C57.493 13.8 63.5579 19.8894 63.5579 27.4H63.5443V30.8H70.3169V27.4612C70.3169 27.4408 70.3305 27.4204 70.3305 27.4Z" fill="#240065"/>
<path d="M40.4327 17.7848L35.6444 12.9738C31.9703 16.6662 29.6947 21.7662 29.6947 27.4H29.6812V30.8H36.4538V27.4612C36.4538 27.4408 36.4673 27.4238 36.4673 27.4C36.4673 23.643 37.9844 20.243 40.4327 17.7848Z" fill="url(#paint0_linear_646_14390)"/>
<path d="M87.2619 91.9999L68.6372 73.2999L69.0063 72.9293L92.2296 49.6121L87.2619 91.9999Z" fill="#3FDDFE"/>
<path d="M92.2295 49.6122L69.0062 72.9294L68.637 73.3L22.9219 27.4H23.6601H87.2617C91.1797 27.4 94.2308 30.732 93.987 34.6182L92.2295 49.6122Z" fill="url(#paint1_linear_646_14390)"/>
<path d="M59.5889 82.3848L50.0124 92H12.763L6.03783 34.9004C5.61793 30.8918 8.74688 27.4 12.763 27.4H22.922L68.6371 73.3L59.5889 82.3848Z" fill="url(#paint2_linear_646_14390)"/>
<path d="M50.0127 92.0001L59.5892 82.3849L68.6374 73.3L87.2621 92.0001H50.0127Z" fill="#240065"/>
<defs>
<linearGradient id="paint0_linear_646_14390" x1="35.3647" y1="11.8701" x2="33.0786" y2="91.2344" gradientUnits="userSpaceOnUse">
<stop stop-color="#240065"/>
<stop offset="1" stop-color="#4D7FFD"/>
</linearGradient>
<linearGradient id="paint1_linear_646_14390" x1="58.5127" y1="24.5576" x2="58.1112" y2="72.1202" gradientUnits="userSpaceOnUse">
<stop stop-color="#4D7FFD"/>
<stop offset="0.9384" stop-color="#3FDDFE"/>
</linearGradient>
<linearGradient id="paint2_linear_646_14390" x1="38.8512" y1="107.423" x2="36.5773" y2="28.4848" gradientUnits="userSpaceOnUse">
<stop stop-color="#240065"/>
<stop offset="1" stop-color="#4D7FFD"/>
</linearGradient>
</defs>
</svg>
