<svg width="100" height="100" viewBox="0 0 100 100" fill="none" xmlns="http://www.w3.org/2000/svg">
<path d="M8.46527 9C4.34277 9 1 12.3396 1 16.4583V27.6364H42.0385L60.6923 9H8.46527ZM12.1923 22.0455C10.1329 22.0455 8.46154 20.3756 8.46154 18.3182C8.46154 16.2607 10.1329 14.5909 12.1923 14.5909C14.2517 14.5909 15.9231 16.2607 15.9231 18.3182C15.9231 20.3756 14.2517 22.0455 12.1923 22.0455ZM23.3846 22.0455C21.3252 22.0455 19.6538 20.3756 19.6538 18.3182C19.6538 16.2607 21.3252 14.5909 23.3846 14.5909C25.444 14.5909 27.1154 16.2607 27.1154 18.3182C27.1154 20.3756 25.444 22.0455 23.3846 22.0455ZM34.5769 22.0455C32.5175 22.0455 30.8462 20.3756 30.8462 18.3182C30.8462 16.2607 32.5175 14.5909 34.5769 14.5909C36.6363 14.5909 38.3077 16.2607 38.3077 18.3182C38.3077 20.3756 36.6363 22.0455 34.5769 22.0455Z" fill="url(#paint0_linear_646_14428)"/>
<path d="M90.5348 9H79.3463H60.6924L42.0386 27.6364H60.6924H98.0001V16.4583C98.0001 12.3396 94.6573 9 90.5348 9Z" fill="#240065"/>
<path d="M1 27.6364V68.6364L42.0385 27.6364H1Z" fill="#3FDDFE"/>
<path d="M49.4551 48.483C46.1497 48.483 43.4561 51.1741 43.4561 54.4802C43.4561 57.7863 46.1459 60.4737 49.4551 60.4737C52.7643 60.4737 55.4542 57.7863 55.4542 54.4802C55.4542 51.1778 52.7643 48.483 49.4551 48.483Z" fill="#49BAFC"/>
<path d="M60.6923 27.6364H42.0385L1 68.6364V87.2727C1 89.3302 2.67138 91 4.73077 91H94.2692C96.3286 91 98 89.3302 98 87.2727V27.6364H60.6923ZM62.9793 76.8364C62.4719 77.3917 62.0466 77.6489 61.6399 77.6489C60.0581 77.6489 59.3791 72.8444 59.1515 70.6193C57.9315 71.2007 56.3198 71.6219 54.3313 71.8679C53.1711 75.9642 50.1044 79.3187 49.9663 79.4641C49.7686 79.6877 49.4963 79.8182 49.2165 79.8182C48.877 79.8182 48.6046 79.6318 48.4479 79.4454C48.1681 79.1361 45.2096 75.8263 44.0904 71.8194C42.378 71.5809 40.9565 71.2082 39.841 70.7087C39.6135 72.8892 38.9345 77.6489 37.3601 77.6489C36.9572 77.6489 36.5281 77.3917 36.0207 76.8364C34.2971 74.9429 31.9281 70.1571 32.3273 65.8707C32.5772 63.1498 34.3344 61.7409 37.2183 61.9608C37.9533 54.551 40.0574 49.4185 40.1507 49.1986C44.706 39.1089 48.8993 38.8182 49.362 38.8182H49.444C49.9067 38.8182 54.0777 39.1089 58.6478 49.2359C58.7448 49.4744 60.8527 54.5771 61.5877 61.9794C64.576 61.6738 66.419 63.0827 66.6727 65.8707C67.0682 70.1534 64.6992 74.9429 62.9793 76.8364Z" fill="url(#paint1_linear_646_14428)"/>
<defs>
<linearGradient id="paint0_linear_646_14428" x1="60.1599" y1="18.1814" x2="1.26041" y2="18.4125" gradientUnits="userSpaceOnUse">
<stop stop-color="#240065"/>
<stop offset="1" stop-color="#4D7FFD"/>
</linearGradient>
<linearGradient id="paint1_linear_646_14428" x1="49.8354" y1="92.8267" x2="49.2355" y2="29.4631" gradientUnits="userSpaceOnUse">
<stop stop-color="#4D7FFD"/>
<stop offset="1" stop-color="#3FDDFE"/>
</linearGradient>
</defs>
</svg>
