<svg width="100" height="100" viewBox="0 0 100 100" fill="none" xmlns="http://www.w3.org/2000/svg">
<g clip-path="url(#clip0_646_14377)">
<path d="M4.50538 34.1451C2.26646 38.8988 1 44.0712 1 49.5001C1 59.0414 4.84085 67.8054 11.2335 74.8151L8.53846 91.0001L34.9231 64.591L4.50538 34.1451Z" fill="#3FDDFE"/>
<path d="M81.6351 17.8355C73.0978 11.7086 62.0653 8 50 8C29.3484 8 11.7159 18.8353 4.50537 34.145L34.9231 64.5909L81.6351 17.8355Z" fill="url(#paint0_linear_646_14377)"/>
<path d="M34.9232 64.5909L8.53857 91L27.3696 86.2879C34.143 89.2834 41.8284 91 50.0001 91C53.5583 91 57.0184 90.6605 60.3617 90.0531L34.9232 64.5909Z" fill="#240065"/>
<path d="M60.3614 90.0532C82.4415 86.024 98.9998 69.4089 98.9998 49.5002C98.9998 36.8012 92.2453 25.4491 81.6349 17.8357L34.9229 64.5911L60.3614 90.0532Z" fill="url(#paint1_linear_646_14377)"/>
</g>
<defs>
<linearGradient id="paint0_linear_646_14377" x1="80.276" y1="35.8446" x2="5.68814" y2="36.7281" gradientUnits="userSpaceOnUse">
<stop stop-color="#4D7FFD"/>
<stop offset="1" stop-color="#3FDDFE"/>
</linearGradient>
<linearGradient id="paint1_linear_646_14377" x1="66.1087" y1="85.4822" x2="68.1762" y2="17.3171" gradientUnits="userSpaceOnUse">
<stop stop-color="#240065"/>
<stop offset="1" stop-color="#4D7FFD"/>
</linearGradient>
<clipPath id="clip0_646_14377">
<rect width="98" height="83" fill="white" transform="translate(1 8)"/>
</clipPath>
</defs>
</svg>
