<svg width="100" height="100" viewBox="0 0 100 100" fill="none" xmlns="http://www.w3.org/2000/svg">
<path d="M11.3929 49.9999C11.3929 44.1215 12.7525 38.5688 15.1126 33.5767L8.84814 27.3123C5.12843 34.04 3 41.7682 3 49.9999C3 62.9786 8.26064 74.7286 16.7676 83.2322L22.7131 77.2867C15.7236 70.2972 11.3929 60.6454 11.3929 49.9999Z" fill="url(#paint0_linear_646_14473)"/>
<path d="M97.0002 49.9999C97.0002 37.0212 91.7396 25.2712 83.2326 16.7675L77.2871 22.713C84.2766 29.7026 88.6073 39.3544 88.6073 49.9999C88.6073 65.4092 79.5095 78.7001 66.4233 84.8873L72.6878 91.1517C87.1805 83.1483 97.0002 67.7256 97.0002 49.9999Z" fill="url(#paint1_linear_646_14473)"/>
<path d="M49.9999 88.6073C39.3544 88.6073 29.7027 84.2766 22.7131 77.287L16.7676 83.2325C25.2712 91.7395 37.0212 97.0001 49.9999 97.0001C58.2317 97.0001 65.9598 94.8717 72.6875 91.152L66.4231 84.8876C61.431 87.2476 55.8783 88.6073 49.9999 88.6073Z" fill="url(#paint2_linear_646_14473)"/>
<path d="M50 11.3929C60.6455 11.3929 70.2973 15.7236 77.2869 22.7131L83.2324 16.7676C74.7287 8.26064 62.9787 3 50 3C32.2743 3 16.8516 12.8196 8.84814 27.3124L15.1126 33.5769C21.2998 20.4907 34.5907 11.3929 50 11.3929Z" fill="url(#paint3_linear_646_14473)"/>
<path d="M66.8602 85.761L49.8901 67.1157L30.8081 84.4928C30.8081 84.4928 47.3028 94.9074 66.8602 85.761Z" fill="url(#paint4_linear_646_14473)"/>
<path d="M30.8082 84.4928L49.8902 67.1157L16.0197 29.8947C16.0197 29.8947 7.35868 42.9354 11.6881 59.6437C11.6903 59.6437 15.5444 76.3497 30.8082 84.4928Z" fill="url(#paint5_linear_646_14473)"/>
<path d="M16.0195 29.8946C16.0195 29.8946 25.667 11.4244 48.9036 10.5086C48.9036 10.5086 73.8306 8.60528 86.2583 34.1233L49.8901 67.1156L16.0195 29.8946Z" fill="url(#paint6_linear_646_14473)"/>
<path d="M49.8901 67.1157L66.8602 85.761C66.8602 85.761 78.4089 80.5807 84.5342 69.1605C84.5342 69.1605 88.4241 64.0318 89.4286 52.4545C89.4286 52.4545 90.3792 43.9432 86.2606 34.1257L49.8901 67.1157Z" fill="url(#paint7_linear_646_14473)"/>
<path d="M47.2989 41.1294C47.2989 40.471 47.2989 40.2193 47.3031 39.5693C46.0359 39.4057 43.8099 39.0744 40.4856 40.2738C40.4856 40.559 40.4899 40.8442 40.4899 41.1336C40.4899 50.4903 39.9365 58.8991 39.0537 64.7077H41.8922H45.8965H48.735C47.8522 58.8949 47.2989 50.4861 47.2989 41.1294Z" fill="#FCFCFC"/>
<path d="M40.2788 31.2736C40.2914 31.5127 40.2999 31.7559 40.3083 31.995C40.4097 34.4107 40.4646 36.948 40.4857 39.5692C42.1415 39.2421 45.5291 38.6634 47.3074 38.9821C47.3666 32.7289 47.6707 26.9664 48.1522 22.2273H45.8966H41.8923H39.6367C39.8902 24.7185 40.0971 27.4949 40.2407 30.4768C40.2534 30.7368 40.2661 31.0052 40.2788 31.2736Z" fill="#FCFCFC"/>
<path d="M32.9162 41.2397C35.4083 41.2397 37.6682 40.5351 39.3324 39.3943C37.6682 38.2536 35.4083 37.549 32.9162 37.549C30.4241 37.549 28.1642 38.2536 26.5 39.3943C28.1642 40.5351 30.4241 41.2397 32.9162 41.2397Z" fill="#FCFCFC"/>
<path d="M33.499 34.8607C35.2519 36.618 37.347 37.721 39.3323 38.0943C38.9775 36.1147 37.8919 34.0261 36.139 32.2689C34.386 30.5116 32.2951 29.4086 30.3057 29.0396C30.6605 31.0149 31.746 33.1035 33.499 34.8607Z" fill="#FCFCFC"/>
<path d="M33.499 43.882C35.2519 42.1248 37.347 41.0218 39.3323 40.6527C38.9775 42.6322 37.8919 44.7208 36.139 46.4781C34.386 48.2354 32.2951 49.3384 30.3057 49.7074C30.6605 47.7321 31.746 45.6393 33.499 43.882Z" fill="#FCFCFC"/>
<path d="M52.7013 53.7797C52.7013 53.1213 52.7013 52.8697 52.6971 52.2196C53.9642 52.056 56.1903 51.7247 59.5103 52.9242C59.5103 53.2094 59.5061 53.4946 59.5061 53.7839C59.5061 63.1406 60.0594 71.5495 60.9465 77.3539H58.108H54.1036H51.2651C52.1437 71.5453 52.7013 63.1364 52.7013 53.7797Z" fill="#FCFCFC"/>
<path d="M59.7216 43.9199C59.7089 44.1589 59.7005 44.4022 59.692 44.6412C59.5907 47.0569 59.5357 49.5943 59.5146 52.2155C57.8588 51.8883 54.4712 51.3096 52.6929 51.6283C52.6338 45.3752 52.3297 39.6127 51.8481 34.8735H54.108H58.1123H60.3679C60.1144 37.3689 59.9075 40.1411 59.7638 43.123C59.7427 43.3872 59.7343 43.6515 59.7216 43.9199Z" fill="#FCFCFC"/>
<path d="M67.0837 53.8859C64.5915 53.8859 62.3317 53.1813 60.6675 52.0406C62.3317 50.8998 64.5915 50.1953 67.0837 50.1953C69.5758 50.1953 71.8356 50.8998 73.4999 52.0406C71.8356 53.1855 69.5758 53.8859 67.0837 53.8859Z" fill="#FCFCFC"/>
<path d="M66.5008 47.5112C64.7478 49.2685 62.6527 50.3715 60.6675 50.7447C61.0223 48.7652 62.1078 46.6766 63.8608 44.9193C65.6137 43.1621 67.7046 42.0591 69.6941 41.69C69.3393 43.6653 68.2537 45.7539 66.5008 47.5112Z" fill="#FCFCFC"/>
<path d="M66.5008 56.5324C64.7478 54.7752 62.6527 53.6764 60.6675 53.3031C61.0223 55.2826 62.1078 57.3712 63.8608 59.1285C65.6137 60.8857 67.7046 61.9846 69.6941 62.3578C69.3393 60.3783 68.2537 58.2897 66.5008 56.5324Z" fill="#FCFCFC"/>
<defs>
<linearGradient id="paint0_linear_646_14473" x1="12.8566" y1="27.3123" x2="12.8566" y2="83.2322" gradientUnits="userSpaceOnUse">
<stop stop-color="#4998FD"/>
<stop offset="1" stop-color="#4B88FD"/>
</linearGradient>
<linearGradient id="paint1_linear_646_14473" x1="105.108" y1="22.6643" x2="30.0265" y2="114.81" gradientUnits="userSpaceOnUse">
<stop stop-color="#4B88FD"/>
<stop offset="1" stop-color="#41CDFD"/>
</linearGradient>
<linearGradient id="paint2_linear_646_14473" x1="100.42" y1="18.8445" x2="25.338" y2="110.99" gradientUnits="userSpaceOnUse">
<stop stop-color="#45B0FD"/>
<stop offset="1" stop-color="#4D7FFD"/>
</linearGradient>
<linearGradient id="paint3_linear_646_14473" x1="97.4616" y1="8.11226" x2="6.72643" y2="21.9534" gradientUnits="userSpaceOnUse">
<stop stop-color="#4C83FD"/>
<stop offset="1" stop-color="#499AFD"/>
</linearGradient>
<linearGradient id="paint4_linear_646_14473" x1="38.7841" y1="78.8409" x2="62.2841" y2="78.8409" gradientUnits="userSpaceOnUse">
<stop stop-color="#240167"/>
<stop offset="1" stop-color="#44B7FD"/>
</linearGradient>
<linearGradient id="paint5_linear_646_14473" x1="15.2842" y1="46.7955" x2="41.9887" y2="74.0342" gradientUnits="userSpaceOnUse">
<stop stop-color="#383EAF"/>
<stop offset="0.53125" stop-color="#25046A"/>
</linearGradient>
<linearGradient id="paint6_linear_646_14473" x1="28.1022" y1="36.1136" x2="79.3749" y2="36.6477" gradientUnits="userSpaceOnUse">
<stop stop-color="#373DAD"/>
<stop offset="1" stop-color="#40D1FE"/>
</linearGradient>
<linearGradient id="paint7_linear_646_14473" x1="89.5227" y1="46.2614" x2="53.7386" y2="98.6023" gradientUnits="userSpaceOnUse">
<stop stop-color="#40D1FE"/>
<stop offset="0.625612" stop-color="#3B7FD1"/>
<stop offset="1" stop-color="#3FDDFE"/>
</linearGradient>
</defs>
</svg>
