<svg width="100" height="100" viewBox="0 0 100 100" fill="none" xmlns="http://www.w3.org/2000/svg">
<g clip-path="url(#clip0_646_14380)">
<path d="M52.2798 5V47.72L82.4864 17.5134C74.7576 9.78108 64.0776 5 52.2798 5Z" fill="#3FDDFE"/>
<path d="M82.4864 17.5134L52.2798 47.72H94.9998C94.9998 35.9222 90.2187 25.2422 82.4864 17.5134Z" fill="url(#paint0_linear_646_14380)"/>
<path d="M48.7198 94C72.3119 94 91.4398 74.8722 91.4398 51.28H48.7198L18.5132 81.4866C26.2419 89.219 36.9219 94 48.7198 94Z" fill="url(#paint1_linear_646_14380)"/>
<path d="M6 51.2801C6 63.0779 10.7811 73.7579 18.5134 81.4867L48.72 51.2801V8.56006C25.1279 8.56006 6 27.6879 6 51.2801Z" fill="url(#paint2_linear_646_14380)"/>
</g>
<defs>
<linearGradient id="paint0_linear_646_14380" x1="95.3814" y1="23.2265" x2="40.3559" y2="85.2168" gradientUnits="userSpaceOnUse">
<stop stop-color="#240065"/>
<stop offset="1" stop-color="#4D7FFD"/>
</linearGradient>
<linearGradient id="paint1_linear_646_14380" x1="98.2362" y1="25.7605" x2="43.211" y2="87.7512" gradientUnits="userSpaceOnUse">
<stop stop-color="#240065"/>
<stop offset="1" stop-color="#4D7FFD"/>
</linearGradient>
<linearGradient id="paint2_linear_646_14380" x1="26.4016" y1="84.3521" x2="28.491" y2="11.5654" gradientUnits="userSpaceOnUse">
<stop stop-color="#4D7FFD"/>
<stop offset="1" stop-color="#3FDDFE"/>
</linearGradient>
<clipPath id="clip0_646_14380">
<rect width="89" height="89" fill="white" transform="translate(6 5)"/>
</clipPath>
</defs>
</svg>
