<svg width="97" height="100" viewBox="0 0 97 100" fill="none" xmlns="http://www.w3.org/2000/svg">
<path d="M84.6782 31.1743H86.422C86.422 31.1743 86.8587 40.3549 94.0868 41.1705V77.2256C94.0868 77.2256 86.7954 78.1153 86.4821 86.1097H38.6199L84.6782 31.1743Z" fill="url(#paint0_linear_646_15471)"/>
<path d="M2.90991 40.2808C2.90991 40.2808 9.70442 40.6515 10.888 31.1743H84.6782L38.6199 86.1097L2.90991 40.2808Z" fill="url(#paint1_linear_646_15471)"/>
<path d="M2.90991 40.2809V77.2999C2.90991 77.2999 10.0146 76.2619 10.888 86.1098H38.623L2.90991 40.2809Z" fill="#3FDDFE"/>
<path d="M30.6982 29.0313H78.8137L75.8832 19.2576C75.8832 19.2576 70.1488 20.5147 67.345 14L30.6982 29.0313Z" fill="#240065"/>
<defs>
<linearGradient id="paint0_linear_646_15471" x1="61.9598" y1="80.7682" x2="101.326" y2="64.5552" gradientUnits="userSpaceOnUse">
<stop stop-color="#240065"/>
<stop offset="1" stop-color="#4C7CFA"/>
</linearGradient>
<linearGradient id="paint1_linear_646_15471" x1="59.3547" y1="50.5" x2="25.2495" y2="36.8517" gradientUnits="userSpaceOnUse">
<stop stop-color="#4B8CFD"/>
<stop offset="1" stop-color="#3FDDFE"/>
</linearGradient>
</defs>
</svg>
