<svg width="20" height="20" viewBox="0 0 20 20" fill="none" xmlns="http://www.w3.org/2000/svg">
<path d="M10 12.625C8.55114 12.625 7.375 11.4489 7.375 10C7.375 8.55114 8.55114 7.375 10 7.375C11.4489 7.375 12.625 8.55114 12.625 10C12.625 11.4489 11.4489 12.625 10 12.625ZM10 7.625C8.69052 7.625 7.625 8.69052 7.625 10C7.625 11.3095 8.69052 12.375 10 12.375C11.3095 12.375 12.375 11.3095 12.375 10C12.375 8.69052 11.3095 7.625 10 7.625Z" fill="#2196F3" stroke="#2196F3"/>
<path d="M16.1577 16.0584C16.316 15.4917 16.2327 14.8917 15.941 14.3834C15.691 13.9584 15.6327 13.5751 15.7744 13.3334C15.916 13.0917 16.2744 12.9501 16.766 12.9501C17.9827 12.9501 18.9743 11.9584 18.9743 10.7417V9.27508C18.9743 8.05841 17.9827 7.06674 16.766 7.06674C16.2744 7.06674 15.916 6.92508 15.7744 6.68341C15.6327 6.44174 15.6993 6.05841 15.941 5.63341C16.2327 5.12508 16.3077 4.53341 16.1577 3.95841L15.6739 4.08462C15.6742 4.08572 15.6744 4.08682 15.6747 4.08792M16.1577 16.0584L15.6747 4.08792M16.1577 16.0584C16.0077 16.6334 15.641 17.1084 15.1243 17.4001L13.6827 18.2251L16.1577 16.0584ZM15.6747 4.08792C15.5504 3.63965 15.2668 3.27495 14.8755 3.05043L14.8749 3.05009L13.4416 2.22509L13.4348 2.2212L13.4349 2.22115C12.728 1.7995 11.7938 2.03784 11.3647 2.76849C11.3645 2.76886 11.3642 2.76923 11.364 2.7696L11.2738 2.92543C11.2738 2.92548 11.2738 2.92554 11.2737 2.9256C10.9921 3.41244 10.5679 3.81258 10.0118 3.81258C9.45716 3.81258 9.03364 3.41434 8.75198 2.92907L8.65394 2.76566L8.65229 2.76291L8.65229 2.7629C8.2232 2.03723 7.28643 1.79919 6.58769 2.21349L6.58105 2.21743L6.58102 2.21738L5.13936 3.04238L5.13682 3.04383L5.13681 3.04382C4.73774 3.26911 4.4572 3.63272 4.34149 4.07629L4.34104 4.07802C4.22426 4.51916 4.28293 4.98264 4.50684 5.37416C4.77939 5.83861 4.95754 6.44147 4.67236 6.92794C4.39068 7.40846 3.78917 7.55841 3.24935 7.55841C2.30882 7.55841 1.54102 8.32622 1.54102 9.26674V10.7334C1.54102 11.6739 2.30882 12.4417 3.24935 12.4417C3.78917 12.4417 4.39068 12.5917 4.67236 13.0722C4.82054 13.325 4.83596 13.6097 4.79494 13.8617C4.75361 14.1155 4.64992 14.3744 4.50899 14.6222L4.50804 14.6239C4.28384 15.0146 4.22395 15.47 4.34064 15.9206C4.46496 16.3688 4.74854 16.7335 5.13985 16.9581L5.14044 16.9584L6.57377 17.7834L6.58164 17.7879L6.5816 17.788C6.92211 17.9923 7.3237 18.049 7.71909 17.9423L7.7244 17.9409L7.72441 17.9409C8.10729 17.8421 8.43243 17.5953 8.64264 17.2395L8.73321 17.0831C8.73324 17.083 8.73327 17.0829 8.7333 17.0829C9.01495 16.596 9.43917 16.1959 9.99518 16.1959C10.5499 16.1959 10.9734 16.5942 11.2551 17.0794L11.3531 17.2428C11.5593 17.5866 11.8825 17.8313 12.2736 17.9407C12.4166 17.9742 12.5492 17.9917 12.6743 17.9917C12.9339 17.9917 13.1918 17.9245 13.4378 17.7892L14.876 16.9661L14.8785 16.9647L14.8786 16.9647C15.2776 16.7394 15.5582 16.3758 15.6739 15.9322L15.6761 15.9238L15.6761 15.9239C15.7969 15.4918 15.735 15.0303 15.5085 14.6343C15.236 14.1699 15.0578 13.567 15.343 13.0806C15.6247 12.6 16.2262 12.4501 16.766 12.4501C17.7065 12.4501 18.4743 11.6823 18.4743 10.7417V9.27508C18.4743 8.33455 17.7065 7.56674 16.766 7.56674C16.2262 7.56674 15.6247 7.4168 15.343 6.93627C15.1948 6.6835 15.1794 6.39881 15.2204 6.14682C15.2618 5.89295 15.3654 5.6341 15.5064 5.38626L15.5073 5.38457C15.7315 4.99385 15.7914 4.53852 15.6747 4.08792ZM11.4744 16.9496L11.475 16.9506L11.5652 17.1065C11.5655 17.107 11.5658 17.1074 11.5661 17.1079C11.7355 17.4035 12.0165 17.6114 12.3447 17.6935C12.6591 17.7721 12.9956 17.7372 13.2859 17.5645L14.7242 16.7332C14.7242 16.7332 14.7243 16.7331 14.7243 16.7331C15.0511 16.5445 15.3052 16.2293 15.4075 15.8456C15.5073 15.4711 15.4587 15.0762 15.2658 14.7419L15.2649 14.7404C14.8519 14.0303 14.8463 13.3841 15.1001 12.9398C15.3513 12.5003 15.9098 12.1834 16.741 12.1834C17.5505 12.1834 18.1994 11.5346 18.1994 10.7251V9.25841C18.1994 8.4601 17.5533 7.80008 16.741 7.80008C15.9098 7.80008 15.3513 7.48322 15.1001 7.04367C14.8463 6.59943 14.8519 5.95319 15.2649 5.24313L15.2658 5.2416C15.4587 4.90726 15.5073 4.51235 15.4075 4.13791C15.3053 3.75489 15.0618 3.45271 14.7447 3.25758L14.7379 3.2534L14.731 3.24944L13.2939 2.42705C12.6904 2.06653 11.9128 2.28296 11.5606 2.87904L11.5605 2.87903L11.5583 2.88289L11.4666 3.04122L11.466 3.04226C11.0516 3.7621 10.5029 4.08341 9.99102 4.08341C9.48005 4.08341 8.93252 3.76331 8.51835 3.04634L8.42912 2.88412L8.42502 2.87665L8.42066 2.86933C8.0731 2.28543 7.30372 2.07935 6.70705 2.42576C6.70682 2.42589 6.7066 2.42602 6.70637 2.42616L5.26615 3.25865C5.26607 3.2587 5.26599 3.25874 5.26591 3.25879C5.26587 3.25881 5.26583 3.25883 5.26579 3.25886C4.93908 3.44747 4.68518 3.76267 4.5829 4.14625C4.48305 4.52069 4.5317 4.91559 4.72459 5.24994L4.72459 5.24994L4.72547 5.25146C5.13847 5.96153 5.14408 6.60777 4.89023 7.05201C4.63906 7.49156 4.08055 7.80841 3.24935 7.80841C2.43987 7.80841 1.79102 8.45727 1.79102 9.26674V10.7334C1.79102 11.5317 2.43705 12.1917 3.24935 12.1917C4.08055 12.1917 4.63906 12.5086 4.89023 12.9481C5.14408 13.3924 5.13847 14.0386 4.72547 14.7487L4.72459 14.7502C4.5317 15.0846 4.48305 15.4795 4.5829 15.8539C4.68504 16.2369 4.92855 16.5391 5.24563 16.7342L5.25242 16.7384L5.25934 16.7424L6.6945 17.5637C6.99059 17.7437 7.33632 17.7819 7.64816 17.7012C7.98892 17.6152 8.25702 17.3921 8.42448 17.1216L8.42837 17.1153L8.43206 17.1089L8.52322 16.9515C8.5233 16.9513 8.52338 16.9512 8.52346 16.9511C8.93969 16.2357 9.48959 15.9084 9.99935 15.9084C10.5113 15.9084 11.0599 16.2297 11.4744 16.9496Z" fill="#2196F3" stroke="#2196F3"/>
</svg>
