<svg width="20" height="20" viewBox="0 0 20 20" fill="none" xmlns="http://www.w3.org/2000/svg">
<rect width="20" height="20" rx="4" fill="#52C41A"/>
<path d="M5.88991 16V4.36364H10.3445C11.1854 4.36364 11.8842 4.49621 12.4411 4.76136C13.0017 5.02273 13.4202 5.38068 13.6967 5.83523C13.977 6.28977 14.1172 6.80492 14.1172 7.38068C14.1172 7.85417 14.0263 8.25947 13.8445 8.59659C13.6626 8.92992 13.4183 9.20076 13.1115 9.40909C12.8047 9.61742 12.4619 9.76705 12.0831 9.85795V9.97159C12.496 9.99432 12.8918 10.1212 13.2706 10.3523C13.6532 10.5795 13.9657 10.9015 14.2081 11.3182C14.4505 11.7348 14.5717 12.2386 14.5717 12.8295C14.5717 13.4318 14.4259 13.9735 14.1342 14.4545C13.8426 14.9318 13.4032 15.3087 12.8161 15.5852C12.2289 15.8617 11.4903 16 10.6001 16H5.88991ZM7.99787 14.2386H10.2649C11.0301 14.2386 11.5812 14.0928 11.9183 13.8011C12.2592 13.5057 12.4297 13.1269 12.4297 12.6648C12.4297 12.3201 12.3445 12.0095 12.174 11.733C12.0036 11.4527 11.7611 11.233 11.4467 11.0739C11.1323 10.911 10.7573 10.8295 10.3217 10.8295H7.99787V14.2386ZM7.99787 9.3125H10.0831C10.4467 9.3125 10.7744 9.24621 11.0661 9.11364C11.3577 8.97727 11.5869 8.78598 11.7536 8.53977C11.924 8.28977 12.0092 7.99432 12.0092 7.65341C12.0092 7.20265 11.8501 6.83144 11.532 6.53977C11.2176 6.24811 10.7498 6.10227 10.1286 6.10227H7.99787V9.3125Z" fill="white"/>
</svg>
