<svg width="73" height="66" viewBox="0 0 73 66" fill="none" xmlns="http://www.w3.org/2000/svg">
<g clip-path="url(#clip0_4261_36821)">
<path d="M61.7143 6.84375H2.28571C1.02143 6.84375 0 7.86518 0 9.12946V54.8438C0 56.108 1.02143 57.1295 2.28571 57.1295H61.7143C62.9786 57.1295 64 56.108 64 54.8438V9.12946C64 7.86518 62.9786 6.84375 61.7143 6.84375ZM58.8571 14.758V51.9866H5.14286V14.758L3.17143 13.2223L5.97857 9.61518L9.03572 11.9938H54.9714L58.0286 9.61518L60.8357 13.2223L58.8571 14.758ZM54.9714 11.9866L32 29.8438L9.02857 11.9866L5.97143 9.60804L3.16429 13.2152L5.13571 14.7509L29.5357 33.7223C30.2374 34.2675 31.1007 34.5634 31.9893 34.5634C32.8779 34.5634 33.7411 34.2675 34.4429 33.7223L58.8571 14.758L60.8286 13.2223L58.0214 9.61518L54.9714 11.9866Z" fill="#1677FF"/>
</g>
<rect x="41" y="34" width="32" height="32" rx="16" fill="white"/>
<path d="M57 39.5C51.2016 39.5 46.5 44.2016 46.5 50C46.5 55.7984 51.2016 60.5 57 60.5C62.7984 60.5 67.5 55.7984 67.5 50C67.5 44.2016 62.7984 39.5 57 39.5ZM61.5352 46.5711L56.5992 53.4148C56.5302 53.5111 56.4393 53.5896 56.3339 53.6437C56.2286 53.6978 56.1118 53.7261 55.9934 53.7261C55.8749 53.7261 55.7582 53.6978 55.6528 53.6437C55.5474 53.5896 55.4565 53.5111 55.3875 53.4148L52.4648 49.3648C52.3758 49.2406 52.4648 49.0672 52.6172 49.0672H53.7164C53.9555 49.0672 54.1828 49.182 54.3234 49.3789L55.9922 51.6945L59.6766 46.5852C59.8172 46.3906 60.0422 46.2734 60.2836 46.2734H61.3828C61.5352 46.2734 61.6242 46.4469 61.5352 46.5711Z" fill="#1677FF"/>
<defs>
<clipPath id="clip0_4261_36821">
<rect width="64" height="64" fill="white"/>
</clipPath>
</defs>
</svg>
