<svg width="288" height="40" viewBox="0 0 288 40" fill="none" xmlns="http://www.w3.org/2000/svg">
<g clip-path="url(#clip0_4252_39610)">
<path d="M67.9688 14.7789L74.6847 16.5054L93.6483 0L67.9688 14.7789Z" fill="white"/>
<path d="M77.9551 17.3459L85.5638 19.302L93.648 0L77.9551 17.3459Z" fill="white"/>
<path d="M93.6491 0L74.6855 16.5054L77.9561 22L80.7614 18.0672L77.9561 17.3459L93.6491 0Z" fill="white"/>
<path d="M77.9551 17.3457V21.9998L80.7603 18.067L77.9551 17.3457Z" fill="white"/>
<path d="M19.793 32.5359V19.7395C19.793 19.2522 20.099 18.9473 20.5582 18.9473H23.6192C24.0784 18.9473 24.3845 19.2519 24.3845 19.7395V32.5359C24.3845 33.0232 24.0784 33.3281 23.6192 33.3281H20.5582C20.099 33.3281 19.793 33.0235 19.793 32.5359Z" fill="white"/>
<path d="M22.0887 17.3359C23.3566 17.3359 24.3845 16.3128 24.3845 15.0508C24.3845 13.7887 23.3566 12.7656 22.0887 12.7656C20.8208 12.7656 19.793 13.7887 19.793 15.0508C19.793 16.3128 20.8208 17.3359 22.0887 17.3359Z" fill="white"/>
<path d="M0 32.4876V12.808C0 12.3232 0.306043 12 0.765254 12H9.91732C14.6617 12 17.0189 14.7146 17.0189 17.9136C17.0189 19.9171 16.0393 21.6622 13.8661 22.5345C16.0393 23.2776 17.7841 25.2165 17.7841 27.3817C17.7841 30.613 15.458 33.3276 10.6826 33.3276H0.765254C0.306043 33.3276 0 33.0044 0 32.4876ZM12.3662 18.4306C12.3662 17.4612 11.7846 16.524 10.1012 16.524H4.7444V20.4667L10.0091 20.4987C11.5399 20.4987 12.3662 19.4324 12.3662 18.4306ZM10.3765 28.8036C12.5194 28.8036 13.0397 27.5755 13.0397 26.6709C13.0397 25.6369 12.2745 24.732 10.9889 24.732H4.7444V28.8036H10.3765Z" fill="white"/>
<path d="M26.3945 32.505V31.1646C26.3945 30.8294 26.4252 30.6162 26.4863 30.4637C27.374 28.1789 29.8534 25.0101 31.8431 23.0296H27.2212C26.7316 23.0296 26.3948 22.6947 26.3948 22.2071V19.7698C26.3948 19.2821 26.7316 18.9473 27.2212 18.9473H37.2613C37.7509 18.9473 38.0876 19.2519 38.0876 19.7698L38.0569 21.2321C38.0569 21.5975 37.9958 21.8722 37.7816 22.0855C35.6387 24.2792 32.6697 27.6915 31.9966 29.4588H37.4144C37.904 29.4588 38.2408 29.7936 38.2408 30.2813V32.5053C38.2408 32.9927 37.904 33.3278 37.4144 33.3278H27.1604C26.6699 33.3278 26.3945 32.9924 26.3945 32.505Z" fill="white"/>
<path d="M40.25 32.5365V20.458C40.25 16.4417 41.7171 12 47.3413 12C47.7082 12 48.044 12.3346 48.1054 12.6386L48.5026 14.89C48.5944 15.4073 48.4109 15.8027 47.861 15.8941C45.5381 16.2592 44.5904 17.4152 44.5904 19.7579H48.2583C48.7169 19.7579 49.053 20.0623 49.053 20.5185V22.9828C49.053 23.4393 48.7166 23.7434 48.2583 23.7434H44.7433V32.5362C44.7433 33.023 44.4376 33.327 43.9792 33.327H41.0144C40.5558 33.3276 40.25 33.0233 40.25 32.5365Z" fill="white"/>
<path d="M51.0625 32.5356V12.7617C51.0625 12.3046 51.3685 12 51.8278 12H54.7967C55.2559 12 55.5619 12.3046 55.5619 12.7617V32.5354C55.5619 33.0227 55.2559 33.3273 54.7967 33.3273H51.8278C51.3685 33.3276 51.0625 33.0227 51.0625 32.5356Z" fill="white"/>
<path d="M60.2335 38.8425C59.8354 38.6901 59.7436 38.2944 59.9275 37.8981L60.7842 35.8873C60.9374 35.4302 61.3963 35.2781 61.8555 35.4911C62.9572 35.9787 63.6614 36.1311 64.4266 36.1311C66.9977 36.1311 68.1304 34.4858 67.7937 32.0177C67.0284 32.9318 65.6815 33.6327 63.9677 33.6327C60.7842 33.6327 57.5703 31.5303 57.5703 26.3203V19.7392C57.5703 19.2519 57.8764 18.9473 58.3356 18.9473H61.3659C61.8248 18.9473 62.1308 19.2519 62.1308 19.7392V26.4724C62.1308 28.5748 63.0493 29.7634 64.8247 29.7634C66.1407 29.7634 67.3652 29.1233 67.8548 27.7221V19.7392C67.8548 19.2519 68.1608 18.9473 68.6507 18.9473H71.5586C72.0178 18.9473 72.3238 19.2519 72.3238 19.7392V32.0177C72.3238 37.9895 69.4464 40.0005 65.0694 40.0005C63.0493 40.0005 61.6415 39.6348 60.2335 38.8425Z" fill="white"/>
</g>
<path d="M93.6714 30.9001C92.7657 30.9001 91.9214 30.755 91.1387 30.4648C90.3671 30.1634 89.6962 29.7392 89.1259 29.1922C88.5557 28.6452 88.1084 28.0034 87.7841 27.2666C87.471 26.5299 87.3145 25.7206 87.3145 24.8387C87.3145 23.9569 87.471 23.1476 87.7841 22.4108C88.1084 21.6741 88.5557 21.0322 89.1259 20.4853C89.7074 19.9383 90.3839 19.5197 91.1555 19.2294C91.927 18.928 92.7713 18.7773 93.6882 18.7773C94.7057 18.7773 95.6227 18.9559 96.439 19.3132C97.2664 19.6592 97.9597 20.1727 98.5188 20.8536L96.7744 22.4611C96.3719 22.0034 95.9246 21.6629 95.4326 21.4397C94.9406 21.2053 94.4038 21.088 93.8224 21.088C93.2745 21.088 92.7713 21.1773 92.3128 21.3559C91.8543 21.5346 91.4574 21.7913 91.1219 22.1262C90.7865 22.4611 90.5237 22.8573 90.3336 23.315C90.1547 23.7727 90.0652 24.2806 90.0652 24.8387C90.0652 25.3969 90.1547 25.9048 90.3336 26.3625C90.5237 26.8201 90.7865 27.2164 91.1219 27.5513C91.4574 27.8862 91.8543 28.1429 92.3128 28.3215C92.7713 28.5001 93.2745 28.5894 93.8224 28.5894C94.4038 28.5894 94.9406 28.4778 95.4326 28.2546C95.9246 28.0201 96.3719 27.6685 96.7744 27.1997L98.5188 28.8071C97.9597 29.488 97.2664 30.0071 96.439 30.3643C95.6227 30.7215 94.7002 30.9001 93.6714 30.9001Z" fill="white"/>
<path d="M105.505 30.9001C103.839 30.9001 102.536 30.4369 101.597 29.5104C100.657 28.5839 100.188 27.2611 100.188 25.542V18.9783H102.905V25.4415C102.905 26.5578 103.134 27.3615 103.593 27.8527C104.051 28.3439 104.694 28.5894 105.521 28.5894C106.349 28.5894 106.992 28.3439 107.45 27.8527C107.909 27.3615 108.138 26.5578 108.138 25.4415V18.9783H110.822V25.542C110.822 27.2611 110.352 28.5839 109.413 29.5104C108.473 30.4369 107.171 30.9001 105.505 30.9001Z" fill="white"/>
<path d="M117.365 30.9001C116.425 30.9001 115.525 30.7773 114.664 30.5318C113.803 30.275 113.11 29.9457 112.584 29.5439L113.507 27.5011C114.01 27.8583 114.603 28.1541 115.285 28.3885C115.978 28.6118 116.677 28.7234 117.381 28.7234C117.918 28.7234 118.349 28.6732 118.673 28.5727C119.008 28.4611 119.254 28.3104 119.411 28.1206C119.567 27.9308 119.646 27.7132 119.646 27.4676C119.646 27.155 119.523 26.9094 119.277 26.7308C119.031 26.5411 118.706 26.3904 118.304 26.2787C117.901 26.1559 117.454 26.0443 116.962 25.9439C116.481 25.8322 115.995 25.6983 115.503 25.542C115.022 25.3857 114.58 25.1848 114.178 24.9392C113.775 24.6936 113.445 24.3699 113.188 23.968C112.942 23.5662 112.819 23.0527 112.819 22.4276C112.819 21.7578 112.998 21.1494 113.356 20.6025C113.725 20.0443 114.273 19.6034 115 19.2797C115.738 18.9448 116.66 18.7773 117.767 18.7773C118.505 18.7773 119.232 18.8666 119.948 19.0453C120.663 19.2127 121.295 19.4694 121.843 19.8155L121.004 21.875C120.456 21.5625 119.908 21.3336 119.361 21.1885C118.813 21.0322 118.276 20.9541 117.75 20.9541C117.225 20.9541 116.794 21.0155 116.459 21.1383C116.123 21.2611 115.883 21.4229 115.738 21.6239C115.592 21.8136 115.52 22.0369 115.52 22.2936C115.52 22.595 115.643 22.8406 115.889 23.0304C116.135 23.209 116.459 23.3541 116.861 23.4657C117.264 23.5773 117.706 23.689 118.186 23.8006C118.678 23.9122 119.165 24.0406 119.646 24.1857C120.138 24.3308 120.585 24.5262 120.988 24.7718C121.39 25.0173 121.714 25.3411 121.96 25.7429C122.218 26.1448 122.346 26.6527 122.346 27.2666C122.346 27.9253 122.162 28.528 121.793 29.075C121.424 29.622 120.87 30.0629 120.132 30.3978C119.405 30.7327 118.483 30.9001 117.365 30.9001Z" fill="white"/>
<path d="M126.471 30.6992V21.1885H122.714V18.9783H132.945V21.1885H129.188V30.6992H126.471Z" fill="white"/>
<path d="M139.947 30.9001C139.018 30.9001 138.157 30.7494 137.363 30.448C136.581 30.1466 135.899 29.7225 135.317 29.1755C134.747 28.6285 134.3 27.9866 133.975 27.2499C133.662 26.5132 133.506 25.7094 133.506 24.8387C133.506 23.968 133.662 23.1643 133.975 22.4276C134.3 21.6908 134.752 21.049 135.334 20.502C135.915 19.955 136.598 19.5308 137.38 19.2294C138.163 18.928 139.013 18.7773 139.93 18.7773C140.858 18.7773 141.708 18.928 142.479 19.2294C143.262 19.5308 143.938 19.955 144.509 20.502C145.09 21.049 145.543 21.6908 145.867 22.4276C146.192 23.1532 146.354 23.9569 146.354 24.8387C146.354 25.7094 146.192 26.5187 145.867 27.2666C145.543 28.0034 145.09 28.6452 144.509 29.1922C143.938 29.728 143.262 30.1466 142.479 30.448C141.708 30.7494 140.863 30.9001 139.947 30.9001ZM139.93 28.5894C140.455 28.5894 140.936 28.5001 141.372 28.3215C141.819 28.1429 142.211 27.8862 142.546 27.5513C142.882 27.2164 143.139 26.8201 143.318 26.3625C143.508 25.9048 143.603 25.3969 143.603 24.8387C143.603 24.2806 143.508 23.7727 143.318 23.315C143.139 22.8573 142.882 22.4611 142.546 22.1262C142.222 21.7913 141.836 21.5346 141.389 21.3559C140.942 21.1773 140.455 21.088 139.93 21.088C139.404 21.088 138.918 21.1773 138.47 21.3559C138.034 21.5346 137.649 21.7913 137.313 22.1262C136.978 22.4611 136.715 22.8573 136.525 23.315C136.346 23.7727 136.256 24.2806 136.256 24.8387C136.256 25.3857 136.346 25.8936 136.525 26.3625C136.715 26.8201 136.972 27.2164 137.296 27.5513C137.632 27.8862 138.023 28.1429 138.47 28.3215C138.918 28.5001 139.404 28.5894 139.93 28.5894Z" fill="white"/>
<path d="M148.396 30.6992V18.9783H150.643L155.642 27.2499H154.451L159.365 18.9783H161.596L161.63 30.6992H159.08L159.064 22.8797H159.533L155.608 29.4601H154.384L150.375 22.8797H150.945V30.6992H148.396Z" fill="white"/>
<path d="M166.915 23.7001H172.567V25.8099H166.915V23.7001ZM167.116 28.5225H173.506V30.6992H164.415V18.9783H173.288V21.155H167.116V28.5225Z" fill="white"/>
<path d="M175.668 30.6992V18.9783H180.751C181.802 18.9783 182.707 19.1513 183.468 19.4973C184.228 19.8322 184.815 20.3178 185.229 20.9541C185.643 21.5904 185.85 22.3494 185.85 23.2313C185.85 24.102 185.643 24.8555 185.229 25.4918C184.815 26.1169 184.228 26.5969 183.468 26.9318C182.707 27.2666 181.802 27.4341 180.751 27.4341H177.178L178.386 26.2452V30.6992H175.668ZM183.132 30.6992L180.197 26.4462H183.099L186.068 30.6992H183.132ZM178.386 26.5466L177.178 25.2741H180.6C181.438 25.2741 182.064 25.0955 182.478 24.7383C182.892 24.3699 183.099 23.8676 183.099 23.2313C183.099 22.5839 182.892 22.0815 182.478 21.7243C182.064 21.3671 181.438 21.1885 180.6 21.1885H177.178L178.386 19.8992V26.5466Z" fill="white"/>
<path d="M192.753 30.6992V18.9783H197.835C198.886 18.9783 199.792 19.1513 200.552 19.4973C201.312 19.8322 201.899 20.3178 202.313 20.9541C202.727 21.5904 202.934 22.3494 202.934 23.2313C202.934 24.102 202.727 24.8555 202.313 25.4918C201.899 26.128 201.312 26.6192 200.552 26.9653C199.792 27.3001 198.886 27.4676 197.835 27.4676H194.262L195.47 26.2452V30.6992H192.753ZM195.47 26.5466L194.262 25.2573H197.684C198.522 25.2573 199.149 25.0787 199.562 24.7215C199.976 24.3643 200.183 23.8676 200.183 23.2313C200.183 22.5839 199.976 22.0815 199.562 21.7243C199.149 21.3671 198.522 21.1885 197.684 21.1885H194.262L195.47 19.8992V26.5466Z" fill="white"/>
<path d="M204.874 30.6992V18.9783H207.591V28.489H213.478V30.6992H204.874Z" fill="white"/>
<path d="M213.519 30.6992L218.752 18.9783H221.436L226.686 30.6992H223.834L219.54 20.3513H220.614L216.303 30.6992H213.519ZM216.135 28.1876L216.857 26.128H222.895L223.633 28.1876H216.135Z" fill="white"/>
<path d="M229.746 30.6992V21.1885H225.989V18.9783H236.221V21.1885H232.463V30.6992H229.746Z" fill="white"/>
<path d="M240.199 24.2527H245.834V26.4294H240.199V24.2527ZM240.4 30.6992H237.683V18.9783H246.555V21.155H240.4V30.6992Z" fill="white"/>
<path d="M253.983 30.9001C253.055 30.9001 252.194 30.7494 251.4 30.448C250.617 30.1466 249.935 29.7225 249.354 29.1755C248.784 28.6285 248.336 27.9866 248.012 27.2499C247.699 26.5132 247.542 25.7094 247.542 24.8387C247.542 23.968 247.699 23.1643 248.012 22.4276C248.336 21.6908 248.789 21.049 249.371 20.502C249.952 19.955 250.634 19.5308 251.417 19.2294C252.2 18.928 253.049 18.7773 253.966 18.7773C254.894 18.7773 255.744 18.928 256.516 19.2294C257.299 19.5308 257.975 19.955 258.545 20.502C259.127 21.049 259.58 21.6908 259.904 22.4276C260.228 23.1532 260.39 23.9569 260.39 24.8387C260.39 25.7094 260.228 26.5187 259.904 27.2666C259.58 28.0034 259.127 28.6452 258.545 29.1922C257.975 29.728 257.299 30.1466 256.516 30.448C255.744 30.7494 254.9 30.9001 253.983 30.9001ZM253.966 28.5894C254.492 28.5894 254.973 28.5001 255.409 28.3215C255.856 28.1429 256.247 27.8862 256.583 27.5513C256.918 27.2164 257.176 26.8201 257.355 26.3625C257.545 25.9048 257.64 25.3969 257.64 24.8387C257.64 24.2806 257.545 23.7727 257.355 23.315C257.176 22.8573 256.918 22.4611 256.583 22.1262C256.259 21.7913 255.873 21.5346 255.426 21.3559C254.978 21.1773 254.492 21.088 253.966 21.088C253.441 21.088 252.954 21.1773 252.507 21.3559C252.071 21.5346 251.685 21.7913 251.35 22.1262C251.014 22.4611 250.752 22.8573 250.561 23.315C250.383 23.7727 250.293 24.2806 250.293 24.8387C250.293 25.3857 250.383 25.8936 250.561 26.3625C250.752 26.8201 251.009 27.2164 251.333 27.5513C251.668 27.8862 252.06 28.1429 252.507 28.3215C252.954 28.5001 253.441 28.5894 253.966 28.5894Z" fill="white"/>
<path d="M262.433 30.6992V18.9783H267.515C268.566 18.9783 269.472 19.1513 270.232 19.4973C270.992 19.8322 271.579 20.3178 271.993 20.9541C272.407 21.5904 272.614 22.3494 272.614 23.2313C272.614 24.102 272.407 24.8555 271.993 25.4918C271.579 26.1169 270.992 26.5969 270.232 26.9318C269.472 27.2666 268.566 27.4341 267.515 27.4341H263.942L265.15 26.2452V30.6992H262.433ZM269.897 30.6992L266.961 26.4462H269.863L272.832 30.6992H269.897ZM265.15 26.5466L263.942 25.2741H267.364C268.202 25.2741 268.829 25.0955 269.242 24.7383C269.656 24.3699 269.863 23.8676 269.863 23.2313C269.863 22.5839 269.656 22.0815 269.242 21.7243C268.829 21.3671 268.202 21.1885 267.364 21.1885H263.942L265.15 19.8992V26.5466Z" fill="white"/>
<path d="M274.767 30.6992V18.9783H277.014L282.013 27.2499H280.822L285.736 18.9783H287.967L288 30.6992H285.451L285.434 22.8797H285.904L281.979 29.4601H280.755L276.746 22.8797H277.316V30.6992H274.767Z" fill="white"/>
<defs>
<clipPath id="clip0_4252_39610">
<rect width="93.6492" height="40" fill="white"/>
</clipPath>
</defs>
</svg>
