<svg width="24" height="25" viewBox="0 0 24 25" fill="none" xmlns="http://www.w3.org/2000/svg">
<path fill-rule="evenodd" clip-rule="evenodd" d="M1.5 12.1309C1.5 6.33187 6.20101 1.63086 12 1.63086C17.799 1.63086 22.5 6.33187 22.5 12.1309C22.5 17.9298 17.799 22.6309 12 22.6309C6.20101 22.6309 1.5 17.9298 1.5 12.1309Z" fill="#FF9900"/>
<path d="M9.23256 18.8773C9.23256 18.8773 3.98892 20.032 3.49023 10.7637C3.49023 10.7637 11.8852 10.7013 11.5419 16.5994C11.5419 16.5994 11.417 12.3552 5.36307 12.5737C5.36307 12.5737 4.67642 18.5653 9.23256 18.8773Z" fill="white"/>
<path d="M14.7666 18.8773C14.7666 18.8773 20.0102 20.032 20.5091 10.7637C20.5091 10.7637 12.1142 10.7013 12.4575 16.5994C12.4575 16.5994 12.5822 12.3552 18.6363 12.5737C18.6363 12.5737 19.3227 18.5653 14.7666 18.8773Z" fill="white"/>
<path d="M10.2144 17.7238C10.2144 17.7238 4.01996 14.9679 11.8838 5.33789C11.8838 5.33789 19.467 13.8543 13.6157 17.7238C13.6157 17.7238 17.6962 13.2153 11.8644 8.90808C11.8644 8.90808 6.29792 13.2926 10.2144 17.7238Z" fill="white"/>
<path d="M11.8637 18.9246C12.2727 18.9246 12.6043 18.593 12.6043 18.184C12.6043 17.7749 12.2727 17.4434 11.8637 17.4434C11.4546 17.4434 11.123 17.7749 11.123 18.184C11.123 18.593 11.4546 18.9246 11.8637 18.9246Z" fill="white"/>
</svg>
