<svg width="21" height="20" viewBox="0 0 21 20" fill="none" xmlns="http://www.w3.org/2000/svg">
<circle cx="10.6289" cy="10" r="9.5" stroke="#5E6D7B"/>
<path d="M10.6289 10.625C12.1264 10.625 13.4883 11.0588 14.4902 11.67C14.9902 11.975 15.4177 12.335 15.7264 12.7262C16.0302 13.1106 16.2539 13.5706 16.2539 14.0625C16.2539 14.5906 15.997 15.0069 15.627 15.3038C15.277 15.585 14.8152 15.7712 14.3245 15.9012C13.3383 16.1619 12.022 16.25 10.6289 16.25C9.23578 16.25 7.91953 16.1625 6.93328 15.9012C6.44266 15.7712 5.98078 15.585 5.63078 15.3038C5.26016 15.0063 5.00391 14.5906 5.00391 14.0625C5.00391 13.5706 5.22766 13.1106 5.53141 12.7256C5.84016 12.335 6.26703 11.9756 6.76766 11.6694C7.76953 11.0594 9.13203 10.625 10.6289 10.625ZM10.6289 3.75C11.4577 3.75 12.2526 4.07924 12.8386 4.66529C13.4247 5.25134 13.7539 6.0462 13.7539 6.875C13.7539 7.7038 13.4247 8.49866 12.8386 9.08471C12.2526 9.67076 11.4577 10 10.6289 10C9.8001 10 9.00525 9.67076 8.4192 9.08471C7.83315 8.49866 7.50391 7.7038 7.50391 6.875C7.50391 6.0462 7.83315 5.25134 8.4192 4.66529C9.00525 4.07924 9.8001 3.75 10.6289 3.75Z" fill="#5E6D7B"/>
</svg>
