<svg width="171" height="65" viewBox="0 0 171 65" fill="none" xmlns="http://www.w3.org/2000/svg">
<rect x="0.626953" y="0.304688" width="170" height="64" rx="16" fill="#1161A7"/>
<path d="M41.6245 15.6631H38.188V26.3047H36.7935V15.6631H33.3652V14.4014H41.6245V15.6631ZM52.4321 26.3047H51.0376V20.876H44.8784V26.3047H43.4839V14.4014H44.8784V19.6226H51.0376V14.4014H52.4321V26.3047ZM54.1504 26.3047L58.7158 14.4014H60.1602L64.7422 26.3047H63.1982L61.9946 23.1172H56.8398L55.7026 26.3047H54.1504ZM57.3047 21.8638H61.5381L59.6123 16.6509C59.5791 16.5623 59.5487 16.46 59.521 16.3438C59.4989 16.2275 59.4712 16.0837 59.438 15.9121H59.3965C59.3688 16.0726 59.3384 16.2109 59.3052 16.3271C59.2775 16.4434 59.2443 16.5513 59.2056 16.6509L57.3047 21.8638ZM76.0562 26.3047H74.3462L68.2202 16.8169C68.1427 16.6896 68.0736 16.5734 68.0127 16.4683C67.9574 16.3631 67.902 16.2497 67.8467 16.1279H67.7969C67.819 16.2497 67.8328 16.4434 67.8384 16.709C67.8494 16.9691 67.855 17.3011 67.855 17.7051V26.3047H66.4604V14.4014H68.27L74.23 23.7397C74.3517 23.9279 74.4486 24.0828 74.5205 24.2046C74.598 24.3263 74.6589 24.4315 74.7031 24.52H74.7363C74.7142 24.3485 74.6948 24.1188 74.6782 23.8311C74.6672 23.5378 74.6616 23.1891 74.6616 22.7852V14.4014H76.0562V26.3047ZM88.0923 26.3047H86.6978V20.876H80.5386V26.3047H79.144V14.4014H80.5386V19.6226H86.6978V14.4014H88.0923V26.3047ZM102.668 15.6631H99.2319V26.3047H97.8374V15.6631H94.4092V14.4014H102.668V15.6631ZM108.529 26.5039C106.847 26.5039 105.493 25.9478 104.47 24.8354C103.446 23.7231 102.934 22.276 102.934 20.4941C102.934 18.585 103.457 17.0604 104.503 15.9204C105.549 14.7749 106.957 14.2021 108.728 14.2021C110.372 14.2021 111.694 14.7555 112.696 15.8623C113.703 16.9635 114.207 18.4106 114.207 20.2036C114.207 22.1294 113.689 23.6623 112.654 24.8022C111.625 25.9367 110.25 26.5039 108.529 26.5039ZM108.529 25.2422C109.824 25.2422 110.85 24.8105 111.608 23.9473C112.367 23.084 112.746 21.8997 112.746 20.3945C112.746 18.8451 112.378 17.6387 111.642 16.7754C110.906 15.9066 109.901 15.4722 108.628 15.4722C107.372 15.4722 106.351 15.9232 105.565 16.8252C104.785 17.7217 104.395 18.9032 104.395 20.3696C104.395 21.8306 104.777 23.0093 105.541 23.9058C106.304 24.7967 107.3 25.2422 108.529 25.2422ZM114.713 26.3047L119.278 14.4014H120.723L125.305 26.3047H123.761L122.557 23.1172H117.402L116.265 26.3047H114.713ZM117.867 21.8638H122.101L120.175 16.6509C120.142 16.5623 120.111 16.46 120.083 16.3438C120.061 16.2275 120.034 16.0837 120 15.9121H119.959C119.931 16.0726 119.901 16.2109 119.868 16.3271C119.84 16.4434 119.807 16.5513 119.768 16.6509L117.867 21.8638ZM120.025 13.3057H118.971L120.822 10.583H122.2L120.025 13.3057ZM136.619 26.3047H134.909L128.783 16.8169C128.705 16.6896 128.636 16.5734 128.575 16.4683C128.52 16.3631 128.465 16.2497 128.409 16.1279H128.359C128.382 16.2497 128.395 16.4434 128.401 16.709C128.412 16.9691 128.417 17.3011 128.417 17.7051V26.3047H127.023V14.4014H128.833L134.792 23.7397C134.914 23.9279 135.011 24.0828 135.083 24.2046C135.16 24.3263 135.221 24.4315 135.266 24.52H135.299C135.277 24.3485 135.257 24.1188 135.241 23.8311C135.23 23.5378 135.224 23.1891 135.224 22.7852V14.4014H136.619V26.3047ZM56.541 52.3047H53.8516V47.457H48.9209V52.3047H46.2397V40.4014H48.9209V45.1494H53.8516V40.4014H56.541V52.3047ZM64.3022 52.5122C62.5978 52.5122 61.2088 51.9588 60.1353 50.8521C59.0617 49.7397 58.5249 48.2926 58.5249 46.5107C58.5249 44.6292 59.07 43.1074 60.1602 41.9453C61.2503 40.7832 62.6947 40.2021 64.4932 40.2021C66.1921 40.2021 67.5645 40.7583 68.6104 41.8706C69.6618 42.9829 70.1875 44.4494 70.1875 46.27C70.1875 48.1405 69.6424 49.6484 68.5522 50.7939C67.4676 51.9395 66.0509 52.5122 64.3022 52.5122ZM64.3521 50.1963C65.2762 50.1963 66.0094 49.8643 66.5518 49.2002C67.0941 48.5306 67.3652 47.6037 67.3652 46.4194C67.3652 45.1854 67.1024 44.2253 66.5767 43.5391C66.0509 42.8529 65.3315 42.5098 64.4185 42.5098C63.4777 42.5098 62.7306 42.8639 62.1772 43.5723C61.6239 44.2751 61.3472 45.2075 61.3472 46.3696C61.3472 47.5483 61.6239 48.4808 62.1772 49.167C62.7306 49.8532 63.4556 50.1963 64.3521 50.1963ZM64.4766 39.2974H62.584L64.7422 36.6162H67.0747L64.4766 39.2974ZM70.6274 52.3047L74.9604 40.4014H78.1396L82.373 52.3047H79.4512L78.646 49.8228H74.3296L73.5327 52.3047H70.6274ZM74.9106 47.731H78.0234L76.7119 43.5972C76.6621 43.4312 76.6206 43.29 76.5874 43.1738C76.5597 43.0576 76.5348 42.9082 76.5127 42.7256H76.4463C76.4186 42.8916 76.3882 43.0355 76.355 43.1572C76.3273 43.279 76.2886 43.4146 76.2388 43.564L74.9106 47.731ZM88.5571 52.3047V47.4404H87.1958V45.2324H88.5571V40.4014H92.7739C94.8879 40.4014 96.4733 40.8856 97.5303 41.854C98.5872 42.8169 99.1157 44.2668 99.1157 46.2036C99.1157 48.0575 98.5374 49.5378 97.3809 50.6445C96.2298 51.7513 94.6942 52.3047 92.7739 52.3047H88.5571ZM91.2383 42.5845V45.2324H93.4878V47.4404H91.2383V50.1299H92.5664C93.7285 50.1299 94.6388 49.7812 95.2974 49.084C95.9614 48.3867 96.2935 47.4377 96.2935 46.2368C96.2935 45.1024 95.9642 44.2114 95.3057 43.564C94.6527 42.911 93.734 42.5845 92.5498 42.5845H91.2383ZM106.122 52.5122C104.417 52.5122 103.028 51.9588 101.955 50.8521C100.881 49.7397 100.344 48.2926 100.344 46.5107C100.344 44.6292 100.889 43.1074 101.979 41.9453C103.07 40.7832 104.514 40.2021 106.312 40.2021C106.86 40.2021 107.378 40.263 107.865 40.3848C108.352 40.501 108.806 40.6808 109.226 40.9243C109.387 40.9631 109.53 40.9935 109.658 41.0156C109.785 41.0322 109.893 41.0405 109.981 41.0405C110.513 41.0405 110.908 40.9492 111.168 40.7666C111.434 40.584 111.567 40.3128 111.567 39.9531C111.567 39.8148 111.553 39.6681 111.525 39.5132C111.503 39.3582 111.467 39.1978 111.417 39.0317H113.011C113.078 39.2199 113.125 39.408 113.152 39.5962C113.186 39.7843 113.202 39.9697 113.202 40.1523C113.202 40.8164 113.014 41.3338 112.638 41.7046C112.267 42.0754 111.736 42.2607 111.044 42.2607C111.022 42.2607 110.991 42.2607 110.953 42.2607C110.914 42.2607 110.845 42.2552 110.745 42.2441C111.166 42.7809 111.481 43.3869 111.691 44.062C111.902 44.7316 112.007 45.4676 112.007 46.27C112.007 48.1405 111.462 49.6484 110.372 50.7939C109.287 51.9395 107.87 52.5122 106.122 52.5122ZM106.238 42.5098C105.297 42.5098 104.55 42.8639 103.997 43.5723C103.443 44.2751 103.167 45.2075 103.167 46.3696C103.167 47.5483 103.443 48.4808 103.997 49.167C104.55 49.8532 105.275 50.1963 106.171 50.1963C107.096 50.1963 107.829 49.8643 108.371 49.2002C108.913 48.5306 109.185 47.6037 109.185 46.4194C109.185 45.1854 108.922 44.2253 108.396 43.5391C107.87 42.8529 107.151 42.5098 106.238 42.5098ZM125.014 52.3047H122.308L117.402 44.8257C117.258 44.6043 117.137 44.4134 117.037 44.2529C116.938 44.0869 116.86 43.9486 116.805 43.8379H116.771C116.794 44.0482 116.81 44.3138 116.821 44.6348C116.832 44.9557 116.838 45.332 116.838 45.7637V52.3047H114.306V40.4014H117.195L121.918 47.6479C122.023 47.8084 122.125 47.9717 122.225 48.1377C122.33 48.2982 122.427 48.4587 122.516 48.6191H122.549C122.527 48.4808 122.51 48.276 122.499 48.0049C122.488 47.7282 122.482 47.3879 122.482 46.9839V40.4014H125.014V52.3047Z" fill="white"/>
</svg>
