<svg width="14" height="14" viewBox="0 0 14 14" fill="none" xmlns="http://www.w3.org/2000/svg">
<g clip-path="url(#clip0_1302_92634)">
<rect width="14" height="14" fill="white" fill-opacity="0.01"/>
<path d="M9.59848 9.03359C9.9766 8.83047 10.4094 8.71484 10.8704 8.71484H10.8719C10.9188 8.71484 10.9407 8.65859 10.9063 8.62734C10.4269 8.19715 9.87936 7.8497 9.28598 7.59922C9.27973 7.59609 9.27348 7.59453 9.26723 7.59141C10.2375 6.88672 10.8688 5.74141 10.8688 4.44922C10.8688 2.30859 9.13754 0.574219 7.0016 0.574219C4.86566 0.574219 3.13598 2.30859 3.13598 4.44922C3.13598 5.74141 3.76723 6.88672 4.7391 7.59141C4.73285 7.59453 4.7266 7.59609 4.72035 7.59922C4.02191 7.89453 3.39535 8.31797 2.85629 8.85859C2.32034 9.39357 1.89365 10.0278 1.60004 10.7258C1.31115 11.4093 1.15524 12.1417 1.14066 12.8836C1.14025 12.9003 1.14317 12.9169 1.14927 12.9324C1.15536 12.9479 1.1645 12.9621 1.17615 12.974C1.1878 12.9859 1.20172 12.9954 1.2171 13.0019C1.23247 13.0084 1.24898 13.0117 1.26566 13.0117H2.2016C2.26879 13.0117 2.32504 12.957 2.3266 12.8898C2.35785 11.6836 2.84066 10.5539 3.69535 9.69766C4.57816 8.81172 5.75316 8.32422 7.00316 8.32422C7.8891 8.32422 8.7391 8.56953 9.47192 9.02891C9.49074 9.04074 9.51235 9.0474 9.53457 9.04822C9.55679 9.04904 9.57883 9.044 9.59848 9.03359V9.03359ZM7.00316 7.13672C6.28754 7.13672 5.6141 6.85703 5.10629 6.34922C4.85644 6.10001 4.65836 5.80384 4.52348 5.47775C4.38859 5.15166 4.31956 4.8021 4.32035 4.44922C4.32035 3.73203 4.60004 3.05703 5.10629 2.54922C5.61254 2.04141 6.28598 1.76172 7.00316 1.76172C7.72035 1.76172 8.39223 2.04141 8.90004 2.54922C9.14989 2.79842 9.34797 3.0946 9.48285 3.42069C9.61774 3.74678 9.68677 4.09633 9.68598 4.44922C9.68598 5.16641 9.40629 5.84141 8.90004 6.34922C8.39223 6.85703 7.71879 7.13672 7.00316 7.13672ZM12.75 10.8555H11.4375V9.54297C11.4375 9.47422 11.3813 9.41797 11.3125 9.41797H10.4375C10.3688 9.41797 10.3125 9.47422 10.3125 9.54297V10.8555H9.00004C8.93129 10.8555 8.87504 10.9117 8.87504 10.9805V11.8555C8.87504 11.9242 8.93129 11.9805 9.00004 11.9805H10.3125V13.293C10.3125 13.3617 10.3688 13.418 10.4375 13.418H11.3125C11.3813 13.418 11.4375 13.3617 11.4375 13.293V11.9805H12.75C12.8188 11.9805 12.875 11.9242 12.875 11.8555V10.9805C12.875 10.9117 12.8188 10.8555 12.75 10.8555Z" fill="#1890FF"/>
</g>
<defs>
<clipPath id="clip0_1302_92634">
<rect width="14" height="14" fill="white"/>
</clipPath>
</defs>
</svg>
