<svg width="14" height="15" viewBox="0 0 14 15" fill="none" xmlns="http://www.w3.org/2000/svg">
<g clip-path="url(#clip0_1391_37149)">
<rect width="14" height="14" transform="translate(0.000183105 0.132812)" fill="white" fill-opacity="0.01"/>
<g clip-path="url(#clip1_1391_37149)">
<path d="M1.62522 7.01094C1.64085 6.32813 1.78147 5.66563 2.04553 5.04219C2.31585 4.40156 2.70335 3.82813 3.1971 3.33281C3.69085 2.8375 4.26585 2.45 4.90647 2.17969C5.56897 1.9 6.2721 1.75781 6.99866 1.75781C7.72522 1.75781 8.42835 1.9 9.08928 2.17969C9.72807 2.44945 10.3082 2.84112 10.7971 3.33281C10.9518 3.4875 11.0971 3.65156 11.2315 3.82344L10.2908 4.55781C10.2722 4.57221 10.2581 4.59157 10.25 4.61366C10.2419 4.63575 10.2402 4.65968 10.2451 4.6827C10.25 4.70571 10.2613 4.72688 10.2776 4.74376C10.294 4.76064 10.3149 4.77255 10.3377 4.77813L13.083 5.45C13.1612 5.46875 13.2377 5.40938 13.2377 5.32969L13.2502 2.50313C13.2502 2.39844 13.1299 2.33906 13.0487 2.40469L12.1674 3.09375C10.9658 1.55625 9.0971 0.570312 6.9971 0.570312C3.41741 0.570312 0.50491 3.43906 0.437722 7.00469C0.437305 7.02136 0.44023 7.03796 0.446325 7.05348C0.45242 7.06901 0.461561 7.08316 0.47321 7.0951C0.484859 7.10704 0.498781 7.11653 0.514154 7.12301C0.529527 7.12949 0.546041 7.13282 0.562722 7.13281H1.50022C1.56897 7.13281 1.62366 7.07813 1.62522 7.01094ZM13.4377 7.13281H12.5002C12.4315 7.13281 12.3768 7.1875 12.3752 7.25469C12.3596 7.9375 12.219 8.6 11.9549 9.22344C11.6846 9.86406 11.2971 10.4391 10.8033 10.9328C10.305 11.4332 9.71249 11.83 9.06002 12.1004C8.40756 12.3707 7.70803 12.5092 7.00178 12.5078C6.29577 12.5091 5.59649 12.3706 4.94428 12.1003C4.29208 11.83 3.69985 11.4332 3.20178 10.9328C3.0471 10.7781 2.90178 10.6141 2.76741 10.4422L3.70803 9.70781C3.72665 9.69342 3.74082 9.67406 3.74891 9.65197C3.75701 9.62987 3.75871 9.60595 3.75381 9.58293C3.74892 9.55992 3.73762 9.53875 3.72123 9.52187C3.70484 9.50499 3.68402 9.49307 3.66116 9.4875L0.915847 8.81563C0.837722 8.79688 0.76116 8.85625 0.76116 8.93594L0.750222 11.7641C0.750222 11.8688 0.870535 11.9281 0.951785 11.8625L1.83303 11.1734C3.0346 12.7094 4.90335 13.6953 7.00335 13.6953C10.5846 13.6953 13.4955 10.825 13.5627 7.26094C13.5631 7.24426 13.5602 7.22767 13.5541 7.21214C13.548 7.19661 13.5389 7.18246 13.5272 7.17052C13.5156 7.15858 13.5017 7.14909 13.4863 7.14262C13.4709 7.13614 13.4544 7.13281 13.4377 7.13281Z" fill="#1890FF"/>
</g>
</g>
<defs>
<clipPath id="clip0_1391_37149">
<rect width="14" height="14" fill="white" transform="translate(0.000183105 0.132812)"/>
</clipPath>
<clipPath id="clip1_1391_37149">
<rect width="14" height="14" fill="white" transform="translate(0.000183105 0.132812)"/>
</clipPath>
</defs>
</svg>
