<svg width="22" height="23" viewBox="0 0 22 23" fill="none" xmlns="http://www.w3.org/2000/svg">
<g clip-path="url(#clip0_902_136747)">
<rect width="22" height="22" transform="translate(0 0.0712891)" fill="white" fill-opacity="0.01"/>
<g clip-path="url(#clip1_902_136747)">
<path d="M15.5914 7.1665H14.4399C14.1894 7.1665 13.9513 7.28682 13.8039 7.49307L9.94413 12.8457L8.19591 10.4199C8.04859 10.2161 7.81287 10.0933 7.55997 10.0933H6.40841C6.24881 10.0933 6.15551 10.275 6.24881 10.4051L9.30819 14.648C9.38046 14.7489 9.47574 14.831 9.58612 14.8877C9.6965 14.9445 9.8188 14.974 9.9429 14.974C10.067 14.974 10.1893 14.9445 10.2997 14.8877C10.4101 14.831 10.5053 14.7489 10.5776 14.648L15.7486 7.47833C15.8443 7.3482 15.751 7.1665 15.5914 7.1665Z" fill="#1890FF"/>
<path d="M11 0.0712891C4.92545 0.0712891 0 4.99674 0 11.0713C0 17.1458 4.92545 22.0713 11 22.0713C17.0746 22.0713 22 17.1458 22 11.0713C22 4.99674 17.0746 0.0712891 11 0.0712891ZM11 20.2052C5.9567 20.2052 1.86607 16.1146 1.86607 11.0713C1.86607 6.02799 5.9567 1.93736 11 1.93736C16.0433 1.93736 20.1339 6.02799 20.1339 11.0713C20.1339 16.1146 16.0433 20.2052 11 20.2052Z" fill="#1890FF"/>
</g>
</g>
<defs>
<clipPath id="clip0_902_136747">
<rect width="22" height="22" fill="white" transform="translate(0 0.0712891)"/>
</clipPath>
<clipPath id="clip1_902_136747">
<rect width="22" height="22" fill="white" transform="translate(0 0.0712891)"/>
</clipPath>
</defs>
</svg>
