<svg width="20" height="20" viewBox="0 0 20 20" fill="none" xmlns="http://www.w3.org/2000/svg">
<path d="M11.1542 9.99944L17.0136 3.01507C17.1118 2.899 17.0292 2.72266 16.8774 2.72266H15.0962C14.9913 2.72266 14.8908 2.76953 14.8216 2.84989L9.98902 8.61105L5.15643 2.84989C5.08947 2.76953 4.98902 2.72266 4.88188 2.72266H3.10063C2.94884 2.72266 2.86625 2.899 2.96446 3.01507L8.82384 9.99944L2.96446 16.9838C2.94246 17.0097 2.92835 17.0413 2.9238 17.075C2.91924 17.1086 2.92444 17.1429 2.93878 17.1737C2.95312 17.2045 2.97599 17.2305 3.00467 17.2487C3.03336 17.2669 3.06666 17.2764 3.10063 17.2762H4.88188C4.98679 17.2762 5.08723 17.2294 5.15643 17.149L9.98902 11.3878L14.8216 17.149C14.8886 17.2294 14.989 17.2762 15.0962 17.2762H16.8774C17.0292 17.2762 17.1118 17.0999 17.0136 16.9838L11.1542 9.99944Z" fill="#003A8C"/>
</svg>
