<svg width="42" height="42" viewBox="0 0 42 42" fill="none" xmlns="http://www.w3.org/2000/svg">
<circle cx="21" cy="21" r="21" fill="url(#paint0_linear_53_30009)"/>
<path d="M22.3876 20.9988L29.4188 12.6176C29.5367 12.4783 29.4376 12.2667 29.2554 12.2667H27.1179C26.992 12.2667 26.8715 12.3229 26.7885 12.4193L20.9894 19.3327L15.1903 12.4193C15.1099 12.3229 14.9894 12.2667 14.8608 12.2667H12.7233C12.5411 12.2667 12.442 12.4783 12.5599 12.6176L19.5911 20.9988L12.5599 29.3801C12.5335 29.4111 12.5166 29.4491 12.5111 29.4895C12.5056 29.5298 12.5119 29.571 12.5291 29.6079C12.5463 29.6448 12.5737 29.6761 12.6081 29.6979C12.6426 29.7197 12.6825 29.7312 12.7233 29.7309H14.8608C14.9867 29.7309 15.1072 29.6747 15.1903 29.5783L20.9894 22.6649L26.7885 29.5783C26.8688 29.6747 26.9894 29.7309 27.1179 29.7309H29.2554C29.4376 29.7309 29.5367 29.5193 29.4188 29.3801L22.3876 20.9988Z" fill="black" fill-opacity="0.85"/>
<defs>
<linearGradient id="paint0_linear_53_30009" x1="19.814" y1="1.22611" x2="22.0548" y2="38.5735" gradientUnits="userSpaceOnUse">
<stop stop-color="#EFE39B"/>
<stop offset="0.5379" stop-color="#F1AC2B"/>
<stop offset="0.9848" stop-color="#E4700D"/>
</linearGradient>
</defs>
</svg>
