<svg width="16" height="16" viewBox="0 0 16 16" fill="none" xmlns="http://www.w3.org/2000/svg">
<path d="M8.9218 7.99916L13.6093 2.41166C13.6879 2.31881 13.6218 2.17773 13.5004 2.17773H12.0754C11.9914 2.17773 11.9111 2.21523 11.8557 2.27952L7.98965 6.88845L4.12358 2.27952C4.07001 2.21523 3.98965 2.17773 3.90394 2.17773H2.47894C2.35751 2.17773 2.29144 2.31881 2.37001 2.41166L7.05751 7.99916L2.37001 13.5867C2.35241 13.6074 2.34112 13.6327 2.33747 13.6596C2.33383 13.6865 2.33799 13.7139 2.34946 13.7386C2.36093 13.7632 2.37923 13.784 2.40218 13.7985C2.42513 13.8131 2.45177 13.8207 2.47894 13.8206H3.90394C3.98787 13.8206 4.06822 13.7831 4.12358 13.7188L7.98965 9.10988L11.8557 13.7188C11.9093 13.7831 11.9897 13.8206 12.0754 13.8206H13.5004C13.6218 13.8206 13.6879 13.6795 13.6093 13.5867L8.9218 7.99916Z" fill="black" fill-opacity="0.45"/>
</svg>
