<svg width="20" height="20" viewBox="0 0 20 20" fill="none" xmlns="http://www.w3.org/2000/svg">
<path d="M4.3234 15.356C4.36804 15.356 4.41269 15.3516 4.45733 15.3449L8.21179 14.6864C8.25643 14.6775 8.29885 14.6574 8.3301 14.6239L17.7921 5.16183C17.8128 5.14118 17.8293 5.11665 17.8405 5.08965C17.8517 5.06265 17.8574 5.0337 17.8574 5.00446C17.8574 4.97523 17.8517 4.94628 17.8405 4.91928C17.8293 4.89228 17.8128 4.86775 17.7921 4.8471L14.0823 1.13504C14.0399 1.09263 13.9841 1.07031 13.9238 1.07031C13.8636 1.07031 13.8078 1.09263 13.7654 1.13504L4.30331 10.5971C4.26983 10.6306 4.24974 10.6708 4.24081 10.7154L3.58233 14.4699C3.56061 14.5894 3.56837 14.7125 3.60493 14.8284C3.64149 14.9443 3.70575 15.0496 3.79215 15.135C3.93947 15.2779 4.12474 15.356 4.3234 15.356V15.356ZM5.82786 11.4632L13.9238 3.36942L15.56 5.00558L7.46402 13.0993L5.47965 13.4498L5.82786 11.4632V11.4632ZM18.214 17.231H1.78545C1.39036 17.231 1.07117 17.5502 1.07117 17.9453V18.7489C1.07117 18.8471 1.15152 18.9275 1.24974 18.9275H18.7497C18.848 18.9275 18.9283 18.8471 18.9283 18.7489V17.9453C18.9283 17.5502 18.6091 17.231 18.214 17.231Z" fill="#096DD9"/>
</svg>
