<svg width="41" height="33" viewBox="0 0 41 33" fill="none" xmlns="http://www.w3.org/2000/svg">
<path d="M20.0346 32.1573C28.1779 32.1573 34.7794 30.9512 34.7794 29.4634C34.7794 27.9756 28.1779 26.7695 20.0346 26.7695C11.8912 26.7695 5.28967 27.9756 5.28967 29.4634C5.28967 30.9512 11.8912 32.1573 20.0346 32.1573Z" fill="#F5F5F7" fill-opacity="0.8"/>
<path fill-rule="evenodd" clip-rule="evenodd" d="M31.8306 21.5511L26.6272 15.2896C26.3776 14.9948 26.0126 14.8164 25.6283 14.8164H14.4408C14.0568 14.8164 13.6918 14.9948 13.4421 15.2896L8.23901 21.5511V24.8224H31.8308V21.5511H31.8306Z" fill="#AEB8C2"/>
<path fill-rule="evenodd" clip-rule="evenodd" d="M12.6472 6.73438H27.4216C27.6524 6.73438 27.8736 6.82399 28.0368 6.98351C28.1999 7.14303 28.2916 7.35939 28.2916 7.58499V27.4349C28.2916 27.6604 28.1999 27.8768 28.0368 28.0363C27.8736 28.1958 27.6524 28.2855 27.4216 28.2855H12.6472C12.4164 28.2855 12.1952 28.1958 12.032 28.0363C11.8689 27.8768 11.7772 27.6604 11.7772 27.4349V7.58499C11.7772 7.35939 11.8689 7.14303 12.032 6.98351C12.1952 6.82399 12.4164 6.73438 12.6472 6.73438V6.73438Z" fill="#F5F5F7"/>
<path fill-rule="evenodd" clip-rule="evenodd" d="M14.5714 8.85156H25.4972C25.6126 8.85156 25.7232 8.89637 25.8048 8.97613C25.8864 9.05589 25.9322 9.16407 25.9322 9.27687V14.584C25.9322 14.6968 25.8864 14.805 25.8048 14.8848C25.7232 14.9645 25.6126 15.0094 25.4972 15.0094H14.5714C14.456 15.0094 14.3454 14.9645 14.2638 14.8848C14.1822 14.805 14.1364 14.6968 14.1364 14.584V9.27687C14.1364 9.16407 14.1822 9.05589 14.2638 8.97613C14.3454 8.89637 14.456 8.85156 14.5714 8.85156ZM14.6284 17.3181H25.4402C25.5707 17.3181 25.6958 17.3688 25.7881 17.459C25.8804 17.5492 25.9322 17.6716 25.9322 17.7991C25.9322 17.9267 25.8804 18.0491 25.7881 18.1393C25.6958 18.2295 25.5707 18.2802 25.4402 18.2802H14.6284C14.4979 18.2802 14.3728 18.2295 14.2805 18.1393C14.1882 18.0491 14.1364 17.9267 14.1364 17.7991C14.1364 17.6716 14.1882 17.5492 14.2805 17.459C14.3728 17.3688 14.4979 17.3181 14.6284 17.3181ZM14.6284 19.8196H25.4402C25.5707 19.8196 25.6959 19.8702 25.7882 19.9605C25.8805 20.0507 25.9323 20.1731 25.9323 20.3007C25.9323 20.4283 25.8805 20.5507 25.7882 20.6409C25.6959 20.7311 25.5707 20.7818 25.4402 20.7818H14.6284C14.4979 20.7818 14.3727 20.7311 14.2804 20.6409C14.1881 20.5507 14.1363 20.4283 14.1363 20.3007C14.1363 20.1731 14.1881 20.0507 14.2804 19.9605C14.3727 19.8702 14.4979 19.8196 14.6284 19.8196ZM31.7821 29.0704C31.6136 29.7234 31.0216 30.2102 30.3174 30.2102H9.75124C9.04702 30.2102 8.45502 29.7232 8.28669 29.0704C8.25458 28.9459 8.23836 28.8181 8.2384 28.6897V21.5516H13.9622C14.5944 21.5516 15.104 22.0722 15.104 22.7042V22.7127C15.104 23.3445 15.6194 23.8546 16.2517 23.8546H23.8169C24.4491 23.8546 24.9646 23.3398 24.9646 22.7078V22.7053C24.9646 22.0733 25.4742 21.5514 26.1064 21.5514H31.8302V28.6899C31.8302 28.8211 31.8134 28.9485 31.7821 29.0704Z" fill="#DCE0E6"/>
<path fill-rule="evenodd" clip-rule="evenodd" d="M32.5014 7.07964L31.016 7.64317C30.9779 7.65768 30.9363 7.66136 30.8961 7.65379C30.8559 7.64622 30.8187 7.62771 30.7887 7.60039C30.7588 7.57306 30.7374 7.53803 30.7269 7.49933C30.7165 7.46063 30.7174 7.41982 30.7296 7.38161L31.1509 6.06167C30.5878 5.43562 30.2572 4.67219 30.2572 3.84838C30.2572 1.72291 32.4577 0 35.1724 0C37.8864 0 40.0871 1.72291 40.0871 3.84838C40.0871 5.97384 37.8866 7.69676 35.1722 7.69676C34.1874 7.69676 33.2705 7.47007 32.5014 7.07964Z" fill="#DCE0E6"/>
<path d="M37.1081 4.54489C37.4503 4.54489 37.7278 4.27688 37.7278 3.94627C37.7278 3.61567 37.4503 3.34766 37.1081 3.34766C36.7659 3.34766 36.4885 3.61567 36.4885 3.94627C36.4885 4.27688 36.7659 4.54489 37.1081 4.54489Z" fill="white"/>
<path fill-rule="evenodd" clip-rule="evenodd" d="M33.8557 4.4694H32.6165L33.2467 3.42188L33.8557 4.4694ZM34.6302 3.42188H35.7143V4.4694H34.6302V3.42188Z" fill="white"/>
</svg>
