<svg width="14" height="14" viewBox="0 0 14 14" fill="none" xmlns="http://www.w3.org/2000/svg">
<path d="M13.3761 6.56563L6.62969 0.710268C6.5779 0.665625 6.51183 0.640625 6.44219 0.640625H4.86183C4.72969 0.640625 4.66897 0.804911 4.76897 0.890625L11.0225 6.3192H0.572545C0.493973 6.3192 0.429688 6.38348 0.429688 6.46205V7.53348C0.429688 7.61205 0.493973 7.67634 0.572545 7.67634H11.0208L4.76719 13.1049C4.66719 13.1924 4.7279 13.3549 4.86004 13.3549H6.49397C6.5279 13.3549 6.56183 13.3424 6.58683 13.3192L13.3761 7.42991C13.4379 7.37615 13.4875 7.30976 13.5215 7.23521C13.5554 7.16066 13.573 7.07969 13.573 6.99777C13.573 6.91584 13.5554 6.83488 13.5215 6.76033C13.4875 6.68578 13.4379 6.61938 13.3761 6.56563Z" fill="#1890FF"/>
</svg>
