<svg width="118" height="32" viewBox="0 0 118 32" fill="none" xmlns="http://www.w3.org/2000/svg">
<g clip-path="url(#clip0_702_140071)">
<path d="M97.0729 11.8231L102.436 13.2043L117.581 0L97.0729 11.8231Z" fill="#3FDDFE"/>
<path d="M105.048 13.8768L111.125 15.4416L117.581 0L105.048 13.8768Z" fill="#3FDDFE"/>
<path d="M117.581 0L102.436 13.2043L105.048 17.6L107.289 14.4538L105.048 13.8768L117.581 0Z" fill="#4D7FFD"/>
<path d="M105.048 13.8768V17.6L107.289 14.4538L105.048 13.8768Z" fill="#240065"/>
<path d="M58.5981 26.028V15.791C58.5981 15.4011 58.8425 15.1572 59.2092 15.1572H61.6538C62.0206 15.1572 62.265 15.4009 62.265 15.791V26.028C62.265 26.4179 62.0206 26.6618 61.6538 26.6618H59.2092C58.8425 26.6618 58.5981 26.4181 58.5981 26.028Z" fill="#240065"/>
<path d="M60.4315 13.8691C61.4441 13.8691 62.265 13.0506 62.265 12.041C62.265 11.0314 61.4441 10.2129 60.4315 10.2129C59.419 10.2129 58.5981 11.0314 58.5981 12.041C58.5981 13.0506 59.419 13.8691 60.4315 13.8691Z" fill="#3FDDFE"/>
<path d="M42.7905 25.9901V10.2464C42.7905 9.85857 43.0349 9.59998 43.4017 9.59998H50.7108C54.4998 9.59998 56.3822 11.7716 56.3822 14.3308C56.3822 15.9336 55.6 17.3297 53.8643 18.0276C55.6 18.622 56.9934 20.1732 56.9934 21.9054C56.9934 24.4904 55.1357 26.6621 51.3219 26.6621H43.4017C43.0349 26.6621 42.7905 26.4035 42.7905 25.9901ZM52.6665 14.7445C52.6665 13.9689 52.202 13.2192 50.8576 13.2192H46.5795V16.3733L50.7841 16.3989C52.0066 16.3989 52.6665 15.5459 52.6665 14.7445ZM51.0775 23.0429C52.7889 23.0429 53.2044 22.0604 53.2044 21.3367C53.2044 20.5095 52.5932 19.7856 51.5666 19.7856H46.5795V23.0429H51.0775Z" fill="#240065"/>
<path d="M63.8694 26.0039V24.9315C63.8694 24.6634 63.894 24.4928 63.9427 24.3708C64.6517 22.5429 66.6318 20.0079 68.2208 18.4235H64.5296C64.1386 18.4235 63.8697 18.1556 63.8697 17.7655V15.8157C63.8697 15.4256 64.1386 15.1577 64.5296 15.1577H72.5479C72.9389 15.1577 73.2078 15.4014 73.2078 15.8157L73.1833 16.9855C73.1833 17.2779 73.1345 17.4976 72.9634 17.6682C71.2521 19.4232 68.881 22.1531 68.3434 23.5668H72.6702C73.0612 23.5668 73.3302 23.8348 73.3302 24.2249V26.0041C73.3302 26.394 73.0612 26.6621 72.6702 26.6621H64.4811C64.0893 26.6621 63.8694 26.3937 63.8694 26.0039Z" fill="#240065"/>
<path d="M74.9346 26.0292V16.3663C74.9346 13.1533 76.1062 9.59998 80.5979 9.59998C80.8909 9.59998 81.1591 9.86765 81.2081 10.1109L81.5253 11.912C81.5986 12.3258 81.452 12.6422 81.0129 12.7153C79.1578 13.0074 78.401 13.9321 78.401 15.8063H81.3302C81.6965 15.8063 81.9649 16.0498 81.9649 16.4148V18.3862C81.9649 18.7514 81.6962 18.9947 81.3302 18.9947H78.523V26.029C78.523 26.4184 78.2789 26.6616 77.9128 26.6616H75.545C75.1788 26.6621 74.9346 26.4186 74.9346 26.0292Z" fill="#240065"/>
<path d="M83.5696 26.0285V10.2093C83.5696 9.84368 83.8141 9.59998 84.1808 9.59998H86.5519C86.9186 9.59998 87.163 9.84368 87.163 10.2093V26.0283C87.163 26.4181 86.9186 26.6618 86.5519 26.6618H84.1808C83.8141 26.6621 83.5696 26.4181 83.5696 26.0285Z" fill="#240065"/>
<path d="M90.8946 31.0736C90.5766 30.9517 90.5033 30.6351 90.6502 30.3181L91.3344 28.7095C91.4567 28.3438 91.8232 28.2221 92.19 28.3924C93.0698 28.7826 93.6322 28.9045 94.2433 28.9045C96.2967 28.9045 97.2013 27.5883 96.9323 25.6137C96.3212 26.3451 95.2455 26.9058 93.8768 26.9058C91.3344 26.9058 88.7677 25.2239 88.7677 21.0558V15.791C88.7677 15.4011 89.0121 15.1574 89.3789 15.1574H91.7989C92.1655 15.1574 92.4099 15.4011 92.4099 15.791V21.1775C92.4099 22.8595 93.1433 23.8103 94.5613 23.8103C95.6122 23.8103 96.5901 23.2982 96.9811 22.1773V15.791C96.9811 15.4011 97.2255 15.1574 97.6168 15.1574H99.9391C100.306 15.1574 100.55 15.4011 100.55 15.791V25.6137C100.55 30.3912 98.2522 32 94.7567 32C93.1433 32 92.0191 31.7074 90.8946 31.0736Z" fill="#240065"/>
</g>
<path d="M0 26.9997V9.67383H3.3396L10.7665 21.9009H8.99698L16.2992 9.67383H19.6139L19.6637 26.9997H15.8755L15.8506 15.4409H16.5485L10.7166 25.1681H8.89729L2.94084 15.4409H3.7882V26.9997H0Z" fill="#3FDDFE"/>
<path d="M25.2234 31.9994C24.5256 31.9994 23.836 31.8922 23.1548 31.6776C22.4736 31.4631 21.917 31.1661 21.485 30.7866L22.9056 28.0392C23.2047 28.3032 23.5453 28.5095 23.9274 28.658C24.3262 28.8065 24.7166 28.8808 25.0988 28.8808C25.6471 28.8808 26.0791 28.7488 26.3947 28.4847C26.727 28.2372 27.0261 27.8165 27.2919 27.2224L27.9898 25.5888L28.2888 25.1681L33.0989 13.6835H36.8372L30.7811 27.8165C30.3491 28.889 29.8506 29.7305 29.2857 30.3411C28.7374 30.9516 28.1227 31.3806 27.4415 31.6281C26.7769 31.8757 26.0375 31.9994 25.2234 31.9994ZM27.5162 27.5194L21.5349 13.6835H25.5474L30.1829 24.8216L27.5162 27.5194Z" fill="#3FDDFE"/>
<defs>
<clipPath id="clip0_702_140071">
<rect width="74.7907" height="32" fill="white" transform="translate(42.7905)"/>
</clipPath>
</defs>
</svg>
