<svg width="21" height="20" viewBox="0 0 21 20" fill="none" xmlns="http://www.w3.org/2000/svg">
<g clip-path="url(#clip0_1654_252287)">
<path d="M1.21428 2.13867H19.7857C20.1808 2.13867 20.5 2.45787 20.5 2.85296V17.1387C20.5 17.5338 20.1808 17.853 19.7857 17.853H1.21428C0.819197 17.853 0.5 17.5338 0.5 17.1387V2.85296C0.5 2.45787 0.819197 2.13867 1.21428 2.13867ZM2.10714 4.61189V16.2458H18.8929V4.61189L19.5089 4.13198L18.6317 3.00474L17.6763 3.74805H3.32143L2.36607 3.00474L1.48884 4.13198L2.10714 4.61189ZM3.32143 3.74581L10.5 9.32617L17.6786 3.74581L18.6339 3.00251L19.5112 4.12974L18.8951 4.60965L11.2701 10.5382C11.0508 10.7086 10.781 10.8011 10.5033 10.8011C10.2257 10.8011 9.95589 10.7086 9.73661 10.5382L2.10714 4.61189L1.49107 4.13198L2.3683 3.00474L3.32143 3.74581Z" fill="#5C7088"/>
</g>
<defs>
<clipPath id="clip0_1654_252287">
<rect width="20" height="20" fill="white" transform="matrix(-1 0 0 1 20.5 0)"/>
</clipPath>
</defs>
</svg>
