<svg width="17" height="16" viewBox="0 0 17 16" fill="none" xmlns="http://www.w3.org/2000/svg">
<path d="M14.6381 2.61808L13.8809 1.86094C13.8541 1.83435 13.8178 1.81944 13.78 1.81944C13.7422 1.81944 13.706 1.83435 13.6791 1.86094L2.36306 13.1734C2.33647 13.2003 2.32156 13.2365 2.32156 13.2743C2.32156 13.3121 2.33647 13.3484 2.36306 13.3752L3.1202 14.1324C3.17556 14.1877 3.26663 14.1877 3.32199 14.1324L14.6363 2.81808C14.6934 2.76451 14.6934 2.67344 14.6381 2.61808ZM4.78627 6.8538C6.20413 6.8538 7.3577 5.70022 7.3577 4.28237C7.3577 2.86451 6.20413 1.71094 4.78627 1.71094C3.36842 1.71094 2.21484 2.86451 2.21484 4.28237C2.21484 5.70022 3.36842 6.8538 4.78627 6.8538ZM4.78627 2.99665C5.4952 2.99665 6.07199 3.57344 6.07199 4.28237C6.07199 4.9913 5.4952 5.56808 4.78627 5.56808C4.07734 5.56808 3.50056 4.9913 3.50056 4.28237C3.50056 3.57344 4.07734 2.99665 4.78627 2.99665ZM12.2148 9.13951C10.797 9.13951 9.64342 10.2931 9.64342 11.7109C9.64342 13.1288 10.797 14.2824 12.2148 14.2824C13.6327 14.2824 14.7863 13.1288 14.7863 11.7109C14.7863 10.2931 13.6327 9.13951 12.2148 9.13951ZM12.2148 12.9967C11.5059 12.9967 10.9291 12.4199 10.9291 11.7109C10.9291 11.002 11.5059 10.4252 12.2148 10.4252C12.9238 10.4252 13.5006 11.002 13.5006 11.7109C13.5006 12.4199 12.9238 12.9967 12.2148 12.9967Z" fill="black" fill-opacity="0.45"/>
</svg>
