<svg width="12" height="16" viewBox="0 0 12 16" fill="none" xmlns="http://www.w3.org/2000/svg">
<path d="M10.1434 -0.0390625H1.8577C1.22734 -0.0390625 0.714844 0.473438 0.714844 1.10379V14.8181C0.714844 15.4484 1.22734 15.9609 1.8577 15.9609H10.1434C10.7738 15.9609 11.2863 15.4484 11.2863 14.8181V1.10379C11.2863 0.473438 10.7738 -0.0390625 10.1434 -0.0390625ZM10.0006 14.6752H2.00056V1.24665H10.0006V14.6752ZM5.28627 12.8538C5.28627 13.0432 5.36153 13.2249 5.49548 13.3589C5.62944 13.4928 5.81112 13.5681 6.00056 13.5681C6.19 13.5681 6.37168 13.4928 6.50564 13.3589C6.63959 13.2249 6.71484 13.0432 6.71484 12.8538C6.71484 12.6644 6.63959 12.4827 6.50564 12.3487C6.37168 12.2148 6.19 12.1395 6.00056 12.1395C5.81112 12.1395 5.62944 12.2148 5.49548 12.3487C5.36153 12.4827 5.28627 12.6644 5.28627 12.8538Z" fill="black" fill-opacity="0.85"/>
</svg>
