<svg width="40" height="40" viewBox="0 0 40 40" fill="none" xmlns="http://www.w3.org/2000/svg">
<path d="M20.668 11.9648H19.3287C19.2097 11.9648 19.1501 12.0244 19.1501 12.1434V19.1523H12.4989C12.3798 19.1523 12.3203 19.2119 12.3203 19.3309V20.6702C12.3203 20.7893 12.3798 20.8488 12.4989 20.8488H19.1501V27.8577C19.1501 27.9767 19.2097 28.0363 19.3287 28.0363H20.668C20.7871 28.0363 20.8466 27.9767 20.8466 27.8577V20.8488H27.4989C27.6179 20.8488 27.6775 20.7893 27.6775 20.6702V19.3309C27.6775 19.2119 27.6179 19.1523 27.4989 19.1523H20.8466V12.1434C20.8466 12.0244 20.7871 11.9648 20.668 11.9648Z" fill="black" fill-opacity="0.85"/>
<path d="M39 0V40H41V0H39Z" fill="#D9D9D9" mask="url(#path-1-inside-1_1654_255043)"/>
</svg>
