<svg width="14" height="14" viewBox="0 0 14 14" fill="none" xmlns="http://www.w3.org/2000/svg">
<g clip-path="url(#clip0_1168_40173)">
<rect width="14" height="14" fill="white" fill-opacity="0.01"/>
<path d="M7.46863 1.375H6.53113C6.44779 1.375 6.40613 1.41667 6.40613 1.5V6.40625H1.75024C1.66691 6.40625 1.62524 6.44792 1.62524 6.53125V7.46875C1.62524 7.55208 1.66691 7.59375 1.75024 7.59375H6.40613V12.5C6.40613 12.5833 6.44779 12.625 6.53113 12.625H7.46863C7.55196 12.625 7.59363 12.5833 7.59363 12.5V7.59375H12.2502C12.3336 7.59375 12.3752 7.55208 12.3752 7.46875V6.53125C12.3752 6.44792 12.3336 6.40625 12.2502 6.40625H7.59363V1.5C7.59363 1.41667 7.55196 1.375 7.46863 1.375Z" fill="white"/>
</g>
<defs>
<clipPath id="clip0_1168_40173">
<rect width="14" height="14" fill="white"/>
</clipPath>
</defs>
</svg>
