<svg width="24" height="24" viewBox="0 0 24 24" fill="none" xmlns="http://www.w3.org/2000/svg">
<path d="M23.76 4.08H0.47998V8.4C2.48861 8.4 4.11748 10.0121 4.11748 12L9.93748 17.76L23.76 4.08Z" fill="url(#paint0_linear_802_130950)"/>
<path d="M23.76 8.4V4.08L9.9375 17.76L12.12 19.92H23.76V15.6C21.7514 15.6 20.1225 13.9879 20.1225 12C20.1225 10.0121 21.7514 8.4 23.76 8.4Z" fill="url(#paint1_linear_802_130950)"/>
<path d="M7.75488 19.92H12.1199L9.93738 17.76L7.75488 19.92Z" fill="#240065"/>
<path d="M4.11748 12C4.11748 13.9879 2.48861 15.6 0.47998 15.6V19.92H7.75498L9.93748 17.76L4.11748 12Z" fill="#3FDDFE"/>
<defs>
<linearGradient id="paint0_linear_802_130950" x1="24.9684" y1="10.7654" x2="0.96089" y2="10.9572" gradientUnits="userSpaceOnUse">
<stop stop-color="#4D7FFD"/>
<stop offset="1" stop-color="#3FDDFE"/>
</linearGradient>
<linearGradient id="paint1_linear_802_130950" x1="10.2023" y1="12.1284" x2="23.233" y2="12.0024" gradientUnits="userSpaceOnUse">
<stop stop-color="#240065"/>
<stop offset="1" stop-color="#4D7FFD"/>
</linearGradient>
</defs>
</svg>
