<svg width="14" height="14" viewBox="0 0 14 14" fill="none" xmlns="http://www.w3.org/2000/svg">
<g clip-path="url(#clip0_802_130888)">
<rect width="14" height="14" fill="white" fill-opacity="0.01"/>
<path d="M6.25 1.25107H1.5C1.3625 1.25107 1.25 1.36357 1.25 1.50107V6.25107C1.25 6.38857 1.3625 6.50107 1.5 6.50107H6.25C6.3875 6.50107 6.5 6.38857 6.5 6.25107V1.50107C6.5 1.36357 6.3875 1.25107 6.25 1.25107ZM5.4375 5.43857H2.3125V2.31357H5.4375V5.43857ZM12.5 1.25107H7.75C7.6125 1.25107 7.5 1.36357 7.5 1.50107V6.25107C7.5 6.38857 7.6125 6.50107 7.75 6.50107H12.5C12.6375 6.50107 12.75 6.38857 12.75 6.25107V1.50107C12.75 1.36357 12.6375 1.25107 12.5 1.25107ZM11.6875 5.43857H8.5625V2.31357H11.6875V5.43857ZM6.25 7.50107H1.5C1.3625 7.50107 1.25 7.61357 1.25 7.75107V12.5011C1.25 12.6386 1.3625 12.7511 1.5 12.7511H6.25C6.3875 12.7511 6.5 12.6386 6.5 12.5011V7.75107C6.5 7.61357 6.3875 7.50107 6.25 7.50107ZM5.4375 11.6886H2.3125V8.56357H5.4375V11.6886ZM12.5 7.50107H7.75C7.6125 7.50107 7.5 7.61357 7.5 7.75107V12.5011C7.5 12.6386 7.6125 12.7511 7.75 12.7511H12.5C12.6375 12.7511 12.75 12.6386 12.75 12.5011V7.75107C12.75 7.61357 12.6375 7.50107 12.5 7.50107ZM11.6875 11.6886H8.5625V8.56357H11.6875V11.6886Z" fill="black" fill-opacity="0.85"/>
</g>
<defs>
<clipPath id="clip0_802_130888">
<rect width="14" height="14" fill="white"/>
</clipPath>
</defs>
</svg>
