<svg width="20" height="20" viewBox="0 0 20 20" fill="none" xmlns="http://www.w3.org/2000/svg">
<path fill-rule="evenodd" clip-rule="evenodd" d="M8.33073 2.50065C8.10972 2.50065 7.89775 2.58845 7.74147 2.74473C7.58519 2.90101 7.4974 3.11297 7.4974 3.33398V4.16732H12.4974V3.33398C12.4974 3.11297 12.4096 2.90101 12.2533 2.74473C12.097 2.58845 11.8851 2.50065 11.6641 2.50065H8.33073ZM14.1641 4.16732V3.33398C14.1641 2.67094 13.9007 2.03506 13.4318 1.56622C12.963 1.09738 12.3271 0.833984 11.6641 0.833984H8.33073C7.66769 0.833984 7.0318 1.09738 6.56296 1.56622C6.09412 2.03506 5.83073 2.67094 5.83073 3.33398V4.16732H2.4974C2.03716 4.16732 1.66406 4.54041 1.66406 5.00065C1.66406 5.46089 2.03716 5.83398 2.4974 5.83398H3.33073V16.6673C3.33073 17.3304 3.59412 17.9662 4.06296 18.4351C4.5318 18.9039 5.16769 19.1673 5.83073 19.1673H14.1641C14.8271 19.1673 15.463 18.9039 15.9318 18.4351C16.4007 17.9662 16.6641 17.3304 16.6641 16.6673V5.83398H17.4974C17.9576 5.83398 18.3307 5.46089 18.3307 5.00065C18.3307 4.54041 17.9576 4.16732 17.4974 4.16732H14.1641ZM4.9974 5.83398V16.6673C4.9974 16.8883 5.08519 17.1003 5.24147 17.2566C5.39775 17.4129 5.60972 17.5006 5.83073 17.5006H14.1641C14.3851 17.5006 14.597 17.4129 14.7533 17.2566C14.9096 17.1003 14.9974 16.8883 14.9974 16.6673V5.83398H4.9974ZM8.33073 8.33398C8.79097 8.33398 9.16406 8.70708 9.16406 9.16732V14.1673C9.16406 14.6276 8.79097 15.0006 8.33073 15.0006C7.87049 15.0006 7.4974 14.6276 7.4974 14.1673V9.16732C7.4974 8.70708 7.87049 8.33398 8.33073 8.33398ZM10.8307 9.16732C10.8307 8.70708 11.2038 8.33398 11.6641 8.33398C12.1243 8.33398 12.4974 8.70708 12.4974 9.16732V14.1673C12.4974 14.6276 12.1243 15.0006 11.6641 15.0006C11.2038 15.0006 10.8307 14.6276 10.8307 14.1673V9.16732Z" fill="#003A8C"/>
</svg>
