<svg width="24" height="24" viewBox="0 0 24 24" fill="none" xmlns="http://www.w3.org/2000/svg">
<g filter="url(#filter0_i_8001_5820)">
<rect width="24" height="24" rx="12" fill="white"/>
</g>
<g filter="url(#filter1_i_8001_5820)">
<rect x="2" y="2" width="20" height="20" rx="10" fill="white"/>
</g>
<path fill-rule="evenodd" clip-rule="evenodd" d="M17.5682 7.98158C17.7322 8.14566 17.8244 8.36818 17.8244 8.6002C17.8244 8.83222 17.7322 9.05474 17.5682 9.21883L11.0098 15.7772C10.9231 15.8639 10.8202 15.9327 10.707 15.9796C10.5937 16.0265 10.4723 16.0507 10.3497 16.0507C10.2271 16.0507 10.1058 16.0265 9.99251 15.9796C9.87926 15.9327 9.77636 15.8639 9.68969 15.7772L6.43119 12.5193C6.34762 12.4386 6.28096 12.3421 6.2351 12.2353C6.18924 12.1286 6.16511 12.0137 6.1641 11.8976C6.16309 11.7814 6.18523 11.6662 6.22922 11.5586C6.27322 11.4511 6.33819 11.3534 6.42034 11.2712C6.5025 11.1891 6.6002 11.1241 6.70773 11.0801C6.81526 11.0361 6.93048 11.014 7.04667 11.015C7.16285 11.016 7.27767 11.0401 7.38442 11.086C7.49117 11.1318 7.58772 11.1985 7.66844 11.2821L10.3494 13.9631L16.3304 7.98158C16.4116 7.90027 16.5081 7.83576 16.6143 7.79176C16.7205 7.74775 16.8343 7.7251 16.9493 7.7251C17.0642 7.7251 17.1781 7.74775 17.2843 7.79176C17.3904 7.83576 17.4869 7.90027 17.5682 7.98158Z" fill="#2196F3"/>
<defs>
<filter id="filter0_i_8001_5820" x="-1" y="-2" width="25" height="26" filterUnits="userSpaceOnUse" color-interpolation-filters="sRGB">
<feFlood flood-opacity="0" result="BackgroundImageFix"/>
<feBlend mode="normal" in="SourceGraphic" in2="BackgroundImageFix" result="shape"/>
<feColorMatrix in="SourceAlpha" type="matrix" values="0 0 0 0 0 0 0 0 0 0 0 0 0 0 0 0 0 0 127 0" result="hardAlpha"/>
<feOffset dx="-1" dy="-2"/>
<feGaussianBlur stdDeviation="2"/>
<feComposite in2="hardAlpha" operator="arithmetic" k2="-1" k3="1"/>
<feColorMatrix type="matrix" values="0 0 0 0 0 0 0 0 0 0 0 0 0 0 0 0 0 0 0.25 0"/>
<feBlend mode="normal" in2="shape" result="effect1_innerShadow_8001_5820"/>
</filter>
<filter id="filter1_i_8001_5820" x="2" y="2" width="23" height="23" filterUnits="userSpaceOnUse" color-interpolation-filters="sRGB">
<feFlood flood-opacity="0" result="BackgroundImageFix"/>
<feBlend mode="normal" in="SourceGraphic" in2="BackgroundImageFix" result="shape"/>
<feColorMatrix in="SourceAlpha" type="matrix" values="0 0 0 0 0 0 0 0 0 0 0 0 0 0 0 0 0 0 127 0" result="hardAlpha"/>
<feOffset dx="3" dy="3"/>
<feGaussianBlur stdDeviation="4"/>
<feComposite in2="hardAlpha" operator="arithmetic" k2="-1" k3="1"/>
<feColorMatrix type="matrix" values="0 0 0 0 0 0 0 0 0 0 0 0 0 0 0 0 0 0 0.25 0"/>
<feBlend mode="normal" in2="shape" result="effect1_innerShadow_8001_5820"/>
</filter>
</defs>
</svg>
