<svg width="16" height="16" viewBox="0 0 16 16" fill="none" xmlns="http://www.w3.org/2000/svg">
<g id="vuesax/outline/edit">
<g id="edit">
<g id="Vector">
<mask id="path-1-inside-1_8009_3223" fill="white">
<path d="M10.0007 15.1666H6.00065C2.38065 15.1666 0.833984 13.6199 0.833984 9.99992V5.99992C0.833984 2.37992 2.38065 0.833252 6.00065 0.833252H7.33398C7.60732 0.833252 7.83398 1.05992 7.83398 1.33325C7.83398 1.60659 7.60732 1.83325 7.33398 1.83325H6.00065C2.92732 1.83325 1.83398 2.92659 1.83398 5.99992V9.99992C1.83398 13.0733 2.92732 14.1666 6.00065 14.1666H10.0007C13.074 14.1666 14.1673 13.0733 14.1673 9.99992V8.66659C14.1673 8.39325 14.394 8.16659 14.6673 8.16659C14.9407 8.16659 15.1673 8.39325 15.1673 8.66659V9.99992C15.1673 13.6199 13.6207 15.1666 10.0007 15.1666Z"/>
</mask>
<path d="M10.0007 15.1666H6.00065C2.38065 15.1666 0.833984 13.6199 0.833984 9.99992V5.99992C0.833984 2.37992 2.38065 0.833252 6.00065 0.833252H7.33398C7.60732 0.833252 7.83398 1.05992 7.83398 1.33325C7.83398 1.60659 7.60732 1.83325 7.33398 1.83325H6.00065C2.92732 1.83325 1.83398 2.92659 1.83398 5.99992V9.99992C1.83398 13.0733 2.92732 14.1666 6.00065 14.1666H10.0007C13.074 14.1666 14.1673 13.0733 14.1673 9.99992V8.66659C14.1673 8.39325 14.394 8.16659 14.6673 8.16659C14.9407 8.16659 15.1673 8.39325 15.1673 8.66659V9.99992C15.1673 13.6199 13.6207 15.1666 10.0007 15.1666Z" fill="#6D727B"/>
<path d="M10.0007 14.1666H6.00065V16.1666H10.0007V14.1666ZM6.00065 14.1666C4.30544 14.1666 3.33383 13.8006 2.76692 13.2336C2.20002 12.6667 1.83398 11.6951 1.83398 9.99992H-0.166016C-0.166016 11.9247 0.241285 13.5364 1.35271 14.6479C2.46414 15.7593 4.07586 16.1666 6.00065 16.1666V14.1666ZM1.83398 9.99992V5.99992H-0.166016V9.99992H1.83398ZM1.83398 5.99992C1.83398 4.30471 2.20002 3.3331 2.76692 2.76619C3.33383 2.19928 4.30544 1.83325 6.00065 1.83325V-0.166748C4.07586 -0.166748 2.46414 0.240553 1.35271 1.35198C0.241285 2.4634 -0.166016 4.07513 -0.166016 5.99992H1.83398ZM6.00065 1.83325H7.33398V-0.166748H6.00065V1.83325ZM7.33398 1.83325C7.05503 1.83325 6.83398 1.6122 6.83398 1.33325H8.83398C8.83398 0.507634 8.1596 -0.166748 7.33398 -0.166748V1.83325ZM6.83398 1.33325C6.83398 1.0543 7.05503 0.833252 7.33398 0.833252V2.83325C8.1596 2.83325 8.83398 2.15887 8.83398 1.33325H6.83398ZM7.33398 0.833252H6.00065V2.83325H7.33398V0.833252ZM6.00065 0.833252C4.39343 0.833252 3.00596 1.10873 2.05771 2.05698C1.10946 3.00523 0.833984 4.3927 0.833984 5.99992H2.83398C2.83398 4.53381 3.10518 3.83794 3.47192 3.47119C3.83867 3.10444 4.53454 2.83325 6.00065 2.83325V0.833252ZM0.833984 5.99992V9.99992H2.83398V5.99992H0.833984ZM0.833984 9.99992C0.833984 11.6071 1.10946 12.9946 2.05771 13.9429C3.00596 14.8911 4.39343 15.1666 6.00065 15.1666V13.1666C4.53454 13.1666 3.83867 12.8954 3.47192 12.5286C3.10518 12.1619 2.83398 11.466 2.83398 9.99992H0.833984ZM6.00065 15.1666H10.0007V13.1666H6.00065V15.1666ZM10.0007 15.1666C11.6079 15.1666 12.9953 14.8911 13.9436 13.9429C14.8918 12.9946 15.1673 11.6071 15.1673 9.99992H13.1673C13.1673 11.466 12.8961 12.1619 12.5294 12.5286C12.1626 12.8954 11.4668 13.1666 10.0007 13.1666V15.1666ZM15.1673 9.99992V8.66659H13.1673V9.99992H15.1673ZM15.1673 8.66659C15.1673 8.94554 14.9463 9.16659 14.6673 9.16659V7.16659C13.8417 7.16659 13.1673 7.84097 13.1673 8.66659H15.1673ZM14.6673 9.16659C14.3884 9.16659 14.1673 8.94554 14.1673 8.66659H16.1673C16.1673 7.84097 15.4929 7.16659 14.6673 7.16659V9.16659ZM14.1673 8.66659V9.99992H16.1673V8.66659H14.1673ZM14.1673 9.99992C14.1673 11.6951 13.8013 12.6667 13.2344 13.2336C12.6675 13.8006 11.6959 14.1666 10.0007 14.1666V16.1666C11.9254 16.1666 13.5372 15.7593 14.6486 14.6479C15.76 13.5364 16.1673 11.9247 16.1673 9.99992H14.1673Z" fill="#6D727B" mask="url(#path-1-inside-1_8009_3223)"/>
</g>
<path id="Vector_2" d="M12.1833 1.1755C12.1246 1.18093 12.067 1.18949 12.0104 1.20089C12.1231 1.17655 12.2331 1.16504 12.3402 1.16504C12.567 1.16504 12.8063 1.21662 13.0582 1.33221C12.7728 1.20325 12.4823 1.14782 12.1833 1.1755ZM14.8181 3.81266C14.8762 3.18277 14.5516 2.60339 14.041 2.06883C14.6602 2.70805 14.8759 3.29127 14.8291 3.81946C14.7838 4.26541 14.5431 4.74953 13.9886 5.29787L13.9867 5.29982L8.73333 10.5532C8.65371 10.6328 8.54146 10.713 8.41776 10.7829C8.5248 10.7222 8.64052 10.6434 8.73089 10.5498L13.9804 5.30026C14.4443 4.83641 14.7688 4.34562 14.8181 3.8128L14.8181 3.81266ZM5.72238 11.2931C5.75092 11.2917 5.77914 11.2895 5.80691 11.2864C5.79863 11.2882 5.78478 11.2904 5.76169 11.2917C5.74946 11.2925 5.73684 11.2929 5.72238 11.2931Z" fill="#6D727B" stroke="#6D727B"/>
<path id="Vector_3" d="M13.233 6.55343C13.1864 6.55343 13.1397 6.54677 13.0997 6.53343C11.3464 6.0401 9.95305 4.64677 9.45971 2.89343C9.38638 2.62677 9.53971 2.35343 9.80638 2.27343C10.073 2.2001 10.3464 2.35343 10.4197 2.6201C10.8197 4.0401 11.9464 5.16677 13.3664 5.56677C13.633 5.6401 13.7864 5.9201 13.713 6.18677C13.653 6.41343 13.453 6.55343 13.233 6.55343Z" fill="#6D727B"/>
</g>
</g>
</svg>
