<svg width="368" height="353" viewBox="0 0 368 353" fill="none" xmlns="http://www.w3.org/2000/svg">
<path d="M337 168.5C337 261.56 261.56 337 168.5 337C75.44 337 0 261.56 0 168.5C0 75.44 75.44 0 168.5 0C261.56 0 337 75.44 337 168.5ZM20.0243 168.5C20.0243 250.501 86.4991 316.976 168.5 316.976C250.501 316.976 316.976 250.501 316.976 168.5C316.976 86.4991 250.501 20.0243 168.5 20.0243C86.4991 20.0243 20.0243 86.4991 20.0243 168.5Z" fill="#2196F3"/>
<path d="M352 153C352 167.912 339.912 180 325 180C310.088 180 298 167.912 298 153C298 138.088 310.088 126 325 126C339.912 126 352 138.088 352 153Z" fill="#4CAF50"/>
<path d="M95 46C95 60.9117 82.9117 73 68 73C53.0883 73 41 60.9117 41 46C41 31.0883 53.0883 19 68 19C82.9117 19 95 31.0883 95 46Z" fill="#4CAF50"/>
<path d="M137 310C137 324.912 124.912 337 110 337C95.0883 337 83 324.912 83 310C83 295.088 95.0883 283 110 283C124.912 283 137 295.088 137 310Z" fill="#4CAF50"/>
<path d="M95 46C95 60.9117 82.9117 73 68 73C53.0883 73 41 60.9117 41 46C41 31.0883 53.0883 19 68 19C82.9117 19 95 31.0883 95 46Z" fill="#4CAF50"/>
<path fill-rule="evenodd" clip-rule="evenodd" d="M111 46C111 69.7482 91.7482 89 68 89C44.2518 89 25 69.7482 25 46C25 22.2518 44.2518 3 68 3C91.7482 3 111 22.2518 111 46ZM68 73C82.9117 73 95 60.9117 95 46C95 31.0883 82.9117 19 68 19C53.0883 19 41 31.0883 41 46C41 60.9117 53.0883 73 68 73Z" fill="#FAFAFA"/>
<path d="M137 310C137 324.912 124.912 337 110 337C95.0883 337 83 324.912 83 310C83 295.088 95.0883 283 110 283C124.912 283 137 295.088 137 310Z" fill="#4CAF50"/>
<path fill-rule="evenodd" clip-rule="evenodd" d="M153 310C153 333.748 133.748 353 110 353C86.2518 353 67 333.748 67 310C67 286.252 86.2518 267 110 267C133.748 267 153 286.252 153 310ZM110 337C124.912 337 137 324.912 137 310C137 295.088 124.912 283 110 283C95.0883 283 83 295.088 83 310C83 324.912 95.0883 337 110 337Z" fill="#FAFAFA"/>
<path d="M352 153C352 167.912 339.912 180 325 180C310.088 180 298 167.912 298 153C298 138.088 310.088 126 325 126C339.912 126 352 138.088 352 153Z" fill="#4CAF50"/>
<path fill-rule="evenodd" clip-rule="evenodd" d="M368 153C368 176.748 348.748 196 325 196C301.252 196 282 176.748 282 153C282 129.252 301.252 110 325 110C348.748 110 368 129.252 368 153ZM325 180C339.912 180 352 167.912 352 153C352 138.088 339.912 126 325 126C310.088 126 298 138.088 298 153C298 167.912 310.088 180 325 180Z" fill="#FAFAFA"/>
<path d="M118.034 157.475L94 103H102.427L124.511 153.273H119.673L141.912 103H149.715L125.759 157.475H118.034Z" fill="#607D8B"/>
<path d="M154.242 157.475V103H162.045V157.475H154.242Z" fill="#607D8B"/>
<path d="M174.526 126.502H202.618V133.117H174.526V126.502ZM175.228 150.704H207.066V157.475H167.425V103H205.973V109.77H175.228V150.704Z" fill="#607D8B"/>
<path d="M230.547 157.475V109.77H211.819V103H257V109.77H238.272V157.475H230.547Z" fill="#607D8B"/>
<path d="M102.271 233.377V178.903H123.574C128.36 178.903 132.444 179.655 135.825 181.159C139.207 182.664 141.808 184.843 143.628 187.696C145.449 190.55 146.36 193.948 146.36 197.891C146.36 201.834 145.449 205.232 143.628 208.086C141.808 210.887 139.207 213.066 135.825 214.623C132.444 216.127 128.36 216.879 123.574 216.879H106.563L110.075 213.222V233.377H102.271ZM110.075 214L106.563 210.109H123.34C128.334 210.109 132.106 209.045 134.655 206.918C137.256 204.791 138.556 201.782 138.556 197.891C138.556 194 137.256 190.991 134.655 188.864C132.106 186.737 128.334 185.673 123.34 185.673H106.563L110.075 181.782V214Z" fill="#607D8B"/>
<path d="M179.586 234C175.424 234 171.549 233.3 167.959 231.899C164.422 230.498 161.353 228.553 158.751 226.062C156.15 223.52 154.122 220.563 152.665 217.191C151.208 213.818 150.48 210.135 150.48 206.14C150.48 202.145 151.208 198.462 152.665 195.089C154.122 191.717 156.15 188.786 158.751 186.296C161.353 183.753 164.422 181.782 167.959 180.381C171.497 178.98 175.372 178.28 179.586 178.28C183.748 178.28 187.571 178.98 191.057 180.381C194.594 181.73 197.663 183.676 200.265 186.218C202.918 188.708 204.946 191.639 206.351 195.012C207.808 198.384 208.536 202.093 208.536 206.14C208.536 210.187 207.808 213.896 206.351 217.268C204.946 220.641 202.918 223.598 200.265 226.14C197.663 228.63 194.594 230.576 191.057 231.977C187.571 233.326 183.748 234 179.586 234ZM179.586 227.074C182.603 227.074 185.386 226.555 187.935 225.517C190.537 224.48 192.773 223.027 194.646 221.159C196.571 219.24 198.054 217.009 199.094 214.467C200.187 211.925 200.733 209.149 200.733 206.14C200.733 203.131 200.187 200.355 199.094 197.813C198.054 195.271 196.571 193.066 194.646 191.198C192.773 189.279 190.537 187.8 187.935 186.763C185.386 185.725 182.603 185.206 179.586 185.206C176.517 185.206 173.682 185.725 171.081 186.763C168.531 187.8 166.295 189.279 164.37 191.198C162.445 193.066 160.936 195.271 159.844 197.813C158.803 200.355 158.283 203.131 158.283 206.14C158.283 209.149 158.803 211.925 159.844 214.467C160.936 217.009 162.445 219.24 164.37 221.159C166.295 223.027 168.531 224.48 171.081 225.517C173.682 226.555 176.517 227.074 179.586 227.074Z" fill="#607D8B"/>
<path d="M224.451 233.377V185.673H205.723V178.903H250.904V185.673H232.176V233.377H224.451Z" fill="#607D8B"/>
</svg>
