<svg width="368" height="353" viewBox="0 0 368 353" fill="none" xmlns="http://www.w3.org/2000/svg">
<path d="M337 168.5C337 261.56 261.56 337 168.5 337C75.44 337 0 261.56 0 168.5C0 75.44 75.44 0 168.5 0C261.56 0 337 75.44 337 168.5ZM20.0243 168.5C20.0243 250.501 86.4991 316.976 168.5 316.976C250.501 316.976 316.976 250.501 316.976 168.5C316.976 86.4991 250.501 20.0243 168.5 20.0243C86.4991 20.0243 20.0243 86.4991 20.0243 168.5Z" fill="#2196F3"/>
<path d="M352 153C352 167.912 339.912 180 325 180C310.088 180 298 167.912 298 153C298 138.088 310.088 126 325 126C339.912 126 352 138.088 352 153Z" fill="#4CAF50"/>
<path d="M95 46C95 60.9117 82.9117 73 68 73C53.0883 73 41 60.9117 41 46C41 31.0883 53.0883 19 68 19C82.9117 19 95 31.0883 95 46Z" fill="#4CAF50"/>
<path d="M137 310C137 324.912 124.912 337 110 337C95.0883 337 83 324.912 83 310C83 295.088 95.0883 283 110 283C124.912 283 137 295.088 137 310Z" fill="#4CAF50"/>
<path d="M95 46C95 60.9117 82.9117 73 68 73C53.0883 73 41 60.9117 41 46C41 31.0883 53.0883 19 68 19C82.9117 19 95 31.0883 95 46Z" fill="#4CAF50"/>
<path fill-rule="evenodd" clip-rule="evenodd" d="M111 46C111 69.7482 91.7482 89 68 89C44.2518 89 25 69.7482 25 46C25 22.2518 44.2518 3 68 3C91.7482 3 111 22.2518 111 46ZM68 73C82.9117 73 95 60.9117 95 46C95 31.0883 82.9117 19 68 19C53.0883 19 41 31.0883 41 46C41 60.9117 53.0883 73 68 73Z" fill="white"/>
<path d="M137 310C137 324.912 124.912 337 110 337C95.0883 337 83 324.912 83 310C83 295.088 95.0883 283 110 283C124.912 283 137 295.088 137 310Z" fill="#4CAF50"/>
<path fill-rule="evenodd" clip-rule="evenodd" d="M153 310C153 333.748 133.748 353 110 353C86.2518 353 67 333.748 67 310C67 286.252 86.2518 267 110 267C133.748 267 153 286.252 153 310ZM110 337C124.912 337 137 324.912 137 310C137 295.088 124.912 283 110 283C95.0883 283 83 295.088 83 310C83 324.912 95.0883 337 110 337Z" fill="white"/>
<path d="M352 153C352 167.912 339.912 180 325 180C310.088 180 298 167.912 298 153C298 138.088 310.088 126 325 126C339.912 126 352 138.088 352 153Z" fill="#4CAF50"/>
<path fill-rule="evenodd" clip-rule="evenodd" d="M368 153C368 176.748 348.748 196 325 196C301.252 196 282 176.748 282 153C282 129.252 301.252 110 325 110C348.748 110 368 129.252 368 153ZM325 180C339.912 180 352 167.912 352 153C352 138.088 339.912 126 325 126C310.088 126 298 138.088 298 153C298 167.912 310.088 180 325 180Z" fill="white"/>
</svg>
