<svg width="100" height="100" viewBox="0 0 100 100" fill="none" xmlns="http://www.w3.org/2000/svg">
<path d="M60.1917 48.4977C60.2056 46.7053 59.7569 44.9395 58.8889 43.3711C58.0209 41.8028 56.763 40.4848 55.2367 39.5448C53.7105 38.6047 51.9675 38.0742 50.1763 38.0047C48.3851 37.9351 46.6063 38.3288 45.0117 39.1478L54.3717 57.8477C56.1161 56.9856 57.5852 55.6536 58.6134 54.0017C59.6417 52.3498 60.1883 50.4436 60.1917 48.4977Z" fill="url(#paint0_linear_646_14470)"/>
<path d="M39.1917 48.4978C39.1778 50.2903 39.6265 52.0561 40.4945 53.6244C41.3625 55.1928 42.6205 56.5107 44.1467 57.4508C45.673 58.3909 47.4159 58.9214 49.2071 58.9909C50.9983 59.0604 52.7772 58.6667 54.3717 57.8478L45.0117 39.1478C43.2673 40.0099 41.7983 41.342 40.77 42.9939C39.7418 44.6458 39.1951 46.552 39.1917 48.4978Z" fill="#3FDDFE"/>
<path d="M95.1918 48.4979C95.2034 40.7404 93.2284 33.1092 89.4549 26.3314C85.6814 19.5535 80.2352 13.8548 73.6351 9.77833C67.0351 5.70182 59.5012 3.38326 51.7511 3.04358C44.0011 2.7039 36.2932 4.35441 29.3618 7.83785L34.0518 17.2179C38.1805 14.9431 42.7262 13.5258 47.4161 13.051C52.106 12.5762 56.8435 13.0537 61.3444 14.4548C65.8452 15.8559 70.0167 18.1517 73.6084 21.2046C77.2002 24.2574 80.1383 28.0043 82.2464 32.2206C84.3545 36.4368 85.5892 41.0354 85.8764 45.7405C86.1636 50.4457 85.4974 55.1603 83.9178 59.6017C82.3382 64.043 79.8776 68.1195 76.6839 71.5865C73.4901 75.0536 69.6288 77.8397 65.3318 79.7779L70.0218 89.1579C77.5804 85.3879 83.9392 79.5867 88.3851 72.4048C92.8309 65.2229 95.188 56.9444 95.1918 48.4979Z" fill="url(#paint1_linear_646_14470)"/>
<path d="M49.6917 83.4978C41.8174 83.4838 34.1778 80.8149 28.0078 75.9224C21.8378 71.03 17.4978 64.1998 15.6894 56.536C13.881 48.8721 14.7097 40.8223 18.0417 33.6877C21.3737 26.5531 27.0143 20.7505 34.0517 17.2178L29.3617 7.83777C23.9874 10.4868 19.1897 14.172 15.2447 18.6816C11.2996 23.1913 8.28492 28.4363 6.37399 34.1151C4.46307 39.7939 3.6936 45.7944 4.10983 51.7716C4.52606 57.7488 6.11978 63.5848 8.79934 68.9439C11.4789 74.3031 15.1915 79.0796 19.7235 82.9989C24.2555 86.9183 29.5176 89.903 35.2072 91.7815C40.8968 93.6601 46.9016 94.3953 52.8764 93.9451C58.8511 93.4948 64.6779 91.8678 70.0217 89.1578L65.3317 79.7778C60.4802 82.2215 55.1239 83.4955 49.6917 83.4978Z" fill="#3FDDFE"/>
<path d="M49.6917 65.9978C45.7493 66.0116 41.9184 64.69 38.8231 62.2483C35.7278 59.8066 33.5506 56.3888 32.6461 52.5515C31.7415 48.7142 32.1631 44.6838 33.842 41.1167C35.5209 37.5496 38.3582 34.6562 41.8917 32.9078L37.1917 23.4778C33.6829 24.9795 30.5181 27.1827 27.8918 29.952C25.2655 32.7214 23.233 35.9985 21.9193 39.582C20.6057 43.1654 20.0385 46.9797 20.2526 50.7903C20.4667 54.601 21.4577 58.3276 23.1645 61.7414C24.8714 65.1551 27.2582 68.1839 30.1782 70.6416C33.0983 73.0993 36.49 74.9341 40.145 76.0332C43.7999 77.1323 47.6411 77.4726 51.4324 77.0332C55.2237 76.5937 58.8851 75.3838 62.1917 73.4778L57.4917 64.0878C55.0769 65.3257 52.4053 65.9799 49.6917 65.9978Z" fill="#3FDDFE"/>
<path d="M77.6919 48.4978C77.6859 43.73 76.4627 39.0428 74.1379 34.8802C71.8132 30.7176 68.4641 27.2176 64.408 24.7118C60.3518 22.206 55.723 20.7774 50.9601 20.5615C46.1973 20.3455 41.4582 21.3493 37.1919 23.4778L41.9019 32.9078C43.9492 31.8841 46.1781 31.2738 48.4613 31.1115C50.7445 30.9492 53.0373 31.2383 55.2088 31.9621C57.3803 32.6859 59.388 33.8304 61.1172 35.3301C62.8464 36.8298 64.2632 38.6555 65.2869 40.7028C66.3106 42.7501 66.9209 44.979 67.0832 47.2622C67.2455 49.5454 66.9564 51.8382 66.2326 54.0097C65.5088 56.1812 64.3643 58.1889 62.8646 59.9181C61.3648 61.6473 59.5392 63.0641 57.4919 64.0878L62.1919 73.5178C66.8433 71.1972 70.7569 67.6275 73.4945 63.2086C76.232 58.7897 77.6854 53.696 77.6919 48.4978Z" fill="url(#paint2_linear_646_14470)"/>
<path d="M49.6919 48.4978V97.4978H25.1919L49.6919 48.4978Z" fill="#240065"/>
<path d="M49.6919 48.4978V97.4978H74.1919L49.6919 48.4978Z" fill="url(#paint3_linear_646_14470)"/>
<defs>
<linearGradient id="paint0_linear_646_14470" x1="51.8717" y1="57.0077" x2="52.8117" y2="40.2177" gradientUnits="userSpaceOnUse">
<stop stop-color="#4D7FFD"/>
<stop offset="1" stop-color="#3FDDFE"/>
</linearGradient>
<linearGradient id="paint1_linear_646_14470" x1="3916.63" y1="-165.869" x2="3602.3" y2="6656.98" gradientUnits="userSpaceOnUse">
<stop stop-color="#4D7FFD"/>
<stop offset="1" stop-color="#3FDDFE"/>
</linearGradient>
<linearGradient id="paint2_linear_646_14470" x1="2244.04" y1="-91.7956" x2="2050.81" y2="4104.11" gradientUnits="userSpaceOnUse">
<stop stop-color="#4D7FFD"/>
<stop offset="1" stop-color="#3FDDFE"/>
</linearGradient>
<linearGradient id="paint3_linear_646_14470" x1="61.8919" y1="95.8378" x2="60.4919" y2="52.5878" gradientUnits="userSpaceOnUse">
<stop stop-color="#240065"/>
<stop offset="1" stop-color="#4D7FFD"/>
</linearGradient>
</defs>
</svg>
