<svg width="100" height="100" viewBox="0 0 100 100" fill="none" xmlns="http://www.w3.org/2000/svg">
<path d="M13.8571 49.9999C13.8571 44.4967 15.13 39.2984 17.3394 34.625L11.4749 28.7604C7.99257 35.0587 6 42.2936 6 49.9999C6 62.1501 10.9249 73.1501 18.8889 81.111L24.4549 75.545C17.9114 69.0016 13.8571 59.9659 13.8571 49.9999Z" fill="#240065"/>
<path d="M94.0001 49.9999C94.0001 37.8496 89.0753 26.8496 81.1113 18.8887L75.5453 24.4547C82.0887 30.9982 86.143 40.0339 86.143 49.9999C86.143 64.4256 77.6259 76.8682 65.375 82.6604L71.2396 88.525C84.8073 81.0324 94.0001 66.5942 94.0001 49.9999Z" fill="url(#paint0_linear_646_14439)"/>
<path d="M49.9998 86.1429C40.0338 86.1429 30.9981 82.0887 24.4547 75.5452L18.8887 81.1112C26.8495 89.0752 37.8495 94.0001 49.9998 94.0001C57.7061 94.0001 64.941 92.0075 71.2392 88.5252L65.3747 82.6607C60.7012 84.8701 55.503 86.1429 49.9998 86.1429Z" fill="url(#paint1_linear_646_14439)"/>
<path d="M50.0002 13.8571C59.9662 13.8571 69.002 17.9114 75.5454 24.4549L81.1114 18.8889C73.1505 10.9249 62.1505 6 50.0002 6C33.406 6 18.9677 15.1929 11.4751 28.7606L17.3397 34.6251C23.132 22.3743 35.5745 13.8571 50.0002 13.8571Z" fill="url(#paint2_linear_646_14439)"/>
<path d="M62.5714 42.1428V54.9185V72.7857C62.5714 74.0868 61.5154 75.1428 60.2142 75.1428C58.9131 75.1428 57.8571 74.0868 57.8571 72.7857V59.4285H57.6528C55.1637 59.4285 53.1428 57.4077 53.1428 54.9185V46.8571L46.2285 53.7714V63.5142L63.0239 80.3097C74.7594 75.2465 82.9999 63.5708 82.9999 50C82.9999 40.9014 79.2977 32.6514 73.3231 26.6768L62.5714 37.4285V42.1428Z" fill="url(#paint3_linear_646_14439)"/>
<path d="M26.6769 73.323L41.2 58.7999V58.4856L19.6903 36.9759C17.9649 40.9736 17 45.3767 17 49.9999C17 59.0985 20.7023 67.3485 26.6769 73.323Z" fill="url(#paint4_linear_646_14439)"/>
<path d="M41.2001 42.9286H39.9493C38.557 42.9286 37.4287 41.8003 37.4287 40.408V39.1571V35.3857V26.5857C37.4287 25.8911 37.9913 25.3286 38.6859 25.3286C39.3804 25.3286 39.943 25.8911 39.943 26.5857V35.3857H42.4573V26.5857C42.4573 25.8911 43.0199 25.3286 43.7144 25.3286C44.409 25.3286 44.9716 25.8911 44.9716 26.5857V35.3857H47.4859V26.5857C47.4859 25.8911 48.0484 25.3286 48.743 25.3286C49.4376 25.3286 50.0001 25.8911 50.0001 26.5857V35.3857V39.1571V40.408C50.0001 41.8003 48.8719 42.9286 47.4796 42.9286H46.2287V53.7714L53.143 46.8571V29.8386C53.143 27.3463 55.1639 25.3286 57.653 25.3286H58.0584C60.5507 25.3286 62.5716 27.3494 62.5716 29.8386V37.4286L73.3233 26.6769C67.3487 20.7023 59.0987 17 50.0001 17C36.4293 17 24.7536 25.2406 19.6904 36.976L41.2001 58.4857V42.9286Z" fill="#3FDDFE"/>
<path d="M46.2285 72.6287C46.2285 74.0178 45.1033 75.143 43.7142 75.143C42.325 75.143 41.1999 74.0178 41.1999 72.6287V58.8001L26.6768 73.3233C32.6513 79.2978 40.9013 83.0001 49.9999 83.0001C54.623 83.0001 59.0262 82.0352 63.0239 80.3098L46.2285 63.5144V72.6287Z" fill="url(#paint5_linear_646_14439)"/>
<defs>
<linearGradient id="paint0_linear_646_14439" x1="101.59" y1="24.4092" x2="31.3014" y2="110.673" gradientUnits="userSpaceOnUse">
<stop stop-color="#240065"/>
<stop offset="1" stop-color="#4D7FFD"/>
</linearGradient>
<linearGradient id="paint1_linear_646_14439" x1="97.2011" y1="20.8331" x2="26.9121" y2="107.097" gradientUnits="userSpaceOnUse">
<stop stop-color="#240065"/>
<stop offset="1" stop-color="#4D7FFD"/>
</linearGradient>
<linearGradient id="paint2_linear_646_14439" x1="94.4324" y1="10.7859" x2="9.48881" y2="23.7436" gradientUnits="userSpaceOnUse">
<stop stop-color="#240065"/>
<stop offset="1" stop-color="#4D7FFD"/>
</linearGradient>
<linearGradient id="paint3_linear_646_14439" x1="66.8309" y1="87.9993" x2="63.3345" y2="37.8035" gradientUnits="userSpaceOnUse">
<stop stop-color="#4D7FFD"/>
<stop offset="0.94" stop-color="#3FDDFE"/>
</linearGradient>
<linearGradient id="paint4_linear_646_14439" x1="56.6905" y1="16.756" x2="16.6599" y2="64.2392" gradientUnits="userSpaceOnUse">
<stop stop-color="#4D7FFD"/>
<stop offset="0.94" stop-color="#3FDDFE"/>
</linearGradient>
<linearGradient id="paint5_linear_646_14439" x1="45.7316" y1="89.4691" x2="42.2355" y2="39.2732" gradientUnits="userSpaceOnUse">
<stop stop-color="#4D7FFD"/>
<stop offset="0.94" stop-color="#3FDDFE"/>
</linearGradient>
</defs>
</svg>
