<svg width="100" height="100" viewBox="0 0 100 100" fill="none" xmlns="http://www.w3.org/2000/svg">
<path d="M94 56.9565H87.851H85.6785H85.6702H69.25L63.75 65.3043H36.25L32.95 60.2956L11.5 82H94V56.9565Z" fill="url(#paint0_linear_646_14508)"/>
<path d="M30.75 56.9565H14.3215H12.149H6V82H11.5L32.95 60.2956L30.75 56.9565Z" fill="url(#paint1_linear_646_14508)"/>
<path d="M32.9502 60.2957L36.2502 65.3044H63.7502L69.2502 56.9566H85.6705L69.198 23.6182L32.9502 60.2957Z" fill="url(#paint2_linear_646_14508)"/>
<path d="M69.17 23.5652H30.8213L14.3213 56.9565H30.7498L32.9498 60.2956L69.1975 23.6181L69.17 23.5652Z" fill="#240065"/>
<path d="M85.6784 56.9565H87.8509H93.9999L74.7499 18L69.2031 23.6125L85.6784 56.9565Z" fill="url(#paint3_linear_646_14508)"/>
<path d="M14.3215 56.9565L30.8215 23.5652H69.1702H69.1785L69.2033 23.6125L74.75 18H25.25L6 56.9565H12.149H14.3215Z" fill="#3FDDFE"/>
<defs>
<linearGradient id="paint0_linear_646_14508" x1="5.10872" y1="68.6565" x2="91.0476" y2="70.1043" gradientUnits="userSpaceOnUse">
<stop stop-color="#4D7FFD"/>
<stop offset="0.9384" stop-color="#3FDDFE"/>
</linearGradient>
<linearGradient id="paint1_linear_646_14508" x1="5.09882" y1="69.2492" x2="91.0375" y2="70.697" gradientUnits="userSpaceOnUse">
<stop stop-color="#4D7FFD"/>
<stop offset="0.9384" stop-color="#3FDDFE"/>
</linearGradient>
<linearGradient id="paint2_linear_646_14508" x1="34.0004" y1="44.3517" x2="83.9383" y2="44.6387" gradientUnits="userSpaceOnUse">
<stop stop-color="#240065"/>
<stop offset="1" stop-color="#4D7FFD"/>
</linearGradient>
<linearGradient id="paint3_linear_646_14508" x1="93.597" y1="64.1504" x2="69.2252" y2="16.7082" gradientUnits="userSpaceOnUse">
<stop stop-color="#4D7FFD"/>
<stop offset="0.9384" stop-color="#3FDDFE"/>
</linearGradient>
</defs>
</svg>
