<svg width="100" height="100" viewBox="0 0 100 100" fill="none" xmlns="http://www.w3.org/2000/svg">
<path d="M96 21.6364H3L49.5 67.7273L96 21.6364Z" fill="#3FDDFE"/>
<path d="M85.2692 85.4545H13.7307V14.5455C13.7307 12.5884 15.3332 11 17.3076 11H81.6922C83.6667 11 85.2692 12.5884 85.2692 14.5455V85.4545Z" fill="url(#paint0_linear_646_14367)"/>
<path d="M96.0001 21.6364L49.5001 67.7273L28.0386 89H88.8498C92.7988 89 96.0001 85.8268 96.0001 81.9126V21.6364Z" fill="url(#paint1_linear_646_14367)"/>
<path d="M49.5 67.7273L3 21.6364V81.9126C3 85.8268 6.20135 89 10.1503 89H28.0385L49.5 67.7273Z" fill="#240065"/>
<defs>
<linearGradient id="paint0_linear_646_14367" x1="50.1731" y1="10.6951" x2="49.0577" y2="76.9508" gradientUnits="userSpaceOnUse">
<stop stop-color="#4D7FFD"/>
<stop offset="1" stop-color="#3FDDFE"/>
</linearGradient>
<linearGradient id="paint1_linear_646_14367" x1="24.4617" y1="55.3182" x2="96.0001" y2="55.3182" gradientUnits="userSpaceOnUse">
<stop stop-color="#240065"/>
<stop offset="1" stop-color="#4D7FFD"/>
</linearGradient>
</defs>
</svg>
