<svg width="100" height="100" viewBox="0 0 100 100" fill="none" xmlns="http://www.w3.org/2000/svg">
<path d="M0 35.7967L9.09122 44.9253C31.6812 22.2425 68.3188 22.2425 90.9088 44.9253L100 35.7967C72.3863 8.06954 27.6137 8.06954 0 35.7967Z" fill="url(#paint0_linear_646_14462)"/>
<path d="M36.3647 72.3072L50.0016 86.0001L63.6384 72.3072C56.1129 64.7542 43.8869 64.7542 36.3647 72.3072Z" fill="url(#paint1_linear_646_14462)"/>
<path d="M18.1826 54.0499L27.2738 63.1785C39.8197 50.5811 60.184 50.5811 72.7265 63.1785L81.8178 54.0499C64.2481 36.4115 35.7489 36.4115 18.1826 54.0499Z" fill="url(#paint2_linear_646_14462)"/>
<defs>
<linearGradient id="paint0_linear_646_14462" x1="49.8525" y1="43.3265" x2="50.2952" y2="20.8358" gradientUnits="userSpaceOnUse">
<stop stop-color="#4D7FFD"/>
<stop offset="1" stop-color="#3FDDFE"/>
</linearGradient>
<linearGradient id="paint1_linear_646_14462" x1="36.3631" y1="76.3214" x2="63.6357" y2="76.3214" gradientUnits="userSpaceOnUse">
<stop stop-color="#240065"/>
<stop offset="1" stop-color="#4D7FFD"/>
</linearGradient>
<linearGradient id="paint2_linear_646_14462" x1="49.9995" y1="68.3172" x2="49.9995" y2="11.7708" gradientUnits="userSpaceOnUse">
<stop stop-color="#240065"/>
<stop offset="0.0114" stop-color="#25046A"/>
<stop offset="0.1108" stop-color="#302591"/>
<stop offset="0.2175" stop-color="#3941B2"/>
<stop offset="0.3309" stop-color="#4057CE"/>
<stop offset="0.4536" stop-color="#4669E3"/>
<stop offset="0.5901" stop-color="#4A75F2"/>
<stop offset="0.7514" stop-color="#4C7DFA"/>
<stop offset="1" stop-color="#4D7FFD"/>
</linearGradient>
</defs>
</svg>
