<svg xmlns="http://www.w3.org/2000/svg" xmlns:xlink="http://www.w3.org/1999/xlink" viewBox="0 0 639.21 107.2"><defs><style>.cls-1,.cls-6{fill:#003a70;}.cls-2{fill:url(#linear-gradient);}.cls-3{fill:url(#New_Gradient_Swatch_39);}.cls-4{fill:url(#New_Gradient_Swatch_38);}.cls-5{fill:url(#New_Gradient_Swatch_37);}.cls-6{font-size:22.7px;font-family:Arial-BoldMT, Arial;font-weight:700;}.cls-7{letter-spacing:-0.02em;}</style><linearGradient id="linear-gradient" x1="-152.53" y1="-12.2" x2="-94.37" y2="-61.14" gradientTransform="translate(158.23 57.44) rotate(-4.92)" gradientUnits="userSpaceOnUse"><stop offset="0" stop-color="#f8f2e5"/><stop offset="0.07" stop-color="#f5eddb"/><stop offset="0.18" stop-color="#eedfc1"/><stop offset="0.29" stop-color="#e5d0a3"/><stop offset="0.49" stop-color="#c4ac6d"/><stop offset="0.59" stop-color="#b09857"/><stop offset="0.76" stop-color="#957c3a"/><stop offset="0.9" stop-color="#856b27"/><stop offset="1" stop-color="#7f6521"/></linearGradient><linearGradient id="New_Gradient_Swatch_39" x1="15.93" y1="51.69" x2="43.09" y2="18.24" gradientUnits="userSpaceOnUse"><stop offset="0" stop-color="#d9b975"/><stop offset="0.16" stop-color="#ba9b57"/><stop offset="0.29" stop-color="#a68843"/><stop offset="0.38" stop-color="#9f813c"/><stop offset="0.7" stop-color="#e5d0a3"/><stop offset="0.75" stop-color="#dec898"/><stop offset="0.83" stop-color="#cab17a"/><stop offset="0.93" stop-color="#aa8d4b"/><stop offset="1" stop-color="#937329"/></linearGradient><linearGradient id="New_Gradient_Swatch_38" x1="-3.07" y1="44.74" x2="37.65" y2="45.71" gradientTransform="matrix(1, -0.02, 0.02, 1, 17.3, -15.31)" gradientUnits="userSpaceOnUse"><stop offset="0.11" stop-color="#fff"/><stop offset="0.11" stop-color="#fffefb"/><stop offset="0.14" stop-color="#fbf3cd"/><stop offset="0.16" stop-color="#f8eaaa"/><stop offset="0.19" stop-color="#f6e490"/><stop offset="0.21" stop-color="#f4e080"/><stop offset="0.23" stop-color="#f4df7b"/><stop offset="0.24" stop-color="#f3de77"/><stop offset="0.26" stop-color="#f1d969"/><stop offset="0.28" stop-color="#ecd253"/><stop offset="0.3" stop-color="#e7c835"/><stop offset="0.3" stop-color="#e4c327"/><stop offset="0.3" stop-color="#e4c328"/><stop offset="0.34" stop-color="#e6c849"/><stop offset="0.37" stop-color="#e8cb5d"/><stop offset="0.4" stop-color="#e8cc64"/><stop offset="0.41" stop-color="#e9cf6f"/><stop offset="0.44" stop-color="#ecd78d"/><stop offset="0.47" stop-color="#f1e4bc"/><stop offset="0.49" stop-color="#f4ecdb"/><stop offset="0.51" stop-color="#f5eedf"/><stop offset="0.61" stop-color="#fcfbf7"/><stop offset="0.67" stop-color="#fff"/></linearGradient><linearGradient id="New_Gradient_Swatch_37" x1="25.72" y1="49.61" x2="56.15" y2="8.84" gradientTransform="matrix(0.99, -0.01, 0.01, 1.01, -8.82, -1.47)" gradientUnits="userSpaceOnUse"><stop offset="0.14" stop-color="#fff"/><stop offset="0.21" stop-color="#fffefd"/><stop offset="0.24" stop-color="#fefdf6"/><stop offset="0.27" stop-color="#fdf9e9"/><stop offset="0.29" stop-color="#fbf5d7"/><stop offset="0.3" stop-color="#f9efc0"/><stop offset="0.32" stop-color="#f7e7a4"/><stop offset="0.33" stop-color="#f5e28f"/><stop offset="0.42" stop-color="#e8ca51"/><stop offset="0.43" stop-color="#e8cb5c"/><stop offset="0.48" stop-color="#e6cd83"/><stop offset="0.53" stop-color="#eddcac"/><stop offset="0.59" stop-color="#f4ecdb"/><stop offset="0.61" stop-color="#f9f4eb"/><stop offset="0.64" stop-color="#fcfaf6"/><stop offset="0.68" stop-color="#fefefd"/><stop offset="0.79" stop-color="#fff"/></linearGradient></defs><title>Asset 7</title><g id="Layer_2" data-name="Layer 2"><g id="Layer_1-2" data-name="Layer 1"><path class="cls-1" d="M42,99.86v-2a8.65,8.65,0,0,0,6.17-3.1q2.05-2.62,7-14.4L77.42,28h2.12L106.12,88.5q2.66,6,4.25,7.44t5.34,1.94v2H88.58v-2a24.67,24.67,0,0,0,6-1c.9-.4,1.35-1.38,1.35-2.93a12.61,12.61,0,0,0-.52-2.75A31,31,0,0,0,94,87L89.71,76.78H61.6q-4.16,10.47-5,12.78a11.75,11.75,0,0,0-.81,3.65A3.76,3.76,0,0,0,58,96.94a17.25,17.25,0,0,0,5.09.94v2Zm45.94-27.4L75.69,43.08,63.4,72.46Z"/><path class="cls-1" d="M113,29.28h60.32l.57,18.12h-2.55q-1.87-8.53-4.77-11.12T154.44,33.7H148.5V88.29q0,6.17,1.93,7.64t8.44,1.95v2h-31.1v-2q6.77-.52,8.44-2.23T137.87,87V33.7h-6q-8.85,0-12,2.56T115,47.4H112.4Z"/><path class="cls-1" d="M182.64,97.88c3.92-.42,6.47-1.12,7.63-2.1S192,92.3,192,88.29V40.84c0-3.79-.58-6.26-1.72-7.42s-3.7-1.89-7.66-2.17v-2h56.67l.37,15.26H237q-1.36-7-4.06-9.13t-12.09-2.07H206.3c-1.57,0-2.54.25-2.9.75a5.14,5.14,0,0,0-.55,2.84V60.74h16.46c4.55,0,7.45-.68,8.7-2s2.26-4.08,3-8.19h2.5V75.17H231C230.23,71,229.21,68.3,228,67s-4.14-2-8.65-2H202.85v26.4c0,2.12.67,3.37,2,3.76s5.34.57,12,.57q10.86,0,16-2.37t9.28-11.49h3l-4.84,18H182.64Z"/><path class="cls-2" d="M42.7,30.68c.63-.1,1.25-.22,1.87-.35C56.75,27.68,66.14,19,66.14,19a32.92,32.92,0,0,0-20.88-1q-1.14.32-2.22.69C53.41,9.22,54.34,0,54.34,0c-9.1,3.94-14.92,8.57-18.81,13,1.93-8.77-3.31-12-3.31-12h0s-6.74,7.48-7.75,15.46c-2.34-2.13-6.14-3.23-12.28-1.76,0,0-1.8,7.7,3.64,11.5-.53.1-1.06.23-1.61.38-4,1.1-8.72,3.62-14.21,8.75,0,0,3.48,3.95,11.27,2.26.44-.1.89-.21,1.35-.34A43.71,43.71,0,0,0,1.69,54.84s9.14-1.44,17.69-11.33c-1.5,5.51-2.47,12.6,1.95,20.37h0c7.54-8.85,9.32-16.51,9.71-22.41,6.92,8.47,20.63,7.16,20.63,7.16C51,38.39,46.89,33.27,42.7,30.68Z"/><path class="cls-3" d="M21.47,63.47c-4.07-7.55-3-14.37-1.63-19.51l.5-1.81-1.23,1.42c-7,8.06-14.39,10.45-16.7,11A43.51,43.51,0,0,1,13,37.88l1.26-1.2-1.67.48c-.44.13-.89.24-1.32.33a17.51,17.51,0,0,1-3.64.41A10.52,10.52,0,0,1,.68,35.66c4.7-4.32,9.3-7.13,13.7-8.34.52-.15,1-.27,1.57-.38l1-.19-.83-.58c-4.6-3.21-3.76-9.45-3.52-10.8a22,22,0,0,1,4.78-.59,9.81,9.81,0,0,1,6.85,2.32l.61.55.11-.82c.86-6.89,6.18-13.5,7.39-14.94,1,.82,4.43,4.07,2.82,11.31l-.35,1.6,1.09-1.23A52.35,52.35,0,0,1,53.84,1.05c-.48,2.37-2.61,10-11,17.64l-1.54,1.4,2-.68c.71-.24,1.44-.47,2.19-.68a33,33,0,0,1,8.74-1.21,33.79,33.79,0,0,1,11.2,2C63.21,21.34,54.83,28,44.53,30.25c-.62.14-1.23.25-1.84.35l-1.13.18,1,.61c5.14,3.19,8.09,9,8.74,17.19-.34,0-.87,0-1.55,0-3.76,0-13.07-.68-18.3-7.07l-.68-.84-.07,1.08c-.32,5-1.63,12.59-9.21,21.69Z"/><path class="cls-4" d="M51,16.85c-3.13,0-17.11,3.83-17.11,3.83L30.88,8,24.23,23.66s-9.57,2.71-13.67,4.75l9.25,5.49L10.83,51c4.8-2.65,15.83-12.87,15.83-12.87h0s8.16,8.15,13.95,9.39L35.93,29.78Z"/><path class="cls-5" d="M50.07,16.92c-5.2.33-16.77,3.46-16.77,3.46L30.88,8,23.69,23.25s-9.61,2.88-13.64,4.87l9.19,5.27L10.7,51C15.4,48.44,25.84,37.6,25.84,37.6h0s7.73,8,13.48,9.44L35,29.44Z"/><text class="cls-6" transform="translate(295.72 44.65)">HIỆ<tspan class="cls-7" x="37.84" y="0">P</tspan><tspan x="52.57" y="0" xml:space="preserve"> HỘI CÁC DOANH NGHIỆ</tspan><tspan class="cls-7" x="322.46" y="0">P</tspan><tspan x="337.19" y="0"> </tspan><tspan x="0" y="27">ỨNG DỤNG CÔNG NGHỆ CAO </tspan><tspan x="0" y="54">TRONG NÔNG NGHIỆ</tspan><tspan class="cls-7" x="234.57" y="54">P</tspan></text></g></g></svg>