<svg xmlns="http://www.w3.org/2000/svg" viewBox="0 0 269.41 109.74"><defs><style>.cls-1{fill:#fff;}</style></defs><title>Asset 11</title><g id="Layer_2" data-name="Layer 2"><g id="Layer_1-2" data-name="Layer 1"><path class="cls-1" d="M46.12,109.74v-2.17a9.49,9.49,0,0,0,6.78-3.41q2.26-2.88,7.76-15.83L85.08,30.8h2.34l29.2,66.46q2.92,6.61,4.67,8.17t5.87,2.14v2.17H97.35v-2.17a26.3,26.3,0,0,0,6.62-1.12c1-.43,1.49-1.51,1.49-3.21a14.13,14.13,0,0,0-.57-3,32.16,32.16,0,0,0-1.61-4.56L98.59,84.38H67.69q-4.56,11.5-5.45,14a13.1,13.1,0,0,0-.89,4,4.15,4.15,0,0,0,2.4,4.1,19,19,0,0,0,5.6,1v2.17ZM96.61,79.63,83.18,47.34,69.68,79.63Z"/><path class="cls-1" d="M124.22,32.17h66.29l.63,19.93h-2.81q-2.06-9.39-5.24-12.23T169.73,37H163.2V97q0,6.78,2.12,8.4t9.27,2.14v2.17H140.42v-2.17q7.44-.57,9.27-2.45t1.83-9.46V37h-6.58q-9.74,0-13.25,2.8t-5.3,12.26h-2.86Z"/><path class="cls-1" d="M200.72,107.57q6.47-.69,8.39-2.31T211,97V44.88q0-6.24-1.89-8.16c-1.26-1.27-4.06-2.07-8.41-2.37V32.17H263L263.4,49h-3c-1-5.17-2.48-8.51-4.47-10s-6.41-2.28-13.28-2.28h-16c-1.73,0-2.79.28-3.19.83a5.69,5.69,0,0,0-.6,3.12V66.75H241q7.5,0,9.56-2.22t3.32-9h2.75V82.61H253.9q-1.32-6.83-3.38-9t-9.5-2.2H222.93v29q0,3.5,2.21,4.12t13.21.63q11.93,0,17.6-2.6t10.2-12.63h3.26l-5.32,19.81H200.72Z"/><path class="cls-1" d="M46.93,33.72c.69-.11,1.37-.24,2-.39,13.39-2.91,23.7-12.44,23.7-12.44a36.16,36.16,0,0,0-22.94-1.13c-.83.23-1.65.48-2.44.76C58.69,10.14,59.72,0,59.72,0,49.72,4.33,43.33,9.42,39,14.23,41.17,4.6,35.4,1.08,35.4,1.08h0S28,9.3,26.88,18.07c-2.57-2.35-6.75-3.55-13.49-1.94,0,0-2,8.47,4,12.64q-.86.16-1.77.42C11.24,30.4,6,33.17,0,38.8c0,0,3.82,4.35,12.39,2.49.48-.11,1-.23,1.48-.38a48,48,0,0,0-12,19.36s10-1.58,19.44-12.45c-1.65,6-2.71,13.84,2.15,22.38h0c8.29-9.73,10.25-18.14,10.67-24.63,7.61,9.31,22.68,7.87,22.68,7.87C56,42.19,51.53,36.57,46.93,33.72Z"/><path class="cls-1" d="M23.59,69.75C19.12,61.46,20.28,54,21.81,48.31l.54-2L21,47.88C13.35,56.74,5.19,59.37,2.65,60A47.65,47.65,0,0,1,14.26,41.63l1.37-1.32-1.82.53c-.49.14-1,.26-1.46.36a19,19,0,0,1-4,.46,11.59,11.59,0,0,1-7.6-2.47C5.91,34.44,11,31.36,15.8,30c.57-.16,1.16-.3,1.73-.41l1.1-.21-.91-.64c-5.06-3.53-4.14-10.39-3.87-11.87a24.1,24.1,0,0,1,5.26-.65,10.8,10.8,0,0,1,7.52,2.55l.67.61.12-.9c.95-7.57,6.79-14.85,8.13-16.42,1.15.89,4.86,4.47,3.1,12.42l-.39,1.76,1.2-1.34C44.34,9.45,51,4.82,59.17,1.16c-.52,2.6-2.87,11-12.13,19.38l-1.69,1.54,2.17-.74c.78-.27,1.59-.53,2.41-.75a35.73,35.73,0,0,1,9.6-1.33,37.12,37.12,0,0,1,12.31,2.17c-2.37,2-11.58,9.36-22.9,11.82-.68.15-1.36.27-2,.38l-1.25.19,1.08.67c5.65,3.51,8.89,9.86,9.61,18.89-.38,0-1,0-1.71,0-4.13,0-14.36-.76-20.1-7.78l-.76-.92-.08,1.19c-.35,5.46-1.79,13.83-10.12,23.83Z"/><path class="cls-1" d="M56.08,18.52c-3.44,0-18.8,4.2-18.8,4.2L33.93,8.84,26.63,26s-10.51,3-15,5.21l10.17,6L11.91,56C17.18,53.08,29.3,41.84,29.3,41.84h0s9,9,15.34,10.32L39.49,32.72Z"/><path class="cls-1" d="M55,18.59C49.31,19,36.59,22.4,36.59,22.4L33.93,8.84,26,25.56s-10.56,3.15-15,5.35l10.09,5.78L11.76,56.08C16.93,53.23,28.4,41.32,28.4,41.32h0s8.49,8.8,14.82,10.38L38.44,32.35Z"/></g></g></svg>