<svg width="24" height="24" viewBox="0 0 24 24" fill="none" xmlns="http://www.w3.org/2000/svg">
<g clip-path="url(#clip0_1_14213)">
<path d="M15.9705 0H7.98454C3.5748 0 0 3.5748 0 7.98454V15.9705C0 20.3802 3.5748 23.955 7.98454 23.955H15.9705C20.3802 23.955 23.955 20.3802 23.955 15.9705V7.98454C23.955 3.5748 20.3802 0 15.9705 0Z" fill="url(#paint0_linear_1_14213)"/>
<g style="mix-blend-mode:overlay">
<path d="M15.9705 0H7.98454C3.5748 0 0 3.5748 0 7.98454V15.9705C0 20.3802 3.5748 23.955 7.98454 23.955H15.9705C20.3802 23.955 23.955 20.3802 23.955 15.9705V7.98454C23.955 3.5748 20.3802 0 15.9705 0Z" fill="url(#paint1_radial_1_14213)"/>
</g>
<g clip-path="url(#clip1_1_14213)">
<path d="M14.0449 14.653C13.4581 15.109 12.7177 15.3754 11.9137 15.3646C10.1533 15.3394 8.67725 13.9366 8.56805 12.1798C8.44565 10.2034 10.0129 8.56184 11.9629 8.56184C12.7981 8.56184 13.5625 8.86304 14.1541 9.36224C14.4073 9.57584 14.7769 9.57824 15.0313 9.36464L16.6081 8.03744C16.9189 7.77584 16.9333 7.30184 16.6393 7.02344C15.3277 5.78144 13.5229 5.05544 11.5489 5.17184C8.10125 5.37704 5.32565 8.19224 5.16725 11.6422C4.98845 15.5458 8.10005 18.7654 11.9629 18.7654C13.6729 18.7654 15.2341 18.1342 16.4293 17.0938C16.7365 16.8262 16.7449 16.351 16.4449 16.0762L14.9257 14.6842C14.6797 14.4586 14.3089 14.4478 14.0449 14.653Z" fill="white"/>
<path d="M18.7654 8.56421L18.0166 11.371C17.9554 11.599 17.7538 11.7598 17.5186 11.7682L12.0382 11.9662L17.5186 12.1702C17.7538 12.1786 17.9554 12.3394 18.0154 12.5674L18.7654 15.3658H17.9158L11.9626 11.965L17.9146 8.56421H18.7654Z" fill="white"/>
</g>
</g>
<defs>
<linearGradient id="paint0_linear_1_14213" x1="23.955" y1="8.23464e-07" x2="8.23464e-07" y2="23.955" gradientUnits="userSpaceOnUse">
<stop stop-color="#DF3BFF"/>
<stop offset="0.77801" stop-color="#380FB0"/>
</linearGradient>
<radialGradient id="paint1_radial_1_14213" cx="0" cy="0" r="1" gradientUnits="userSpaceOnUse" gradientTransform="translate(21.72 1.92) rotate(138.366) scale(13.0049 15.8333)">
<stop stop-color="white"/>
<stop offset="1" stop-color="#1E77AD" stop-opacity="0"/>
</radialGradient>
<clipPath id="clip0_1_14213">
<rect width="24" height="24" fill="white"/>
</clipPath>
<clipPath id="clip1_1_14213">
<rect width="13.6056" height="13.6068" fill="white" transform="translate(5.15991 5.15991)"/>
</clipPath>
</defs>
</svg>
