<svg width="152" height="30" viewBox="0 0 152 30" fill="none" xmlns="http://www.w3.org/2000/svg">
<g clip-path="url(#clip0_59_3931)">
<path d="M48.4421 11.2725L53.2286 12.5051L66.744 0.721436L48.4421 11.2725Z" fill="#3FDDFE"/>
<path d="M55.5596 13.1052L60.9823 14.5017L66.7439 0.721436L55.5596 13.1052Z" fill="#3FDDFE"/>
<path d="M66.7441 0.721436L53.2288 12.5051L55.5597 16.4278L57.559 13.6201L55.5597 13.1052L66.7441 0.721436Z" fill="#4D7FFD"/>
<path d="M55.5596 13.1051V16.4278L57.5589 13.62L55.5596 13.1051Z" fill="#240065"/>
<path d="M14.1069 23.9491V14.8134C14.1069 14.4655 14.3251 14.2478 14.6523 14.2478H16.8339C17.1612 14.2478 17.3793 14.4653 17.3793 14.8134V23.9491C17.3793 24.297 17.1612 24.5147 16.8339 24.5147H14.6523C14.3251 24.5147 14.1069 24.2972 14.1069 23.9491Z" fill="#240065"/>
<path d="M15.7431 13.0983C16.6468 13.0983 17.3793 12.3679 17.3793 11.4669C17.3793 10.5659 16.6468 9.83545 15.7431 9.83545C14.8395 9.83545 14.1069 10.5659 14.1069 11.4669C14.1069 12.3679 14.8395 13.0983 15.7431 13.0983Z" fill="#3FDDFE"/>
<path d="M0 23.9152V9.86541C0 9.51935 0.218117 9.28857 0.545397 9.28857H7.06808C10.4494 9.28857 12.1294 11.2266 12.1294 13.5104C12.1294 14.9408 11.4313 16.1867 9.88235 16.8094C11.4313 17.3399 12.6748 18.7242 12.6748 20.27C12.6748 22.5769 11.0169 24.5149 7.61348 24.5149H0.545397C0.218117 24.5149 0 24.2842 0 23.9152ZM8.81343 13.8796C8.81343 13.1874 8.39887 12.5184 7.19912 12.5184H3.38134V15.3332L7.13349 15.356C8.2245 15.356 8.81343 14.5947 8.81343 13.8796ZM7.39536 21.2851C8.9226 21.2851 9.29342 20.4083 9.29342 19.7625C9.29342 19.0243 8.74802 18.3783 7.8318 18.3783H3.38134V21.2851H7.39536Z" fill="#240065"/>
<path d="M18.811 23.9274V22.9705C18.811 22.7312 18.8329 22.5789 18.8765 22.4701C19.5091 20.8389 21.2762 18.5766 22.6942 17.1627H19.4002C19.0512 17.1627 18.8112 16.9236 18.8112 16.5754V14.8354C18.8112 14.4873 19.0512 14.2482 19.4002 14.2482H26.5558C26.9047 14.2482 27.1447 14.4656 27.1447 14.8354L27.1228 15.8794C27.1228 16.1403 27.0793 16.3364 26.9266 16.4886C25.3993 18.0548 23.2834 20.4909 22.8036 21.7526H26.6649C27.0139 21.7526 27.2539 21.9917 27.2539 22.3398V23.9276C27.2539 24.2755 27.0139 24.5148 26.6649 24.5148H19.3568C19.0073 24.5148 18.811 24.2753 18.811 23.9274Z" fill="#240065"/>
<path d="M28.6855 23.9501V15.3269C28.6855 12.4596 29.7311 9.28857 33.7395 9.28857C34.001 9.28857 34.2404 9.52745 34.2841 9.74452L34.5672 11.3518C34.6326 11.7212 34.5018 12.0034 34.1099 12.0687C32.4544 12.3294 31.779 13.1546 31.779 14.8272H34.3931C34.7199 14.8272 34.9595 15.0444 34.9595 15.3701V17.1295C34.9595 17.4554 34.7197 17.6725 34.3931 17.6725H31.8879V23.9499C31.8879 24.2974 31.67 24.5145 31.3434 24.5145H29.2303C28.9035 24.5149 28.6855 24.2977 28.6855 23.9501Z" fill="#240065"/>
<path d="M36.3916 23.9495V9.83238C36.3916 9.50606 36.6097 9.28857 36.937 9.28857H39.053C39.3802 9.28857 39.5984 9.50606 39.5984 9.83238V23.9493C39.5984 24.2972 39.3802 24.5147 39.053 24.5147H36.937C36.6097 24.5149 36.3916 24.2972 36.3916 23.9495Z" fill="#240065"/>
<path d="M42.9283 28.4518C42.6446 28.343 42.5792 28.0605 42.7102 27.7776L43.3208 26.342C43.43 26.0157 43.7571 25.9071 44.0843 26.0591C44.8695 26.4072 45.3714 26.5161 45.9168 26.5161C47.7492 26.5161 48.5565 25.3414 48.3165 23.5794C47.7711 24.232 46.8111 24.7324 45.5897 24.7324C43.3208 24.7324 41.0303 23.2314 41.0303 19.5118V14.8135C41.0303 14.4655 41.2484 14.248 41.5757 14.248H43.7354C44.0625 14.248 44.2806 14.4655 44.2806 14.8135V19.6205C44.2806 21.1214 44.9351 21.97 46.2005 21.97C47.1384 21.97 48.0111 21.513 48.36 20.5126V14.8135C48.36 14.4655 48.5781 14.248 48.9273 14.248H50.9997C51.327 14.248 51.5451 14.4655 51.5451 14.8135V23.5794C51.5451 27.8428 49.4943 29.2785 46.3749 29.2785C44.9351 29.2785 43.9318 29.0174 42.9283 28.4518Z" fill="#240065"/>
</g>
<path d="M64.082 24.687V13.5298H66.2178L70.9675 21.4036H69.8359L74.506 13.5298H76.6258L76.6577 24.687H74.235L74.2191 17.2436H74.6653L70.9357 23.5075H69.7721L65.9627 17.2436H66.5047V24.687H64.082ZM79.3048 24.687V13.5298H81.8869V24.687H79.3048ZM84.5347 24.687V13.5298H86.6705L93.2533 21.563H92.2172V13.5298H94.7674V24.687H92.6476L86.0489 16.6538H87.0849V24.687H84.5347ZM97.4072 24.687V13.5298H99.9893V24.687H97.4072ZM108.024 24.8783C107.142 24.8783 106.33 24.7401 105.586 24.4639C104.853 24.177 104.21 23.7732 103.657 23.2525C103.115 22.7318 102.69 22.1209 102.382 21.4196C102.085 20.7182 101.936 19.9479 101.936 19.1084C101.936 18.269 102.085 17.4986 102.382 16.7973C102.69 16.096 103.121 15.485 103.673 14.9643C104.226 14.4437 104.874 14.0452 105.618 13.7689C106.361 13.482 107.18 13.3386 108.072 13.3386C109.06 13.3386 109.948 13.5033 110.734 13.8327C111.531 14.1621 112.2 14.6402 112.742 15.2672L111.085 16.7973C110.681 16.3723 110.24 16.0588 109.762 15.8569C109.284 15.6444 108.763 15.5381 108.2 15.5381C107.658 15.5381 107.164 15.6231 106.717 15.7931C106.271 15.9632 105.883 16.2076 105.554 16.5263C105.235 16.8451 104.985 17.2223 104.805 17.658C104.635 18.0936 104.55 18.5771 104.55 19.1084C104.55 19.6291 104.635 20.1073 104.805 20.5429C104.985 20.9786 105.235 21.3611 105.554 21.6905C105.883 22.0093 106.266 22.2537 106.702 22.4237C107.148 22.5937 107.637 22.6787 108.168 22.6787C108.678 22.6787 109.172 22.599 109.65 22.4396C110.139 22.2696 110.612 21.988 111.069 21.5949L112.535 23.4597C111.929 23.9166 111.223 24.2673 110.415 24.5117C109.618 24.7561 108.821 24.8783 108.024 24.8783ZM110.176 23.125V18.9331H112.535V23.4597L110.176 23.125ZM113.467 24.687L118.44 13.5298H120.99L125.979 24.687H123.27L119.189 14.8368H120.209L116.113 24.687H113.467ZM115.954 22.2962L116.639 20.3357H122.377L123.078 22.2962H115.954ZM127.137 24.687V13.5298H129.273L134.022 21.4036H132.891L137.561 13.5298H139.681L139.713 24.687H137.29L137.274 17.2436H137.72L133.991 23.5075H132.827L129.018 17.2436H129.56V24.687H127.137ZM144.735 18.0246H150.106V20.0329H144.735V18.0246ZM144.926 22.615H150.999V24.687H142.36V13.5298H150.791V15.6019H144.926V22.615Z" fill="#3FDDFE"/>
<defs>
<clipPath id="clip0_59_3931">
<rect width="66.7439" height="28.5571" fill="white" transform="translate(0 0.721436)"/>
</clipPath>
</defs>
</svg>
